<?xml version="1.0" standalone="no"?>
<!DOCTYPE svg PUBLIC "-//W3C//DTD SVG 20010904//EN"
 "http://www.w3.org/TR/2001/REC-SVG-20010904/DTD/svg10.dtd">
<svg version="1.0" xmlns="http://www.w3.org/2000/svg"
 width="920.000000pt" height="950.000000pt" viewBox="0 0 920.000000 950.000000"
 preserveAspectRatio="xMidYMid meet">

<g transform="translate(0.000000,950.000000) scale(0.100000,-0.100000)"
fill="#000000" stroke="none">
<path d="M1183 8974 c-8 -21 13 -42 28 -27 13 13 5 43 -11 43 -6 0 -13 -7 -17
-16z m27 -9 c0 -8 -4 -15 -10 -15 -5 0 -10 7 -10 15 0 8 5 15 10 15 6 0 10 -7
10 -15z"/>
<path d="M772 8968 c-7 -7 -12 -37 -12 -68 0 -31 5 -61 12 -68 7 -7 37 -12 68
-12 31 0 61 5 68 12 7 7 11 38 10 78 l-2 65 -5 -70 -6 -70 -37 -3 -38 -3 0 70
0 70 38 4 c26 2 19 4 -23 5 -36 1 -66 -3 -73 -10z m48 -69 c0 -67 -1 -70 -22
-67 -20 3 -23 10 -26 57 -4 66 1 81 28 81 18 0 20 -6 20 -71z"/>
<path d="M788 8873 c7 -3 16 -2 19 1 4 3 -2 6 -13 5 -11 0 -14 -3 -6 -6z"/>
<path d="M6747 8952 c-13 -15 -13 -19 2 -33 15 -14 17 -14 31 0 13 14 13 18
-2 33 -15 15 -17 15 -31 0z"/>
<path d="M6654 8938 c-19 -23 -19 -23 1 -7 11 9 27 19 35 22 13 5 13 6 -1 6
-9 1 -24 -9 -35 -21z"/>
<path d="M7628 8933 c7 -3 16 -2 19 1 4 3 -2 6 -13 5 -11 0 -14 -3 -6 -6z"/>
<path d="M8398 8933 c7 -3 16 -2 19 1 4 3 -2 6 -13 5 -11 0 -14 -3 -6 -6z"/>
<path d="M8430 8918 c0 -9 -6 -19 -12 -21 -10 -4 -10 -6 0 -6 14 -1 28 26 18
36 -3 4 -6 -1 -6 -9z"/>
<path d="M8693 8895 c0 -22 2 -30 4 -17 2 12 2 30 0 40 -3 9 -5 -1 -4 -23z"/>
<path d="M1170 8904 c-15 -8 -19 -14 -9 -14 8 0 20 5 27 12 9 9 15 9 24 0 7
-7 19 -12 28 -12 8 0 2 7 -14 15 -15 8 -29 15 -30 14 0 -1 -12 -7 -26 -15z"/>
<path d="M7083 8895 l27 -30 28 30 27 29 -27 -24 -28 -23 -27 23 -28 24 28
-29z"/>
<path d="M8492 8890 c0 -19 2 -27 5 -17 2 9 2 25 0 35 -3 9 -5 1 -5 -18z"/>
<path d="M6631 8893 c-1 -25 31 -63 52 -62 6 0 2 5 -11 11 -12 6 -26 25 -31
42 -7 25 -9 27 -10 9z"/>
<path d="M7682 8885 c0 -16 2 -22 5 -12 2 9 2 23 0 30 -3 6 -5 -1 -5 -18z"/>
<path d="M7842 8885 c0 -16 2 -22 5 -12 2 9 2 23 0 30 -3 6 -5 -1 -5 -18z"/>
<path d="M8611 8894 c0 -11 3 -14 6 -6 3 7 2 16 -1 19 -3 4 -6 -2 -5 -13z"/>
<path d="M7628 8893 c6 -2 18 -2 25 0 6 3 1 5 -13 5 -14 0 -19 -2 -12 -5z"/>
<path d="M6670 8875 c0 -8 5 -15 11 -15 5 0 7 5 4 10 -3 6 3 10 15 10 12 0 18
-4 15 -10 -3 -5 -1 -10 4 -10 6 0 11 7 11 15 0 10 -10 15 -30 15 -20 0 -30 -5
-30 -15z"/>
<path d="M7723 8880 c2 -8 12 -16 23 -17 13 -2 15 -1 4 4 -8 3 -19 11 -23 17
-6 7 -7 6 -4 -4z"/>
<path d="M7796 8877 c3 -10 9 -15 12 -12 3 3 0 11 -7 18 -10 9 -11 8 -5 -6z"/>
<path d="M7945 8879 c-4 -6 -5 -12 -2 -15 2 -3 7 2 10 11 7 17 1 20 -8 4z"/>
<path d="M7976 8877 c3 -10 9 -15 12 -12 3 3 0 11 -7 18 -10 9 -11 8 -5 -6z"/>
<path d="M8663 8875 c0 -8 4 -12 9 -9 5 3 6 10 3 15 -9 13 -12 11 -12 -6z"/>
<path d="M1123 8854 c-3 -8 -1 -20 5 -26 8 -8 9 -5 5 10 -4 17 0 21 29 25 l33
4 -33 1 c-21 1 -35 -3 -39 -14z"/>
<path d="M1203 8851 c-10 -10 -27 -23 -38 -29 -11 -6 -15 -12 -8 -12 6 0 25
11 41 25 38 32 77 34 69 4 -4 -16 -3 -19 5 -11 17 17 1 42 -26 42 -14 0 -33
-8 -43 -19z"/>
<path d="M6750 8856 c0 -8 -10 -17 -22 -19 -20 -4 -19 -4 5 -6 21 -1 27 4 27
19 0 11 -2 20 -5 20 -3 0 -5 -6 -5 -14z"/>
<path d="M1653 8060 c0 -30 2 -43 4 -27 2 15 2 39 0 55 -2 15 -4 2 -4 -28z"/>
<path d="M1773 8060 c0 -30 2 -43 4 -27 2 15 2 39 0 55 -2 15 -4 2 -4 -28z"/>
<path d="M1882 8083 c-23 -65 -25 -70 -12 -50 6 9 20 17 30 17 10 0 24 -8 30
-17 9 -15 10 -14 4 7 -3 14 -11 32 -16 40 -8 12 -9 12 -4 -2 3 -12 0 -18 -9
-18 -18 0 -20 21 -3 38 8 8 8 12 1 12 -6 0 -16 -12 -21 -27z"/>
<path d="M2010 8096 c0 -9 -7 -12 -18 -9 -10 2 -24 -2 -31 -11 -19 -22 3 -56
34 -54 22 2 25 7 25 45 0 24 -2 43 -5 43 -3 0 -5 -6 -5 -14z m-5 -41 c0 -11
-8 -21 -17 -23 -14 -3 -18 3 -18 23 0 20 4 26 18 23 9 -2 17 -12 17 -23z"/>
<path d="M2093 8065 c0 -27 2 -38 4 -22 2 15 2 37 0 50 -2 12 -4 0 -4 -28z"/>
<path d="M3022 8083 c-5 -16 -13 -37 -18 -48 l-7 -20 20 20 c11 11 18 28 15
38 -2 9 1 17 7 17 6 0 12 -4 12 -10 3 -20 5 -25 17 -45 12 -19 12 -18 6 5 -21
76 -35 88 -52 43z"/>
<path d="M3150 8097 c0 -8 -10 -13 -22 -13 -19 1 -23 -4 -23 -29 0 -26 4 -30
28 -31 25 -1 27 1 27 42 0 24 -2 44 -5 44 -3 0 -5 -6 -5 -13z m-5 -42 c0 -11
-8 -21 -17 -23 -14 -3 -18 3 -18 23 0 20 4 26 18 23 9 -2 17 -12 17 -23z"/>
<path d="M3233 8065 c0 -27 2 -38 4 -22 2 15 2 37 0 50 -2 12 -4 0 -4 -28z"/>
<path d="M3538 8097 c-7 -21 6 -70 20 -73 7 -1 8 0 2 3 -12 6 -13 50 -1 55 5
2 3 8 -4 15 -10 9 -14 9 -17 0z"/>
<path d="M3673 8065 c0 -27 2 -38 4 -22 2 15 2 37 0 50 -2 12 -4 0 -4 -28z"/>
<path d="M3455 8060 c0 -30 4 -35 27 -38 49 -6 49 63 0 70 -27 4 -28 2 -27
-32z m53 -3 c4 -21 -27 -35 -38 -17 -12 19 0 42 19 38 9 -2 17 -11 19 -21z"/>
<path d="M3622 8091 c4 -13 18 -16 19 -4 0 4 -5 9 -11 12 -7 2 -11 -2 -8 -8z"/>
<path d="M2044 8076 c-10 -25 0 -51 21 -54 18 -2 19 -2 3 8 -10 6 -18 19 -18
30 0 10 8 21 18 23 16 4 16 5 -1 6 -10 0 -20 -5 -23 -13z"/>
<path d="M2164 8076 c-15 -39 23 -74 50 -46 8 9 4 10 -16 5 -25 -7 -28 -5 -28
20 0 24 3 26 26 21 17 -5 23 -3 19 4 -9 15 -45 12 -51 -4z"/>
<path d="M2242 8078 c-7 -7 -12 -17 -12 -22 0 -6 7 -3 15 8 17 22 48 14 43
-11 -2 -11 -12 -18 -25 -17 -12 0 -20 -3 -17 -8 17 -27 59 9 49 42 -7 22 -34
27 -53 8z"/>
<path d="M2322 8060 c14 -42 24 -45 37 -8 15 42 12 50 -4 13 l-13 -30 -11 28
c-14 37 -23 35 -9 -3z"/>
<path d="M2394 8076 c-11 -28 1 -51 26 -53 22 -1 22 -1 3 4 -31 6 -29 23 3 23
20 0 25 4 20 16 -3 9 -6 18 -6 20 0 11 -41 2 -46 -10z m41 -6 c3 -5 -3 -10
-14 -10 -12 0 -21 5 -21 10 0 6 6 10 14 10 8 0 18 -4 21 -10z"/>
<path d="M2473 8055 c0 -22 2 -30 4 -17 2 12 2 30 0 40 -3 9 -5 -1 -4 -23z"/>
<path d="M2910 8077 c0 -14 -10 -17 -54 -17 -30 0 -57 5 -59 10 -3 6 -4 5 -3
-2 2 -8 23 -14 59 -16 45 -2 59 0 63 13 4 9 4 19 0 22 -3 4 -6 -1 -6 -10z"/>
<path d="M3184 8076 c-10 -25 0 -51 21 -54 18 -2 19 -2 3 8 -10 6 -18 19 -18
30 0 10 8 21 18 23 16 4 16 5 -1 6 -10 0 -20 -5 -23 -13z"/>
<path d="M3305 8080 c-8 -14 3 -30 21 -30 8 0 14 -5 14 -11 0 -7 -9 -9 -21 -6
-16 4 -19 3 -11 -5 12 -12 42 -4 42 13 0 6 -9 13 -20 16 -27 7 -25 21 3 26 22
4 22 4 0 6 -12 0 -25 -3 -28 -9z"/>
<path d="M3371 8073 c-2 -32 9 -53 27 -53 14 0 14 1 0 13 -9 6 -19 23 -21 37
-4 22 -4 22 -6 3z"/>
<path d="M3423 8055 c0 -22 2 -30 4 -17 2 12 2 30 0 40 -3 9 -5 -1 -4 -23z"/>
<path d="M3593 8055 c0 -22 2 -30 4 -17 2 12 2 30 0 40 -3 9 -5 -1 -4 -23z"/>
<path d="M3710 8076 c-23 -28 17 -73 42 -48 8 8 5 9 -9 6 -12 -3 -24 -1 -27 5
-5 7 3 11 19 11 20 0 26 4 23 17 -4 23 -31 28 -48 9z m40 -6 c0 -5 -9 -10 -21
-10 -11 0 -17 5 -14 10 3 6 13 10 21 10 8 0 14 -4 14 -10z"/>
<path d="M1684 8048 c-4 -7 -3 -8 5 -4 6 4 20 2 29 -6 15 -12 16 -11 3 5 -16
20 -27 22 -37 5z"/>
<path d="M3630 8030 c0 -5 5 -10 11 -10 5 0 7 5 4 10 -3 6 -8 10 -11 10 -2 0
-4 -4 -4 -10z"/>
<path d="M1740 7500 c0 -93 1 -100 20 -100 19 0 20 7 20 100 0 93 -1 100 -20
100 -19 0 -20 -7 -20 -100z"/>
<path d="M2500 7570 c0 -27 -2 -30 -25 -24 -78 20 -123 -65 -68 -127 10 -12
30 -17 74 -16 l59 0 0 99 c0 91 -1 98 -20 98 -16 0 -20 -7 -20 -30z m-10 -65
c15 -18 5 -64 -15 -72 -9 -3 -22 0 -30 7 -15 13 -21 61 -8 73 11 12 40 8 53
-8z"/>
<path d="M2917 7593 c-14 -13 -6 -23 18 -23 16 0 25 6 25 15 0 15 -31 21 -43
8z"/>
<path d="M3520 7500 c0 -93 1 -100 20 -100 17 0 20 7 20 48 0 55 10 75 36 70
16 -3 20 -14 22 -61 3 -49 6 -57 22 -57 18 0 20 7 20 64 0 75 -13 91 -65 83
-33 -5 -35 -4 -35 24 0 22 -5 29 -20 29 -19 0 -20 -7 -20 -100z"/>
<path d="M4802 7588 c-7 -7 -12 -18 -12 -25 0 -7 -10 -13 -23 -13 -13 0 -28
-5 -35 -12 -9 -9 -12 -9 -12 0 0 7 -9 12 -20 12 -18 0 -20 -7 -20 -75 0 -68 2
-75 20 -75 17 0 20 7 20 49 0 53 1 55 43 65 l27 6 0 -61 c0 -57 1 -60 23 -57
19 3 22 10 25 61 2 42 7 57 17 57 8 0 15 7 15 15 0 8 -7 15 -15 15 -8 0 -15 5
-15 10 0 6 7 13 15 16 8 4 15 10 15 15 0 13 -54 11 -68 -3z"/>
<path d="M5070 7500 c0 -93 1 -100 20 -100 19 0 20 7 20 100 0 93 -1 100 -20
100 -19 0 -20 -7 -20 -100z"/>
<path d="M5210 7500 c0 -93 1 -100 20 -100 17 0 20 7 20 45 l0 45 45 0 45 0 0
-45 c0 -38 3 -45 20 -45 19 0 20 7 20 100 0 93 -1 100 -20 100 -16 0 -20 -7
-20 -34 0 -32 -2 -34 -41 -38 -22 -2 -42 -2 -45 1 -2 2 -4 19 -4 38 0 26 -4
33 -20 33 -19 0 -20 -7 -20 -100z"/>
<path d="M5757 7593 c-4 -3 -7 -48 -7 -100 0 -86 1 -93 20 -93 17 0 20 7 20
48 0 55 10 75 36 70 16 -3 20 -14 22 -61 3 -49 6 -57 22 -57 18 0 20 7 20 64
0 75 -13 91 -65 83 -33 -5 -35 -4 -35 24 0 27 -17 39 -33 22z"/>
<path d="M6380 7563 c0 -29 -3 -34 -12 -25 -18 18 -63 14 -81 -6 -24 -26 -22
-87 3 -112 22 -22 60 -26 78 -8 9 9 12 9 12 0 0 -7 9 -12 20 -12 19 0 20 7 20
100 0 93 -1 100 -20 100 -16 0 -20 -7 -20 -37z m-5 -82 c0 -41 -25 -62 -49
-42 -33 27 -12 85 29 79 16 -2 20 -11 20 -37z"/>
<path d="M2000 7570 c0 -11 -4 -20 -10 -20 -5 0 -10 -7 -10 -15 0 -8 5 -15 10
-15 6 0 10 -23 10 -50 0 -45 3 -52 26 -60 14 -6 32 -10 40 -10 21 0 17 27 -6
33 -16 4 -20 14 -20 46 0 30 4 41 15 41 8 0 15 7 15 15 0 8 -7 15 -15 15 -8 0
-15 9 -15 20 0 13 -7 20 -20 20 -13 0 -20 -7 -20 -20z"/>
<path d="M3420 7571 c0 -10 -7 -21 -15 -25 -8 -3 -15 -10 -15 -16 0 -5 7 -10
15 -10 11 0 15 -12 15 -50 0 -51 15 -70 54 -70 20 0 21 26 1 34 -10 3 -15 19
-15 46 0 29 4 40 15 40 8 0 15 7 15 15 0 8 -7 15 -15 15 -8 0 -15 9 -15 20 0
13 -7 20 -20 20 -13 0 -20 -7 -20 -19z"/>
<path d="M1820 7474 c0 -67 2 -74 20 -74 16 0 19 8 22 58 3 53 5 57 28 57 23
0 25 -4 28 -57 3 -50 6 -58 22 -58 17 0 20 7 20 56 0 83 -9 93 -80 92 l-60 -1
0 -73z"/>
<path d="M2100 7475 c0 -73 1 -75 25 -75 23 0 25 3 25 51 0 42 3 52 20 56 11
3 20 14 20 24 0 21 -20 25 -38 7 -9 -9 -12 -9 -12 0 0 7 -9 12 -20 12 -18 0
-20 -7 -20 -75z"/>
<path d="M2226 7528 c-39 -55 -5 -128 59 -128 45 0 75 32 75 79 0 49 -24 71
-78 71 -31 0 -45 -5 -56 -22z m92 -44 c3 -34 -18 -60 -43 -50 -21 8 -28 31
-21 62 5 20 12 25 34 22 22 -2 28 -9 30 -34z"/>
<path d="M2570 7503 c0 -27 3 -58 6 -71 8 -27 49 -40 76 -23 11 7 18 7 18 1 0
-5 9 -10 20 -10 18 0 20 7 20 75 0 68 -2 75 -20 75 -17 0 -20 -7 -20 -44 0
-54 -8 -76 -26 -76 -20 0 -34 33 -34 79 0 34 -3 41 -20 41 -17 0 -20 -7 -20
-47z"/>
<path d="M2759 7529 c-17 -17 -20 -29 -16 -62 3 -22 11 -44 19 -49 41 -27 97
-18 117 20 8 15 6 19 -7 19 -9 0 -25 -6 -34 -15 -10 -8 -24 -12 -32 -9 -21 8
-31 54 -16 72 14 17 50 20 50 5 0 -5 9 -10 20 -10 26 0 26 26 1 40 -32 17 -79
12 -102 -11z"/>
<path d="M2919 7543 c0 -5 -1 -37 -1 -73 0 -58 2 -65 21 -68 20 -3 21 1 21 72
0 69 -2 76 -20 76 -11 0 -20 -3 -21 -7z"/>
<path d="M2990 7474 c0 -72 1 -74 25 -74 22 0 24 4 27 58 3 49 6 57 23 57 17
0 20 -8 23 -57 3 -50 6 -58 22 -58 18 0 20 7 20 63 0 34 -4 67 -8 74 -4 6 -33
11 -69 11 l-63 0 0 -74z"/>
<path d="M3176 7531 c-22 -25 -20 -77 4 -101 22 -22 60 -26 78 -8 9 9 12 7 12
-10 0 -27 -26 -39 -51 -24 -23 14 -49 16 -49 3 0 -16 43 -41 70 -41 14 0 36 7
48 16 20 14 22 24 22 98 l0 83 -59 1 c-44 1 -63 -4 -75 -17z m89 -51 c0 -29
-4 -36 -22 -38 -30 -4 -53 39 -33 63 7 9 23 15 34 13 17 -2 21 -10 21 -38z"/>
<path d="M3706 7528 c-17 -23 -21 -75 -8 -94 24 -37 88 -43 122 -12 28 26 13
36 -31 18 -23 -10 -32 -10 -44 0 -27 22 -16 30 40 30 48 0 55 2 55 20 0 56
-102 84 -134 38z m92 -25 c2 -9 -8 -13 -32 -13 -34 0 -44 8 -29 24 11 11 56 2
61 -11z"/>
<path d="M3930 7455 c0 -84 2 -93 20 -98 17 -4 20 0 20 29 0 31 2 34 19 24 51
-27 91 3 91 67 0 56 -21 72 -92 71 l-58 -1 0 -92z m98 53 c28 -28 2 -88 -33
-74 -21 8 -29 31 -21 61 7 27 34 33 54 13z"/>
<path d="M4127 7532 c-24 -26 -22 -87 3 -112 28 -28 75 -26 105 5 31 30 33 77
5 105 -26 26 -90 27 -113 2z m83 -26 c28 -34 -11 -94 -44 -67 -16 13 -22 62
-9 74 11 12 40 8 53 -7z"/>
<path d="M4277 7523 c29 -120 29 -118 54 -121 24 -3 26 1 35 55 l10 58 13 -57
c11 -51 15 -58 37 -58 16 0 25 7 29 23 30 132 30 127 5 127 -15 0 -21 -9 -26
-40 -7 -45 -24 -64 -24 -28 0 47 -12 69 -34 66 -16 -2 -23 -14 -30 -48 -7 -37
-10 -41 -17 -25 -4 11 -8 32 -8 48 -1 22 -6 27 -26 27 -23 0 -25 -3 -18 -27z"/>
<path d="M4527 7539 c-27 -16 -38 -53 -26 -89 20 -55 79 -67 126 -25 26 22 26
24 8 25 -12 0 -26 -5 -32 -11 -15 -15 -63 -3 -63 16 0 11 13 15 55 15 32 0 55
4 55 11 0 15 -21 53 -34 61 -16 11 -68 9 -89 -3z m76 -34 c1 -5 -13 -11 -30
-13 -31 -3 -42 6 -26 22 10 10 53 3 56 -9z"/>
<path d="M4892 7484 c4 -79 18 -96 68 -77 16 6 30 7 30 2 0 -5 9 -9 20 -9 18
0 20 7 20 75 0 68 -2 75 -20 75 -17 0 -20 -7 -20 -43 0 -50 -19 -83 -44 -74
-12 5 -16 20 -16 62 0 49 -2 55 -20 55 -19 0 -21 -5 -18 -66z"/>
<path d="M5434 7533 c-17 -17 -17 -18 0 -21 9 -2 23 2 31 8 17 14 45 6 45 -13
0 -7 -18 -17 -42 -23 -28 -6 -44 -16 -49 -31 -13 -36 11 -51 79 -50 l58 0 -4
61 c-2 34 -9 67 -14 74 -15 18 -84 15 -104 -5z m74 -80 c-4 -23 -48 -31 -48
-10 0 9 6 18 13 20 25 11 38 7 35 -10z"/>
<path d="M5604 7542 c-37 -25 -17 -68 36 -77 25 -4 40 -12 40 -21 0 -16 -45
-19 -55 -4 -8 13 -45 13 -45 1 0 -32 81 -52 121 -31 37 20 18 80 -26 80 -12 0
-30 7 -41 16 -18 14 -15 15 34 9 54 -6 69 5 33 25 -23 12 -81 13 -97 2z"/>
<path d="M5930 7474 c0 -67 2 -74 20 -74 16 0 19 8 22 58 3 50 6 57 26 60 21
3 22 0 22 -53 0 -39 4 -57 15 -61 25 -10 30 3 25 73 l-5 68 -62 2 -63 1 0 -74z"/>
<path d="M6110 7530 c-28 -28 -26 -75 6 -107 21 -21 32 -24 62 -20 19 4 42 13
50 21 20 19 18 83 -4 107 -24 26 -87 26 -114 -1z m88 -52 c3 -30 -1 -37 -19
-43 -16 -5 -26 -2 -36 11 -26 35 -7 78 32 72 15 -2 21 -12 23 -40z"/>
<path d="M6470 7530 c-43 -43 -6 -130 55 -130 27 0 75 26 75 41 0 13 -27 11
-50 -3 -14 -9 -25 -10 -36 -3 -28 18 -15 30 36 33 55 3 64 18 34 60 -20 29
-85 31 -114 2z m88 -27 c2 -9 -7 -13 -27 -13 -21 0 -31 5 -31 16 0 19 51 16
58 -3z"/>
<path d="M5180 7085 c0 -110 4 -175 10 -175 6 0 10 65 10 175 0 110 -4 175
-10 175 -6 0 -10 -65 -10 -175z"/>
<path d="M2010 7173 c0 -26 -3 -28 -42 -28 -55 0 -77 -32 -63 -91 11 -44 52
-67 83 -48 12 8 22 8 34 0 9 -5 19 -8 21 -6 3 3 7 49 11 103 l6 97 -25 0 c-21
0 -25 -5 -25 -27z m0 -73 c20 -38 -8 -78 -45 -64 -36 14 -23 84 15 84 11 0 24
-9 30 -20z"/>
<path d="M2090 7185 c0 -8 9 -15 20 -15 11 0 20 7 20 15 0 8 -9 15 -20 15 -11
0 -20 -7 -20 -15z"/>
<path d="M2850 7185 c0 -8 9 -15 20 -15 11 0 20 7 20 15 0 8 -9 15 -20 15 -11
0 -20 -7 -20 -15z"/>
<path d="M3040 7100 c0 -93 1 -100 20 -100 17 0 20 7 20 48 0 55 10 75 36 70
16 -3 20 -14 22 -61 3 -49 6 -57 22 -57 18 0 20 7 20 64 0 75 -13 91 -65 83
-33 -5 -35 -4 -35 24 0 22 -5 29 -20 29 -19 0 -20 -7 -20 -100z"/>
<path d="M3302 7118 c-17 -46 -33 -91 -37 -100 -10 -26 31 -24 45 2 8 15 21
20 50 20 30 0 40 -5 45 -20 4 -13 15 -20 30 -20 l24 0 -25 66 c-48 129 -51
134 -78 134 -21 0 -28 -10 -54 -82z m74 -16 c6 -28 4 -32 -14 -32 -27 0 -31 8
-20 49 11 39 24 32 34 -17z"/>
<path d="M3480 7100 c0 -93 1 -100 20 -100 19 0 20 7 20 100 0 93 -1 100 -20
100 -19 0 -20 -7 -20 -100z"/>
<path d="M3620 7185 c0 -8 9 -15 20 -15 11 0 20 7 20 15 0 8 -9 15 -20 15 -11
0 -20 -7 -20 -15z"/>
<path d="M4740 7185 c0 -8 9 -15 20 -15 11 0 20 7 20 15 0 8 -9 15 -20 15 -11
0 -20 -7 -20 -15z"/>
<path d="M2180 7170 c0 -11 -4 -20 -10 -20 -5 0 -10 -7 -10 -15 0 -8 5 -15 10
-15 6 0 10 -22 10 -50 0 -51 15 -70 54 -70 20 0 21 26 1 34 -10 3 -15 19 -15
46 0 29 4 40 15 40 8 0 15 7 15 15 0 8 -7 15 -15 15 -8 0 -15 9 -15 20 0 13
-7 20 -20 20 -13 0 -20 -7 -20 -20z"/>
<path d="M2940 7170 c0 -11 -7 -20 -15 -20 -8 0 -15 -7 -15 -15 0 -8 7 -15 15
-15 11 0 15 -13 15 -54 0 -56 8 -66 51 -66 22 0 26 25 4 34 -10 3 -15 19 -15
46 0 29 4 40 15 40 8 0 15 7 15 15 0 8 -7 15 -15 15 -8 0 -15 9 -15 20 0 13
-7 20 -20 20 -13 0 -20 -7 -20 -20z"/>
<path d="M3880 7171 c0 -12 -4 -21 -10 -21 -5 0 -10 -7 -10 -15 0 -8 5 -15 10
-15 6 0 10 -22 10 -50 0 -38 4 -52 19 -60 29 -15 61 -12 61 5 0 8 -7 15 -15
15 -11 0 -15 12 -15 45 0 33 4 45 15 45 22 0 18 27 -5 33 -11 3 -19 11 -18 18
2 8 -7 15 -19 17 -18 3 -23 -1 -23 -17z"/>
<path d="M4630 7170 c0 -11 -4 -20 -10 -20 -5 0 -10 -7 -10 -15 0 -8 4 -15 9
-15 6 0 11 -24 13 -52 3 -47 6 -54 31 -62 22 -8 30 -7 37 4 7 11 4 17 -10 22
-25 9 -30 88 -5 88 8 0 15 7 15 15 0 8 -7 15 -15 15 -8 0 -15 9 -15 20 0 13
-7 20 -20 20 -13 0 -20 -7 -20 -20z"/>
<path d="M1747 7132 c-17 -19 -23 -78 -9 -98 24 -36 90 -44 117 -14 24 26 12
37 -21 20 -18 -10 -30 -11 -42 -4 -35 23 -24 34 32 34 47 0 56 3 56 18 0 10
-9 28 -20 40 -26 28 -90 30 -113 4z m91 -29 c2 -9 -8 -13 -32 -13 -34 0 -44 8
-29 24 11 11 56 2 61 -11z"/>
<path d="M2092 7078 c3 -65 5 -73 23 -73 18 0 20 8 23 73 3 72 3 72 -23 72
-26 0 -26 0 -23 -72z"/>
<path d="M2297 7132 c-24 -26 -22 -87 3 -112 28 -28 75 -26 105 5 31 30 33 77
5 105 -26 26 -90 27 -113 2z m84 -33 c8 -16 8 -28 0 -45 -11 -25 -19 -28 -45
-18 -16 6 -23 64 -9 77 13 14 43 6 54 -14z"/>
<path d="M2460 7075 c0 -68 2 -75 19 -75 17 0 20 8 23 53 3 45 6 52 26 55 14
2 22 10 22 23 0 21 -20 25 -38 7 -9 -9 -12 -9 -12 0 0 7 -9 12 -20 12 -18 0
-20 -7 -20 -75z"/>
<path d="M2620 7138 c0 -7 4 -29 9 -48 5 -19 12 -47 15 -62 5 -21 12 -28 30
-28 21 0 25 6 31 43 11 64 18 67 30 12 9 -43 13 -50 34 -50 22 0 26 7 41 73
l17 72 -22 0 c-19 0 -24 -7 -30 -47 -8 -52 -25 -42 -25 15 0 27 -4 32 -24 32
-24 0 -36 -21 -36 -68 0 -36 -17 -17 -24 28 -5 31 -11 40 -26 40 -11 0 -20 -6
-20 -12z"/>
<path d="M2850 7075 c0 -68 2 -75 20 -75 18 0 20 7 20 75 0 68 -2 75 -20 75
-18 0 -20 -7 -20 -75z"/>
<path d="M3620 7076 c0 -69 2 -76 20 -76 24 0 32 28 28 96 -3 42 -6 49 -25 52
-22 3 -23 0 -23 -72z"/>
<path d="M3700 7074 c0 -67 2 -74 20 -74 17 0 20 7 20 49 0 51 18 78 45 67 11
-4 15 -21 15 -61 0 -48 2 -55 20 -55 18 0 20 7 20 64 0 39 -5 68 -13 74 -6 6
-38 10 -70 10 l-57 -1 0 -73z"/>
<path d="M4000 7130 c-28 -28 -26 -75 5 -105 13 -14 33 -25 44 -25 28 0 69 20
75 36 7 17 -18 18 -44 2 -15 -9 -25 -10 -37 -2 -36 23 -26 34 31 34 49 0 56 2
56 20 0 32 -36 60 -75 60 -22 0 -43 -8 -55 -20z m88 -27 c2 -9 -8 -13 -32 -13
-34 0 -44 8 -29 24 11 11 56 2 61 -11z"/>
<path d="M4177 7137 c-37 -30 -24 -112 20 -123 13 -4 36 -1 49 5 22 10 25 9
22 -5 -5 -29 -33 -40 -61 -25 -34 18 -52 12 -35 -12 7 -10 30 -20 50 -23 30
-5 41 -2 62 19 23 23 26 34 26 100 l0 74 -59 1 c-32 0 -65 -5 -74 -11z m89
-43 c8 -33 -15 -59 -45 -49 -15 4 -21 15 -21 34 0 34 7 41 36 41 17 0 25 -7
30 -26z"/>
<path d="M4350 7075 c0 -68 2 -75 20 -75 17 0 20 7 20 51 0 42 3 52 20 56 11
3 20 14 20 24 0 22 -11 24 -28 7 -9 -9 -12 -9 -12 0 0 7 -9 12 -20 12 -18 0
-20 -7 -20 -75z"/>
<path d="M4472 7138 c-7 -7 -12 -16 -12 -20 0 -12 34 -10 47 3 15 15 43 4 43
-16 0 -10 -9 -15 -28 -15 -15 0 -38 -7 -50 -16 -40 -27 -22 -74 28 -74 14 0
31 5 38 12 9 9 12 9 12 0 0 -7 9 -12 20 -12 18 0 20 7 20 56 0 78 -11 94 -63
94 -24 0 -48 -5 -55 -12z m76 -85 c-4 -21 -36 -29 -51 -14 -9 9 -8 14 3 21 25
16 52 12 48 -7z"/>
<path d="M4740 7074 c0 -66 2 -75 18 -72 14 3 18 16 20 76 3 67 1 72 -18 72
-18 0 -20 -6 -20 -76z"/>
<path d="M4827 7132 c-24 -26 -22 -87 3 -112 28 -28 75 -26 105 5 31 30 33 77
5 105 -26 26 -90 27 -113 2z m83 -26 c28 -34 -11 -94 -44 -67 -16 13 -22 62
-9 74 11 12 40 8 53 -7z"/>
<path d="M4990 7075 c0 -68 2 -75 20 -75 16 0 19 8 22 57 2 47 6 58 22 61 26
5 36 -15 36 -70 0 -41 3 -48 20 -48 18 0 20 7 20 56 0 30 -5 64 -10 75 -12 22
-59 26 -78 7 -9 -9 -12 -9 -12 0 0 7 -9 12 -20 12 -18 0 -20 -7 -20 -75z"/>
<path d="M2710 6472 c0 -5 10 -17 22 -28 l21 -19 -18 28 c-18 28 -25 33 -25
19z"/>
<path d="M2792 6438 c-1 -30 -7 -48 -14 -48 -9 0 -9 -3 0 -12 18 -18 23 -5 19
53 l-3 54 -2 -47z"/>
<path d="M3603 6425 c0 -33 2 -45 4 -27 2 18 2 45 0 60 -2 15 -4 0 -4 -33z"/>
<path d="M2043 6420 c0 -30 2 -43 4 -27 2 15 2 39 0 55 -2 15 -4 2 -4 -28z"/>
<path d="M4140 6425 c0 -27 2 -46 5 -44 7 8 9 78 2 85 -4 4 -7 -14 -7 -41z"/>
<path d="M4203 6420 c0 -30 2 -43 4 -27 2 15 2 39 0 55 -2 15 -4 2 -4 -28z"/>
<path d="M6913 6415 c0 -33 2 -45 4 -27 2 18 2 45 0 60 -2 15 -4 0 -4 -33z"/>
<path d="M3043 6415 c0 -27 2 -38 4 -22 2 15 2 37 0 50 -2 12 -4 0 -4 -28z"/>
<path d="M3691 6444 c0 -11 3 -14 6 -6 3 7 2 16 -1 19 -3 4 -6 -2 -5 -13z"/>
<path d="M7483 6415 c0 -27 2 -38 4 -22 2 15 2 37 0 50 -2 12 -4 0 -4 -28z"/>
<path d="M1910 6407 c4 -41 5 -41 8 -8 2 18 0 37 -5 42 -5 5 -6 -11 -3 -34z"/>
<path d="M2100 6407 c4 -41 5 -41 8 -8 2 18 0 37 -5 42 -5 5 -6 -11 -3 -34z"/>
<path d="M2143 6410 c0 -25 2 -35 4 -22 2 12 2 32 0 45 -2 12 -4 2 -4 -23z"/>
<path d="M2200 6402 l5 -47 3 39 c2 21 0 42 -5 47 -4 4 -6 -13 -3 -39z"/>
<path d="M2887 6429 c4 -13 8 -18 11 -10 2 7 -1 18 -6 23 -8 8 -9 4 -5 -13z"/>
<path d="M2933 6390 c0 -36 2 -50 4 -32 2 17 2 47 0 65 -2 17 -4 3 -4 -33z"/>
<path d="M3250 6407 c4 -41 5 -41 8 -8 2 18 0 37 -5 42 -5 5 -6 -11 -3 -34z"/>
<path d="M3799 6438 c7 -10 11 -29 9 -43 -3 -13 -1 -22 3 -19 15 9 10 51 -8
65 -16 13 -17 12 -4 -3z"/>
<path d="M4005 6440 c-3 -5 -1 -10 4 -10 6 0 11 5 11 10 0 6 -2 10 -4 10 -3 0
-8 -4 -11 -10z"/>
<path d="M4353 6410 c0 -25 2 -35 4 -22 2 12 2 32 0 45 -2 12 -4 2 -4 -23z"/>
<path d="M4453 6435 c-3 -9 -3 -18 -1 -21 3 -3 8 4 11 16 6 23 -1 27 -10 5z"/>
<path d="M4592 6438 c-7 -7 -11 -21 -11 -32 1 -21 1 -21 6 -1 3 11 10 26 15
33 13 15 6 16 -10 0z"/>
<path d="M4682 6420 c-2 -35 12 -60 32 -60 5 0 2 6 -7 13 -9 6 -18 28 -20 47
l-4 35 -1 -35z"/>
<path d="M4743 6410 c0 -25 2 -35 4 -22 2 12 2 32 0 45 -2 12 -4 2 -4 -23z"/>
<path d="M4903 6410 c0 -25 2 -35 4 -22 2 12 2 32 0 45 -2 12 -4 2 -4 -23z"/>
<path d="M5000 6407 c4 -41 5 -41 8 -8 2 18 0 37 -5 42 -5 5 -6 -11 -3 -34z"/>
<path d="M5047 6443 c-9 -9 -9 -61 1 -66 4 -3 7 12 7 34 0 21 0 39 -1 39 0 0
-4 -3 -7 -7z"/>
<path d="M5492 6398 c-1 -34 -7 -58 -14 -61 -10 -4 -10 -6 0 -6 18 -1 24 20
19 75 l-3 49 -2 -57z"/>
<path d="M5845 6440 c-3 -6 1 -7 9 -4 18 7 21 14 7 14 -6 0 -13 -4 -16 -10z"/>
<path d="M5985 6440 c3 -5 8 -10 11 -10 2 0 4 5 4 10 0 6 -5 10 -11 10 -5 0
-7 -4 -4 -10z"/>
<path d="M6087 6429 c4 -13 8 -18 11 -10 2 7 -1 18 -6 23 -8 8 -9 4 -5 -13z"/>
<path d="M6443 6400 c0 -30 2 -43 4 -27 2 15 2 39 0 55 -2 15 -4 2 -4 -28z"/>
<path d="M6720 6407 c4 -41 5 -41 8 -8 2 18 0 37 -5 42 -5 5 -6 -11 -3 -34z"/>
<path d="M6770 6407 c4 -41 5 -41 8 -8 2 18 0 37 -5 42 -5 5 -6 -11 -3 -34z"/>
<path d="M7286 6437 c3 -10 9 -15 12 -12 3 3 0 11 -7 18 -10 9 -11 8 -5 -6z"/>
<path d="M7373 6410 c0 -25 2 -35 4 -22 2 12 2 32 0 45 -2 12 -4 2 -4 -23z"/>
<path d="M7729 6436 c5 -6 11 -24 14 -41 3 -25 4 -23 6 11 1 30 -3 41 -14 41
-9 0 -11 -4 -6 -11z"/>
<path d="M6338 6413 c5 -21 7 -23 10 -9 2 10 0 22 -6 28 -6 6 -7 0 -4 -19z"/>
<path d="M1731 6403 c1 -23 2 -24 6 -6 3 18 13 23 46 26 l42 4 -47 1 c-46 2
-48 1 -47 -25z"/>
<path d="M2342 6405 c0 -16 2 -22 5 -12 2 9 2 23 0 30 -3 6 -5 -1 -5 -18z"/>
<path d="M3291 6414 c0 -11 3 -14 6 -6 3 7 2 16 -1 19 -3 4 -6 -2 -5 -13z"/>
<path d="M4262 6400 c0 -19 2 -27 5 -17 2 9 2 25 0 35 -3 9 -5 1 -5 -18z"/>
<path d="M5222 6410 c0 -14 2 -19 5 -12 2 6 2 18 0 25 -3 6 -5 1 -5 -13z"/>
<path d="M5320 6406 c0 -14 4 -27 8 -30 5 -3 6 8 4 25 -5 35 -12 38 -12 5z"/>
<path d="M5530 6406 c0 -14 4 -27 8 -30 5 -3 6 8 4 25 -5 35 -12 38 -12 5z"/>
<path d="M6130 6406 c0 -14 4 -27 8 -30 5 -3 6 8 4 25 -5 35 -12 38 -12 5z"/>
<path d="M6867 6423 c-2 -5 0 -21 4 -38 7 -29 7 -29 8 8 1 35 -3 46 -12 30z"/>
<path d="M3692 6395 c0 -16 2 -22 5 -12 2 9 2 23 0 30 -3 6 -5 -1 -5 -18z"/>
<path d="M3741 6404 c0 -11 3 -14 6 -6 3 7 2 16 -1 19 -3 4 -6 -2 -5 -13z"/>
<path d="M5158 6413 c6 -2 18 -2 25 0 6 3 1 5 -13 5 -14 0 -19 -2 -12 -5z"/>
<path d="M6271 6404 c0 -11 3 -14 6 -6 3 7 2 16 -1 19 -3 4 -6 -2 -5 -13z"/>
<path d="M4492 6396 c7 -8 15 -12 17 -11 5 6 -10 25 -20 25 -5 0 -4 -6 3 -14z"/>
<path d="M6813 6395 c-3 -9 -3 -18 -1 -21 3 -3 8 4 11 16 6 23 -1 27 -10 5z"/>
<path d="M2240 6391 c0 -6 4 -13 10 -16 6 -3 7 1 4 9 -7 18 -14 21 -14 7z"/>
<path d="M3151 6384 c0 -11 3 -14 6 -6 3 7 2 16 -1 19 -3 4 -6 -2 -5 -13z"/>
<path d="M3970 6391 c0 -6 4 -13 10 -16 6 -3 7 1 4 9 -7 18 -14 21 -14 7z"/>
<path d="M7300 6391 c0 -6 4 -13 10 -16 6 -3 7 1 4 9 -7 18 -14 21 -14 7z"/>
<path d="M2462 6374 c9 -9 21 -15 27 -13 6 2 -2 10 -17 17 -25 11 -25 11 -10
-4z"/>
<path d="M4030 6380 c0 -5 5 -10 10 -10 6 0 10 5 10 10 0 6 -4 10 -10 10 -5 0
-10 -4 -10 -10z"/>
<path d="M6500 6381 c0 -5 5 -13 10 -16 6 -3 10 -2 10 4 0 5 -4 13 -10 16 -5
3 -10 2 -10 -4z"/>
<path d="M7680 6380 c0 -5 5 -10 11 -10 5 0 7 5 4 10 -3 6 -8 10 -11 10 -2 0
-4 -4 -4 -10z"/>
<path d="M2870 6370 c-9 -6 -10 -10 -3 -10 6 0 15 5 18 10 8 12 4 12 -15 0z"/>
<path d="M3468 6363 c7 -3 16 -2 19 1 4 3 -2 6 -13 5 -11 0 -14 -3 -6 -6z"/>
<path d="M7028 6363 c7 -3 16 -2 19 1 4 3 -2 6 -13 5 -11 0 -14 -3 -6 -6z"/>
<path d="M7118 6363 c7 -3 16 -2 19 1 4 3 -2 6 -13 5 -11 0 -14 -3 -6 -6z"/>
<path d="M6490 6340 c-9 -6 -10 -10 -3 -10 6 0 15 5 18 10 8 12 4 12 -15 0z"/>
<path d="M5355 6180 c-3 -6 1 -7 9 -4 18 7 21 14 7 14 -6 0 -13 -4 -16 -10z"/>
<path d="M6904 6176 c-3 -7 -3 -35 -1 -62 l3 -49 2 57 c1 34 7 58 15 61 9 4 9
6 -1 6 -7 1 -15 -5 -18 -13z"/>
<path d="M1993 6125 c0 -33 2 -45 4 -27 2 18 2 45 0 60 -2 15 -4 0 -4 -33z"/>
<path d="M2393 6120 c0 -36 2 -50 4 -32 2 17 2 47 0 65 -2 17 -4 3 -4 -33z"/>
<path d="M4632 6155 c0 -16 2 -22 5 -12 2 9 2 23 0 30 -3 6 -5 -1 -5 -18z"/>
<path d="M6693 6120 c0 -36 2 -50 4 -32 2 17 2 47 0 65 -2 17 -4 3 -4 -33z"/>
<path d="M7313 6120 c0 -36 2 -50 4 -32 2 17 2 47 0 65 -2 17 -4 3 -4 -33z"/>
<path d="M5783 6125 c0 -27 2 -38 4 -22 2 15 2 37 0 50 -2 12 -4 0 -4 -28z"/>
<path d="M5893 6115 c0 -27 2 -38 4 -22 2 15 2 37 0 50 -2 12 -4 0 -4 -28z"/>
<path d="M7361 6144 c0 -11 3 -14 6 -6 3 7 2 16 -1 19 -3 4 -6 -2 -5 -13z"/>
<path d="M2083 6090 c0 -36 2 -50 4 -32 2 17 2 47 0 65 -2 17 -4 3 -4 -33z"/>
<path d="M2243 6105 c0 -27 2 -38 4 -22 2 15 2 37 0 50 -2 12 -4 0 -4 -28z"/>
<path d="M2433 6105 c0 -27 2 -38 4 -22 2 15 2 37 0 50 -2 12 -4 0 -4 -28z"/>
<path d="M2475 6139 c-4 -6 -5 -12 -2 -15 2 -3 7 2 10 11 7 17 1 20 -8 4z"/>
<path d="M2663 6105 c0 -27 2 -38 4 -22 2 15 2 37 0 50 -2 12 -4 0 -4 -28z"/>
<path d="M2703 6105 c0 -27 2 -38 4 -22 2 15 2 37 0 50 -2 12 -4 0 -4 -28z"/>
<path d="M2862 6098 c-1 -34 -7 -58 -14 -61 -10 -4 -10 -6 0 -6 18 -1 24 20
19 75 l-3 49 -2 -57z"/>
<path d="M3096 6137 c3 -10 9 -15 12 -12 3 3 0 11 -7 18 -10 9 -11 8 -5 -6z"/>
<path d="M3142 6120 c-2 -35 12 -60 32 -60 5 0 2 6 -7 13 -9 6 -18 28 -20 47
l-4 35 -1 -35z"/>
<path d="M3203 6110 c0 -25 2 -35 4 -22 2 12 2 32 0 45 -2 12 -4 2 -4 -23z"/>
<path d="M3605 6140 c-3 -6 1 -7 9 -4 18 7 21 14 7 14 -6 0 -13 -4 -16 -10z"/>
<path d="M3662 6098 c-1 -34 -7 -58 -14 -61 -10 -4 -10 -6 0 -6 18 -1 24 20
19 75 l-3 49 -2 -57z"/>
<path d="M3704 6139 c-3 -6 -2 -15 3 -20 5 -5 9 -1 9 11 0 23 -2 24 -12 9z"/>
<path d="M3985 6140 c3 -5 8 -10 11 -10 2 0 4 5 4 10 0 6 -5 10 -11 10 -5 0
-7 -4 -4 -10z"/>
<path d="M4123 6105 c0 -27 2 -38 4 -22 2 15 2 37 0 50 -2 12 -4 0 -4 -28z"/>
<path d="M4262 6101 c1 -41 2 -42 5 -11 3 19 9 40 14 46 5 7 3 11 -6 11 -11 0
-15 -12 -13 -46z"/>
<path d="M4425 6109 c0 -21 3 -39 8 -39 4 0 7 15 7 34 0 19 -3 37 -7 39 -5 3
-8 -12 -8 -34z"/>
<path d="M4473 6105 c0 -27 2 -38 4 -22 2 15 2 37 0 50 -2 12 -4 0 -4 -28z"/>
<path d="M4723 6110 c0 -25 2 -35 4 -22 2 12 2 32 0 45 -2 12 -4 2 -4 -23z"/>
<path d="M4770 6140 c0 -5 5 -10 11 -10 5 0 7 5 4 10 -3 6 -8 10 -11 10 -2 0
-4 -4 -4 -10z"/>
<path d="M4817 6143 c6 -4 13 -26 16 -48 4 -40 4 -40 3 4 -1 30 -6 46 -16 48
-10 3 -11 2 -3 -4z"/>
<path d="M4875 6139 c-11 -16 -1 -19 13 -3 7 8 8 14 3 14 -5 0 -13 -5 -16 -11z"/>
<path d="M4973 6105 c0 -27 2 -38 4 -22 2 15 2 37 0 50 -2 12 -4 0 -4 -28z"/>
<path d="M5403 6110 c0 -25 2 -35 4 -22 2 12 2 32 0 45 -2 12 -4 2 -4 -23z"/>
<path d="M5726 6137 c3 -10 9 -15 12 -12 3 3 0 11 -7 18 -10 9 -11 8 -5 -6z"/>
<path d="M6100 6102 l5 -47 3 39 c2 21 0 42 -5 47 -4 4 -6 -13 -3 -39z"/>
<path d="M6200 6102 l5 -47 3 39 c2 21 0 42 -5 47 -4 4 -6 -13 -3 -39z"/>
<path d="M6346 6137 c3 -10 9 -15 12 -12 3 3 0 11 -7 18 -10 9 -11 8 -5 -6z"/>
<path d="M6386 6137 c3 -10 9 -15 12 -12 3 3 0 11 -7 18 -10 9 -11 8 -5 -6z"/>
<path d="M7006 6137 c3 -10 9 -15 12 -12 3 3 0 11 -7 18 -10 9 -11 8 -5 -6z"/>
<path d="M7053 6110 c0 -25 2 -35 4 -22 2 12 2 32 0 45 -2 12 -4 2 -4 -23z"/>
<path d="M7167 6129 c4 -13 8 -18 11 -10 2 7 -1 18 -6 23 -8 8 -9 4 -5 -13z"/>
<path d="M7414 6139 c-3 -6 -2 -15 3 -20 5 -5 9 -1 9 11 0 23 -2 24 -12 9z"/>
<path d="M3243 6100 c0 -25 2 -35 4 -22 2 12 2 32 0 45 -2 12 -4 2 -4 -23z"/>
<path d="M2352 6110 c0 -14 2 -19 5 -12 2 6 2 18 0 25 -3 6 -5 1 -5 -13z"/>
<path d="M2622 6100 c0 -19 2 -27 5 -17 2 9 2 25 0 35 -3 9 -5 1 -5 -18z"/>
<path d="M3422 6110 c0 -14 2 -19 5 -12 2 6 2 18 0 25 -3 6 -5 1 -5 -13z"/>
<path d="M3562 6105 c0 -16 2 -22 5 -12 2 9 2 23 0 30 -3 6 -5 -1 -5 -18z"/>
<path d="M4161 6114 c0 -11 3 -14 6 -6 3 7 2 16 -1 19 -3 4 -6 -2 -5 -13z"/>
<path d="M4533 6095 c0 -22 2 -30 4 -17 2 12 2 30 0 40 -3 9 -5 -1 -4 -23z"/>
<path d="M5032 6110 c0 -14 2 -19 5 -12 2 6 2 18 0 25 -3 6 -5 1 -5 -13z"/>
<path d="M5952 6110 c0 -14 2 -19 5 -12 2 6 2 18 0 25 -3 6 -5 1 -5 -13z"/>
<path d="M6790 6106 c0 -14 4 -27 8 -30 5 -3 6 8 4 25 -5 35 -12 38 -12 5z"/>
<path d="M7110 6106 c0 -14 4 -27 8 -30 5 -3 6 8 4 25 -5 35 -12 38 -12 5z"/>
<path d="M1920 6106 c0 -8 4 -17 9 -20 5 -4 7 3 4 14 -6 23 -13 26 -13 6z"/>
<path d="M2151 6104 c0 -11 3 -14 6 -6 3 7 2 16 -1 19 -3 4 -6 -2 -5 -13z"/>
<path d="M4632 6095 c0 -16 2 -22 5 -12 2 9 2 23 0 30 -3 6 -5 -1 -5 -18z"/>
<path d="M5571 6104 c0 -11 3 -14 6 -6 3 7 2 16 -1 19 -3 4 -6 -2 -5 -13z"/>
<path d="M2512 6096 c7 -8 15 -12 17 -11 5 6 -10 25 -20 25 -5 0 -4 -6 3 -14z"/>
<path d="M2960 6104 c0 -6 7 -19 15 -30 8 -10 14 -14 14 -9 0 6 -6 19 -14 29
-8 11 -15 15 -15 10z"/>
<path d="M4375 6099 c-11 -16 -1 -19 13 -3 7 8 8 14 3 14 -5 0 -13 -5 -16 -11z"/>
<path d="M6290 6096 c0 -8 4 -17 9 -20 5 -4 7 3 4 14 -6 23 -13 26 -13 6z"/>
<path d="M7440 6106 c0 -2 7 -7 16 -10 8 -3 12 -2 9 4 -6 10 -25 14 -25 6z"/>
<path d="M1737 6069 c7 -7 15 -10 18 -7 3 3 -2 9 -12 12 -14 6 -15 5 -6 -5z"/>
<path d="M3735 6070 c-16 -7 -17 -9 -3 -9 9 -1 20 4 23 9 7 11 7 11 -20 0z"/>
<path d="M4065 6070 c-16 -7 -17 -9 -3 -9 9 -1 20 4 23 9 7 11 7 11 -20 0z"/>
<path d="M6515 6070 c-16 -7 -17 -9 -3 -9 9 -1 20 4 23 9 7 11 7 11 -20 0z"/>
<path d="M2318 6063 c7 -3 16 -2 19 1 4 3 -2 6 -13 5 -11 0 -14 -3 -6 -6z"/>
<path d="M3068 6063 c7 -3 16 -2 19 1 4 3 -2 6 -13 5 -11 0 -14 -3 -6 -6z"/>
<path d="M5208 6063 c7 -3 16 -2 19 1 4 3 -2 6 -13 5 -11 0 -14 -3 -6 -6z"/>
<path d="M2960 6040 c-9 -6 -10 -10 -3 -10 6 0 15 5 18 10 8 12 4 12 -15 0z"/>
<path d="M2793 5853 c-3 -10 -8 -21 -10 -25 -2 -5 1 -8 6 -8 6 0 11 9 11 19 0
11 6 22 13 24 9 4 9 6 -1 6 -7 1 -15 -7 -19 -16z"/>
<path d="M6424 5856 c-3 -7 -3 -35 -1 -62 l3 -49 2 57 c1 34 7 58 15 61 9 4 9
6 -1 6 -7 1 -15 -5 -18 -13z"/>
<path d="M7543 5805 c0 -33 2 -45 4 -27 2 18 2 45 0 60 -2 15 -4 0 -4 -33z"/>
<path d="M2083 5800 c0 -30 2 -43 4 -27 2 15 2 39 0 55 -2 15 -4 2 -4 -28z"/>
<path d="M2563 5800 c0 -30 2 -43 4 -27 2 15 2 39 0 55 -2 15 -4 2 -4 -28z"/>
<path d="M3633 5805 c0 -27 2 -38 4 -22 2 15 2 37 0 50 -2 12 -4 0 -4 -28z"/>
<path d="M4043 5805 c0 -27 2 -38 4 -22 2 15 2 37 0 50 -2 12 -4 0 -4 -28z"/>
<path d="M4993 5800 c0 -30 2 -43 4 -27 2 15 2 39 0 55 -2 15 -4 2 -4 -28z"/>
<path d="M6313 5805 c0 -27 2 -38 4 -22 2 15 2 37 0 50 -2 12 -4 0 -4 -28z"/>
<path d="M1881 5824 c0 -11 3 -14 6 -6 3 7 2 16 -1 19 -3 4 -6 -2 -5 -13z"/>
<path d="M4295 5830 c-3 -5 -1 -10 4 -10 6 0 11 5 11 10 0 6 -2 10 -4 10 -3 0
-8 -4 -11 -10z"/>
<path d="M6051 5824 c0 -11 3 -14 6 -6 3 7 2 16 -1 19 -3 4 -6 -2 -5 -13z"/>
<path d="M1733 5785 c0 -27 2 -38 4 -22 2 15 2 37 0 50 -2 12 -4 0 -4 -28z"/>
<path d="M1773 5785 c0 -27 2 -38 4 -22 2 15 2 37 0 50 -2 12 -4 0 -4 -28z"/>
<path d="M1830 5782 l5 -47 3 39 c2 21 0 42 -5 47 -4 4 -6 -13 -3 -39z"/>
<path d="M1932 5800 c0 -19 2 -27 5 -17 2 9 2 25 0 35 -3 9 -5 1 -5 -18z"/>
<path d="M1991 5814 c0 -11 3 -14 6 -6 3 7 2 16 -1 19 -3 4 -6 -2 -5 -13z"/>
<path d="M2033 5785 c0 -27 2 -38 4 -22 2 15 2 37 0 50 -2 12 -4 0 -4 -28z"/>
<path d="M2413 5785 c0 -27 2 -38 4 -22 2 15 2 37 0 50 -2 12 -4 0 -4 -28z"/>
<path d="M2453 5790 c0 -25 2 -35 4 -22 2 12 2 32 0 45 -2 12 -4 2 -4 -23z"/>
<path d="M2510 5782 l5 -47 3 39 c2 21 0 42 -5 47 -4 4 -6 -13 -3 -39z"/>
<path d="M2713 5790 c0 -25 2 -35 4 -22 2 12 2 32 0 45 -2 12 -4 2 -4 -23z"/>
<path d="M3087 5809 c4 -13 8 -18 11 -10 2 7 -1 18 -6 23 -8 8 -9 4 -5 -13z"/>
<path d="M3366 5817 c3 -10 9 -15 12 -12 3 3 0 11 -7 18 -10 9 -11 8 -5 -6z"/>
<path d="M3420 5782 l5 -47 3 39 c2 21 0 42 -5 47 -4 4 -6 -13 -3 -39z"/>
<path d="M3835 5819 c-11 -16 -1 -19 13 -3 7 8 8 14 3 14 -5 0 -13 -5 -16 -11z"/>
<path d="M3933 5785 c0 -27 2 -38 4 -22 2 15 2 37 0 50 -2 12 -4 0 -4 -28z"/>
<path d="M3990 5787 c4 -41 5 -41 8 -8 2 18 0 37 -5 42 -5 5 -6 -11 -3 -34z"/>
<path d="M4136 5823 c6 -4 14 -15 17 -23 5 -11 6 -9 4 4 -1 11 -9 21 -17 23
-10 3 -11 2 -4 -4z"/>
<path d="M4193 5785 c0 -27 2 -38 4 -22 2 15 2 37 0 50 -2 12 -4 0 -4 -28z"/>
<path d="M4250 5782 l5 -47 3 39 c2 21 0 42 -5 47 -4 4 -6 -13 -3 -39z"/>
<path d="M4404 5819 c-3 -6 -2 -15 3 -20 5 -5 9 -1 9 11 0 23 -2 24 -12 9z"/>
<path d="M4493 5795 c0 -22 2 -30 4 -17 2 12 2 30 0 40 -3 9 -5 -1 -4 -23z"/>
<path d="M4640 5816 c13 -13 13 -93 0 -99 -6 -3 -5 -4 2 -3 8 2 14 23 16 58 2
44 0 55 -13 55 -11 0 -12 -4 -5 -11z"/>
<path d="M5136 5820 c7 -8 14 -24 17 -35 4 -19 5 -19 6 1 0 12 -7 28 -16 35
-16 12 -17 12 -7 -1z"/>
<path d="M5728 5823 c-2 -5 -1 -24 3 -43 l6 -35 2 43 c1 39 -3 52 -11 35z"/>
<path d="M5823 5785 c0 -27 2 -38 4 -22 2 15 2 37 0 50 -2 12 -4 0 -4 -28z"/>
<path d="M5863 5790 c0 -25 2 -35 4 -22 2 12 2 32 0 45 -2 12 -4 2 -4 -23z"/>
<path d="M6255 5820 c3 -5 8 -10 11 -10 2 0 4 5 4 10 0 6 -5 10 -11 10 -5 0
-7 -4 -4 -10z"/>
<path d="M6573 5785 c0 -27 2 -38 4 -22 2 15 2 37 0 50 -2 12 -4 0 -4 -28z"/>
<path d="M6690 5787 c4 -41 5 -41 8 -8 2 18 0 37 -5 42 -5 5 -6 -11 -3 -34z"/>
<path d="M6835 5789 c0 -21 3 -39 8 -39 4 0 7 15 7 34 0 19 -3 37 -7 39 -5 3
-8 -12 -8 -34z"/>
<path d="M7003 5785 c0 -27 2 -38 4 -22 2 15 2 37 0 50 -2 12 -4 0 -4 -28z"/>
<path d="M7100 5782 l5 -47 3 39 c2 21 0 42 -5 47 -4 4 -6 -13 -3 -39z"/>
<path d="M7337 5822 c6 -4 13 -23 15 -42 l3 -35 5 41 c5 35 2 40 -15 42 -11 0
-15 -2 -8 -6z"/>
<path d="M7400 5787 c4 -41 5 -41 8 -8 2 18 0 37 -5 42 -5 5 -6 -11 -3 -34z"/>
<path d="M7445 5820 c-3 -6 1 -7 9 -4 18 7 21 14 7 14 -6 0 -13 -4 -16 -10z"/>
<path d="M7681 5813 c7 -12 15 -20 18 -17 3 2 -3 12 -13 22 -17 16 -18 16 -5
-5z"/>
<path d="M4090 5791 c0 -17 4 -32 8 -35 4 -2 6 11 4 30 -5 42 -12 45 -12 5z"/>
<path d="M4792 5790 c0 -14 2 -19 5 -12 2 6 2 18 0 25 -3 6 -5 1 -5 -13z"/>
<path d="M5082 5790 c0 -14 2 -19 5 -12 2 6 2 18 0 25 -3 6 -5 1 -5 -13z"/>
<path d="M5922 5780 c0 -19 2 -27 5 -17 2 9 2 25 0 35 -3 9 -5 1 -5 -18z"/>
<path d="M7142 5790 c0 -14 2 -19 5 -12 2 6 2 18 0 25 -3 6 -5 1 -5 -13z"/>
<path d="M2261 5784 c0 -11 3 -14 6 -6 3 7 2 16 -1 19 -3 4 -6 -2 -5 -13z"/>
<path d="M2611 5784 c0 -11 3 -14 6 -6 3 7 2 16 -1 19 -3 4 -6 -2 -5 -13z"/>
<path d="M2931 5784 c0 -11 3 -14 6 -6 3 7 2 16 -1 19 -3 4 -6 -2 -5 -13z"/>
<path d="M3731 5784 c0 -11 3 -14 6 -6 3 7 2 16 -1 19 -3 4 -6 -2 -5 -13z"/>
<path d="M5661 5784 c0 -11 3 -14 6 -6 3 7 2 16 -1 19 -3 4 -6 -2 -5 -13z"/>
<path d="M7621 5784 c0 -11 3 -14 6 -6 3 7 2 16 -1 19 -3 4 -6 -2 -5 -13z"/>
<path d="M3268 5778 c11 -14 10 -18 -5 -27 -10 -6 -13 -11 -7 -11 6 0 17 6 23
14 9 10 7 17 -6 27 -16 13 -17 12 -5 -3z"/>
<path d="M3463 5775 c-3 -9 -3 -18 -1 -21 3 -3 8 4 11 16 6 23 -1 27 -10 5z"/>
<path d="M4436 5783 c6 -4 14 -15 17 -23 5 -11 6 -9 4 4 -1 11 -9 21 -17 23
-10 3 -11 2 -4 -4z"/>
<path d="M6002 5776 c7 -8 15 -12 17 -11 5 6 -10 25 -20 25 -5 0 -4 -6 3 -14z"/>
<path d="M6471 5779 c-1 -19 26 -45 36 -35 3 3 1 6 -6 6 -6 0 -16 10 -21 23
-6 15 -9 17 -9 6z"/>
<path d="M6785 5779 c-4 -6 -5 -12 -2 -15 2 -3 7 2 10 11 7 17 1 20 -8 4z"/>
<path d="M1991 5764 c0 -11 3 -14 6 -6 3 7 2 16 -1 19 -3 4 -6 -2 -5 -13z"/>
<path d="M2191 5775 c0 -5 3 -16 8 -23 7 -11 9 -10 14 3 4 9 3 14 -2 10 -5 -3
-12 1 -14 7 -3 7 -6 9 -6 3z"/>
<path d="M3030 5771 c0 -6 4 -13 10 -16 6 -3 7 1 4 9 -7 18 -14 21 -14 7z"/>
<path d="M5328 5758 c-10 -10 -14 -18 -9 -18 10 0 36 29 30 34 -2 1 -12 -6
-21 -16z"/>
<path d="M7570 5776 c0 -2 8 -10 18 -17 15 -13 16 -12 3 4 -13 16 -21 21 -21
13z"/>
<path d="M1947 5749 c7 -7 15 -10 18 -7 3 3 -2 9 -12 12 -14 6 -15 5 -6 -5z"/>
<path d="M2848 5748 c5 -5 16 -8 23 -6 8 3 3 7 -10 11 -17 4 -21 3 -13 -5z"/>
<path d="M4828 5743 c7 -3 16 -2 19 1 4 3 -2 6 -13 5 -11 0 -14 -3 -6 -6z"/>
<path d="M4270 5539 c0 -13 -4 -18 -12 -13 -10 6 -10 5 -1 -7 6 -8 13 -27 16
-44 2 -18 5 -6 6 28 0 31 -1 57 -4 57 -3 0 -5 -9 -5 -21z"/>
<path d="M4603 5505 c0 -33 2 -45 4 -27 2 18 2 45 0 60 -2 15 -4 0 -4 -33z"/>
<path d="M5403 5505 c0 -33 2 -45 4 -27 2 18 2 45 0 60 -2 15 -4 0 -4 -33z"/>
<path d="M6343 5500 c0 -36 2 -50 4 -32 2 17 2 47 0 65 -2 17 -4 3 -4 -33z"/>
<path d="M1783 5500 c0 -30 2 -43 4 -27 2 15 2 39 0 55 -2 15 -4 2 -4 -28z"/>
<path d="M3263 5495 c0 -33 2 -45 4 -27 2 18 2 45 0 60 -2 15 -4 0 -4 -33z"/>
<path d="M1733 5485 c0 -27 2 -38 4 -22 2 15 2 37 0 50 -2 12 -4 0 -4 -28z"/>
<path d="M1885 5520 c-3 -6 1 -7 9 -4 18 7 21 14 7 14 -6 0 -13 -4 -16 -10z"/>
<path d="M2088 5523 c-2 -5 -1 -28 3 -53 l6 -45 1 53 c2 48 -2 63 -10 45z"/>
<path d="M2177 5509 c4 -13 8 -18 11 -10 2 7 -1 18 -6 23 -8 8 -9 4 -5 -13z"/>
<path d="M2280 5487 c4 -41 5 -41 8 -8 2 18 0 37 -5 42 -5 5 -6 -11 -3 -34z"/>
<path d="M2330 5482 l5 -47 3 39 c2 21 0 42 -5 47 -4 4 -6 -13 -3 -39z"/>
<path d="M2699 5492 c5 -34 6 -35 9 -8 2 16 0 32 -5 37 -5 5 -7 -7 -4 -29z"/>
<path d="M2796 5489 c1 -53 14 -63 14 -11 0 22 -3 43 -8 46 -4 2 -7 -13 -6
-35z"/>
<path d="M2843 5485 c0 -27 2 -38 4 -22 2 15 2 37 0 50 -2 12 -4 0 -4 -28z"/>
<path d="M3143 5485 c0 -27 2 -38 4 -22 2 15 2 37 0 50 -2 12 -4 0 -4 -28z"/>
<path d="M3366 5517 c3 -10 9 -15 12 -12 3 3 0 11 -7 18 -10 9 -11 8 -5 -6z"/>
<path d="M3575 5489 c0 -21 3 -39 8 -39 4 0 7 15 7 34 0 19 -3 37 -7 39 -5 3
-8 -12 -8 -34z"/>
<path d="M3624 5519 c-3 -6 -2 -15 3 -20 5 -5 9 -1 9 11 0 23 -2 24 -12 9z"/>
<path d="M3713 5470 c0 -36 2 -50 4 -32 2 17 2 47 0 65 -2 17 -4 3 -4 -33z"/>
<path d="M3762 5516 c7 -8 15 -12 17 -11 5 6 -10 25 -20 25 -5 0 -4 -6 3 -14z"/>
<path d="M3813 5485 c0 -27 2 -38 4 -22 2 15 2 37 0 50 -2 12 -4 0 -4 -28z"/>
<path d="M3853 5485 c0 -27 2 -38 4 -22 2 15 2 37 0 50 -2 12 -4 0 -4 -28z"/>
<path d="M4121 5525 c-2 -5 -2 -30 -1 -54 1 -27 -3 -47 -12 -52 -10 -7 -10 -9
0 -9 18 0 24 21 19 76 -2 27 -5 45 -6 39z"/>
<path d="M4366 5517 c3 -10 9 -15 12 -12 3 3 0 11 -7 18 -10 9 -11 8 -5 -6z"/>
<path d="M4743 5470 c0 -36 2 -50 4 -32 2 17 2 47 0 65 -2 17 -4 3 -4 -33z"/>
<path d="M4943 5490 c0 -25 2 -35 4 -22 2 12 2 32 0 45 -2 12 -4 2 -4 -23z"/>
<path d="M5243 5485 c0 -27 2 -38 4 -22 2 15 2 37 0 50 -2 12 -4 0 -4 -28z"/>
<path d="M5802 5478 c-1 -34 -7 -58 -14 -61 -10 -4 -10 -6 0 -6 18 -1 24 20
19 75 l-3 49 -2 -57z"/>
<path d="M5952 5518 c-7 -7 -11 -21 -11 -32 1 -21 1 -21 6 -1 3 11 10 26 15
33 13 15 6 16 -10 0z"/>
<path d="M6297 5493 c5 -50 13 -55 13 -10 0 20 -4 38 -9 41 -4 3 -6 -11 -4
-31z"/>
<path d="M6383 5485 c0 -27 2 -38 4 -22 2 15 2 37 0 50 -2 12 -4 0 -4 -28z"/>
<path d="M6423 5490 c0 -25 2 -35 4 -22 2 12 2 32 0 45 -2 12 -4 2 -4 -23z"/>
<path d="M6456 5511 c-16 -17 -15 -20 5 -42 l21 -24 -16 24 c-14 23 -14 26 1
43 9 10 14 18 11 18 -3 0 -12 -8 -22 -19z"/>
<path d="M2643 5505 c-3 -9 -3 -18 -1 -21 3 -3 8 4 11 16 6 23 -1 27 -10 5z"/>
<path d="M3002 5495 c0 -16 2 -22 5 -12 2 9 2 23 0 30 -3 6 -5 -1 -5 -18z"/>
<path d="M3413 5485 c0 -22 2 -30 4 -17 2 12 2 30 0 40 -3 9 -5 -1 -4 -23z"/>
<path d="M2022 5490 c0 -14 2 -19 5 -12 2 6 2 18 0 25 -3 6 -5 1 -5 -13z"/>
<path d="M2370 5486 c0 -14 4 -27 8 -30 5 -3 6 8 4 25 -5 35 -12 38 -12 5z"/>
<path d="M2903 5475 c0 -22 2 -30 4 -17 2 12 2 30 0 40 -3 9 -5 -1 -4 -23z"/>
<path d="M3040 5486 c0 -14 4 -27 8 -30 5 -3 6 8 4 25 -5 35 -12 38 -12 5z"/>
<path d="M4052 5490 c0 -14 2 -19 5 -12 2 6 2 18 0 25 -3 6 -5 1 -5 -13z"/>
<path d="M4310 5486 c0 -14 4 -27 8 -30 5 -3 6 8 4 25 -5 35 -12 38 -12 5z"/>
<path d="M4840 5486 c0 -14 4 -27 8 -30 5 -3 6 8 4 25 -5 35 -12 38 -12 5z"/>
<path d="M5197 5503 c-2 -5 0 -21 4 -38 7 -29 7 -29 8 8 1 35 -3 46 -12 30z"/>
<path d="M5559 5482 c-3 -20 -2 -29 4 -23 5 5 7 19 5 32 -3 20 -5 19 -9 -9z"/>
<path d="M5702 5490 c0 -14 2 -19 5 -12 2 6 2 18 0 25 -3 6 -5 1 -5 -13z"/>
<path d="M5840 5486 c0 -14 4 -27 8 -30 5 -3 6 8 4 25 -5 35 -12 38 -12 5z"/>
<path d="M2483 5493 c9 -2 23 -2 30 0 6 3 -1 5 -18 5 -16 0 -22 -2 -12 -5z"/>
<path d="M3525 5479 c-4 -6 -5 -12 -2 -15 2 -3 7 2 10 11 7 17 1 20 -8 4z"/>
<path d="M5143 5475 c-3 -9 -3 -18 -1 -21 3 -3 8 4 11 16 6 23 -1 27 -10 5z"/>
<path d="M6152 5476 c7 -8 15 -12 17 -11 5 6 -10 25 -20 25 -5 0 -4 -6 3 -14z"/>
<path d="M6243 5475 c-3 -9 -3 -18 -1 -21 3 -3 8 4 11 16 6 23 -1 27 -10 5z"/>
<path d="M2940 5471 c0 -6 4 -13 10 -16 6 -3 7 1 4 9 -7 18 -14 21 -14 7z"/>
<path d="M3310 5471 c0 -6 4 -13 10 -16 6 -3 7 1 4 9 -7 18 -14 21 -14 7z"/>
<path d="M3671 5464 c0 -11 3 -14 6 -6 3 7 2 16 -1 19 -3 4 -6 -2 -5 -13z"/>
<path d="M4700 5471 c0 -6 -10 -16 -22 -21 -16 -6 -18 -9 -7 -9 19 -1 45 26
35 36 -3 3 -6 1 -6 -6z"/>
<path d="M3756 5455 c-11 -8 -15 -15 -9 -15 6 0 16 7 23 15 16 19 11 19 -14 0z"/>
<path d="M2590 5450 c-9 -6 -10 -10 -3 -10 6 0 15 5 18 10 8 12 4 12 -15 0z"/>
<path d="M2996 5423 c-6 -14 -5 -15 5 -6 7 7 10 15 7 18 -3 3 -9 -2 -12 -12z"/>
</g>
</svg>
