<?xml version="1.0" standalone="no"?>
<!DOCTYPE svg PUBLIC "-//W3C//DTD SVG 20010904//EN"
 "http://www.w3.org/TR/2001/REC-SVG-20010904/DTD/svg10.dtd">
<svg version="1.0" xmlns="http://www.w3.org/2000/svg"
 width="960.000000pt" height="964.000000pt" viewBox="0 0 960.000000 964.000000"
 preserveAspectRatio="xMidYMid meet">

<g transform="translate(0.000000,964.000000) scale(0.100000,-0.100000)"
fill="#000000" stroke="none">
<path d="M960 8982 c-8 -4 -16 -14 -18 -22 -5 -22 -23 -41 -34 -34 -5 3 -4 12
3 20 7 9 8 14 1 14 -12 0 -52 -48 -52 -61 0 -5 24 -9 53 -9 57 0 79 -10 83
-34 1 -9 -2 -14 -7 -10 -15 9 -10 -13 6 -26 8 -7 12 -17 8 -23 -4 -6 -10 -1
-14 11 -9 23 -52 31 -64 12 -3 -5 -1 -10 4 -10 8 0 7 -7 -1 -19 -7 -11 -14
-19 -17 -19 -19 2 -22 -4 -10 -19 8 -10 9 -14 2 -10 -22 14 -23 -12 -1 -33 53
-49 142 -49 201 2 21 19 26 33 29 88 2 36 8 73 12 82 10 22 -56 93 -78 85 -8
-3 -20 1 -26 9 -13 14 -54 18 -80 6z m50 -31 c0 -3 -9 -12 -20 -19 -20 -12
-25 -6 -14 22 5 14 34 12 34 -3z m0 -52 c0 -11 -28 -11 -55 0 -15 7 -11 9 18
9 20 0 37 -4 37 -9z m45 -49 c3 -5 1 -10 -4 -10 -6 0 -11 5 -11 10 0 6 2 10 4
10 3 0 8 -4 11 -10z"/>
<path d="M1240 8835 l0 -85 41 0 c49 0 99 43 99 85 0 42 -50 85 -99 85 l-41 0
0 -85z m97 29 c15 -24 15 -29 2 -53 -9 -16 -25 -27 -42 -29 -27 -3 -27 -2 -27
52 0 53 1 56 25 56 15 0 31 -10 42 -26z"/>
<path d="M1653 8890 c2 -36 21 -34 25 3 2 19 -1 27 -12 27 -11 0 -15 -9 -13
-30z"/>
<path d="M1850 8836 l0 -83 44 -1 c50 -1 72 12 81 50 9 37 -35 83 -71 74 -21
-6 -24 -3 -24 19 0 16 -6 25 -15 25 -12 0 -15 -16 -15 -84z m89 -5 c13 -24 -8
-55 -35 -49 -23 4 -30 33 -14 53 17 20 37 19 49 -4z"/>
<path d="M1990 8835 c0 -69 3 -85 15 -85 12 0 15 16 15 85 0 69 -3 85 -15 85
-12 0 -15 -16 -15 -85z"/>
<path d="M7694 8898 l-19 -23 21 18 c16 13 23 15 26 6 3 -9 6 -8 11 4 9 25
-16 21 -39 -5z"/>
<path d="M7329 8893 c-13 -17 -13 -17 6 -3 11 8 22 16 24 17 2 2 0 3 -6 3 -6
0 -17 -8 -24 -17z"/>
<path d="M7416 8870 c8 -43 14 -51 14 -19 0 13 -5 31 -10 39 -7 11 -8 5 -4
-20z"/>
<path d="M1408 8861 c-18 -15 -19 -18 -5 -24 9 -3 19 -2 22 3 8 13 35 13 35 0
0 -5 -15 -13 -32 -18 -28 -7 -33 -13 -33 -38 0 -28 2 -29 48 -30 l48 -1 -3 55
c-3 51 -5 56 -30 63 -20 5 -34 2 -50 -10z m50 -73 c-7 -19 -38 -22 -38 -4 0
10 9 16 21 16 12 0 19 -5 17 -12z"/>
<path d="M1543 8872 l-33 -3 0 -60 c0 -46 3 -59 15 -59 11 0 15 12 15 44 0 31
5 46 16 50 26 10 34 -2 34 -50 0 -32 4 -44 15 -44 11 0 15 12 15 48 0 68 -13
81 -77 74z"/>
<path d="M1726 8867 c-25 -18 -17 -49 17 -65 15 -7 27 -17 27 -23 0 -12 -27
-12 -35 1 -9 15 -25 12 -25 -5 0 -18 40 -29 69 -20 34 10 28 54 -9 66 -16 6
-30 15 -30 21 0 5 13 7 30 3 37 -8 41 11 4 25 -31 12 -27 13 -48 -3z"/>
<path d="M2072 8870 c-43 -18 -48 -86 -8 -112 20 -14 63 -8 79 10 47 51 -7
127 -71 102z m46 -29 c8 -4 12 -19 10 -32 -2 -18 -9 -24 -28 -24 -19 0 -26 6
-28 24 -3 20 11 41 28 41 3 0 11 -4 18 -9z"/>
<path d="M2203 8868 c-30 -14 -38 -54 -18 -85 14 -20 23 -24 51 -21 37 4 43
-2 18 -23 -12 -9 -20 -10 -33 -2 -10 6 -24 8 -31 3 -21 -13 34 -44 65 -36 32
8 45 41 45 112 0 49 -2 54 -22 53 -13 -1 -30 1 -38 4 -8 3 -25 1 -37 -5z m61
-40 c8 -14 7 -21 -5 -33 -28 -29 -73 11 -48 42 15 17 38 13 53 -9z"/>
<path d="M7311 8860 c-1 -20 27 -60 41 -60 7 0 4 6 -5 13 -9 6 -21 23 -26 37
-5 14 -10 18 -10 10z"/>
<path d="M7671 8850 c-1 -28 24 -70 41 -70 7 0 4 6 -6 13 -10 7 -21 29 -26 47
-7 29 -8 31 -9 10z"/>
<path d="M7723 8855 c1 -11 16 -27 34 -36 26 -13 30 -19 20 -30 -7 -7 -2 -5
11 6 13 11 20 20 15 21 -4 1 -21 5 -36 8 -15 4 -32 17 -37 29 -9 19 -10 20 -7
2z"/>
<path d="M8072 8845 l28 -29 22 24 23 24 -23 -19 c-22 -18 -23 -18 -50 6 l-27
23 27 -29z"/>
<path d="M7400 8809 c-13 -9 -13 -10 0 -6 8 2 24 -3 35 -12 20 -16 20 -16 1 7
-11 12 -20 22 -20 22 -1 0 -8 -5 -16 -11z"/>
<path d="M7738 8773 c7 -3 16 -2 19 1 4 3 -2 6 -13 5 -11 0 -14 -3 -6 -6z"/>
<path d="M945 8385 c-14 -13 -25 -30 -25 -37 1 -18 29 -66 30 -50 0 8 5 10 12
6 6 -4 4 3 -4 15 -26 36 -12 61 33 61 37 0 39 -2 39 -30 0 -16 -4 -30 -10 -30
-5 0 -10 -10 -10 -22 0 -20 1 -21 20 -3 28 25 27 79 -2 99 -32 22 -55 20 -83
-9z"/>
<path d="M2737 8382 c-34 -35 -34 -55 -1 -81 36 -28 48 -27 78 10 27 32 26 39
-7 77 -27 29 -38 28 -70 -6z m50 -46 c-4 -9 -11 -16 -17 -16 -17 0 -24 31 -9
41 18 11 34 -5 26 -25z"/>
<path d="M1830 8385 c-10 -12 -10 -15 3 -15 8 0 17 7 21 15 3 8 2 15 -3 15 -5
0 -14 -7 -21 -15z"/>
<path d="M1870 8390 c0 -5 5 -10 10 -10 6 0 10 5 10 10 0 6 -4 10 -10 10 -5 0
-10 -4 -10 -10z"/>
<path d="M1906 8385 c4 -8 13 -15 21 -15 13 0 13 3 3 15 -7 8 -16 15 -21 15
-5 0 -6 -7 -3 -15z"/>
<path d="M2120 8345 l0 -55 55 0 55 0 0 55 0 55 -55 0 -55 0 0 -55z m35 35 c3
-5 1 -10 -4 -10 -6 0 -11 5 -11 10 0 6 2 10 4 10 3 0 8 -4 11 -10z m63 -52 c2
-16 -1 -28 -7 -28 -6 0 -11 9 -11 20 0 11 -4 20 -10 20 -5 0 -10 -8 -10 -18 0
-11 -7 -18 -20 -18 -15 0 -20 7 -20 29 0 27 2 28 38 25 32 -3 37 -7 40 -30z"/>
<path d="M2476 8382 c-13 -13 -20 -14 -35 -5 -16 10 -20 9 -24 -6 -2 -10 0
-26 5 -36 7 -12 7 -20 -3 -26 -22 -13 39 -23 67 -10 23 10 31 24 48 76 4 16 1
20 -18 21 -13 1 -31 -6 -40 -14z"/>
<path d="M1299 8368 l24 -28 -24 -9 c-15 -6 -18 -10 -8 -10 9 -1 22 5 28 12 8
11 4 19 -17 38 l-27 24 24 -27z"/>
<path d="M1310 8386 c0 -2 8 -10 18 -17 15 -13 16 -12 3 4 -13 16 -21 21 -21
13z"/>
<path d="M1524 8366 c-3 -13 -3 -34 1 -46 6 -18 13 -21 58 -18 l52 3 0 40 0
40 -52 3 c-49 3 -53 1 -59 -22z m70 -15 c3 -5 -1 -14 -9 -21 -13 -10 -15 -9
-15 9 0 21 14 28 24 12z"/>
<path d="M3051 8388 c2 -2 18 -14 34 -28 l30 -25 -24 28 c-14 15 -29 27 -34
27 -6 0 -8 -1 -6 -2z"/>
<path d="M1827 8354 c-8 -8 1 -24 14 -24 5 0 9 7 9 15 0 15 -12 20 -23 9z"/>
<path d="M1860 8345 c0 -8 9 -15 20 -15 11 0 20 7 20 15 0 8 -9 15 -20 15 -11
0 -20 -7 -20 -15z"/>
<path d="M1910 8345 c0 -9 5 -15 11 -13 6 2 11 8 11 13 0 5 -5 11 -11 13 -6 2
-11 -4 -11 -13z"/>
<path d="M3031 8347 c2 -1 13 -9 24 -17 19 -14 19 -14 6 3 -7 9 -18 17 -24 17
-6 0 -8 -1 -6 -3z"/>
<path d="M1231 8308 c-1 -27 0 -28 54 -28 54 0 55 1 54 28 -2 23 -2 24 -6 5
-4 -20 -11 -23 -48 -23 -37 0 -44 3 -48 23 -4 19 -4 18 -6 -5z"/>
<path d="M3111 8314 c0 -11 3 -14 6 -6 3 7 2 16 -1 19 -3 4 -6 -2 -5 -13z"/>
<path d="M1835 8300 c20 -23 29 -21 19 4 -3 9 -13 16 -22 16 -13 0 -12 -3 3
-20z"/>
<path d="M1906 8304 c-10 -25 -1 -27 19 -4 15 17 16 20 3 20 -9 0 -19 -7 -22
-16z"/>
<path d="M1268 8303 c12 -2 30 -2 40 0 9 3 -1 5 -23 4 -22 0 -30 -2 -17 -4z"/>
<path d="M1870 8300 c0 -5 5 -10 10 -10 6 0 10 5 10 10 0 6 -4 10 -10 10 -5 0
-10 -4 -10 -10z"/>
<path d="M2003 7745 c0 -27 2 -40 4 -27 6 29 43 31 43 2 0 -11 5 -20 10 -20 6
0 10 18 10 40 0 22 -4 40 -10 40 -5 0 -10 -7 -10 -15 0 -25 -38 -18 -43 8 -2
12 -4 0 -4 -28z"/>
<path d="M2643 7740 c-1 -25 1 -37 4 -27 5 21 19 22 30 2 6 -10 9 -2 10 25 1
22 -2 40 -7 40 -4 0 -6 -9 -3 -20 4 -14 0 -20 -10 -20 -9 0 -18 10 -20 23 -2
12 -4 2 -4 -23z"/>
<path d="M2920 7746 c0 -19 3 -37 8 -40 4 -2 6 13 4 35 -5 48 -12 51 -12 5z"/>
<path d="M3270 7748 c0 -18 4 -28 8 -22 4 7 16 14 27 17 17 4 17 5 -4 6 -16 1
-21 5 -17 16 3 8 1 15 -4 15 -6 0 -10 -15 -10 -32z"/>
<path d="M3343 7740 c0 -25 2 -35 4 -22 2 12 2 32 0 45 -2 12 -4 2 -4 -23z"/>
<path d="M3448 7768 c-6 -16 3 -68 11 -68 4 0 5 18 3 40 -4 41 -8 48 -14 28z"/>
<path d="M3490 7746 c0 -19 3 -37 8 -40 4 -2 6 13 4 35 -5 48 -12 51 -12 5z"/>
<path d="M3980 7744 c0 -28 -3 -35 -15 -30 -8 3 -15 1 -15 -4 0 -6 9 -10 20
-10 17 0 20 7 20 40 0 22 -2 40 -5 40 -3 0 -5 -16 -5 -36z"/>
<path d="M4535 7769 c-4 -6 -5 -12 -2 -15 2 -3 7 2 10 11 7 17 1 20 -8 4z"/>
<path d="M4575 7770 c3 -5 8 -10 11 -10 2 0 4 5 4 10 0 6 -5 10 -11 10 -5 0
-7 -4 -4 -10z"/>
<path d="M5305 7760 c-3 -10 -1 -28 5 -40 11 -20 44 -27 54 -11 3 4 -5 6 -18
4 -29 -6 -45 29 -26 52 8 10 9 15 2 15 -6 0 -13 -9 -17 -20z"/>
<path d="M5355 7770 c3 -5 8 -10 11 -10 2 0 4 5 4 10 0 6 -5 10 -11 10 -5 0
-7 -4 -4 -10z"/>
<path d="M5848 7768 c-6 -16 3 -68 11 -68 4 0 5 18 3 40 -4 41 -8 48 -14 28z"/>
<path d="M6262 7738 c1 -41 1 -41 5 -8 l5 35 29 -35 28 -35 0 45 c-1 39 -2 41
-8 15 l-7 -30 -18 28 c-26 38 -36 34 -34 -15z"/>
<path d="M6583 7740 c0 -25 2 -35 4 -22 2 12 2 32 0 45 -2 12 -4 2 -4 -23z"/>
<path d="M6728 7768 c-6 -16 3 -68 11 -68 4 0 5 18 3 40 -4 41 -8 48 -14 28z"/>
<path d="M6680 7760 c0 -5 5 -10 10 -10 6 0 10 5 10 10 0 6 -4 10 -10 10 -5 0
-10 -4 -10 -10z"/>
<path d="M2086 7744 c-9 -22 17 -49 39 -40 10 3 15 15 13 28 -4 29 -42 37 -52
12z m44 -14 c0 -11 -6 -20 -14 -20 -18 0 -29 16 -21 30 11 18 35 11 35 -10z"/>
<path d="M2161 7728 c2 -31 2 -31 6 -5 2 15 10 27 18 27 8 0 16 -12 18 -27 l4
-28 2 28 c0 15 5 27 10 27 5 0 12 -12 14 -27 4 -26 4 -26 6 5 1 31 0 32 -39
32 -39 0 -40 -1 -39 -32z"/>
<path d="M2264 7745 c-10 -24 4 -45 28 -44 l23 2 -22 4 c-31 6 -29 23 2 23 18
0 23 4 19 15 -4 8 -15 15 -25 15 -11 0 -22 -7 -25 -15z m33 -1 c-3 -3 -12 -4
-19 -1 -8 3 -5 6 6 6 11 1 17 -2 13 -5z"/>
<path d="M2714 7745 c-10 -24 4 -45 28 -44 l23 2 -22 4 c-28 5 -30 23 -3 23
11 0 20 7 20 15 0 8 -5 15 -11 15 -5 0 -7 -4 -4 -10 3 -5 -1 -10 -10 -10 -9 0
-13 5 -10 10 3 6 4 10 0 10 -3 0 -8 -7 -11 -15z"/>
<path d="M2816 7733 c7 -39 14 -42 14 -5 0 18 -4 32 -9 32 -5 0 -7 -12 -5 -27z"/>
<path d="M2850 7735 c0 -28 25 -44 42 -27 8 8 4 9 -12 5 -20 -5 -22 -3 -18 20
3 15 1 27 -3 27 -5 0 -9 -11 -9 -25z"/>
<path d="M3374 7730 c1 -18 7 -26 24 -28 19 -3 22 1 21 30 -2 30 -2 31 -6 6
-5 -34 -30 -37 -36 -5 -3 19 -4 19 -3 -3z"/>
<path d="M3534 7745 c-9 -23 3 -45 23 -44 17 1 17 2 1 6 -24 6 -23 23 2 23 11
0 20 7 20 15 0 8 -5 15 -11 15 -5 0 -7 -4 -4 -10 3 -5 -1 -10 -10 -10 -9 0
-13 5 -10 10 3 6 4 10 0 10 -3 0 -8 -7 -11 -15z"/>
<path d="M3600 7730 c0 -16 2 -30 4 -30 2 0 6 14 8 30 3 17 1 30 -4 30 -4 0
-8 -13 -8 -30z"/>
<path d="M4049 7748 c-1 -7 -1 -19 0 -25 1 -7 -5 -13 -14 -13 -9 0 -13 5 -10
10 3 6 1 10 -5 10 -21 0 -4 -25 18 -28 19 -3 22 1 22 27 0 30 -9 44 -11 19z"/>
<path d="M4080 7758 c0 -4 5 -19 11 -35 l11 -28 15 28 c8 16 12 31 10 34 -3 2
-8 -6 -12 -18 l-7 -22 -14 24 c-7 13 -13 21 -14 17z"/>
<path d="M4179 7748 c-1 -7 -1 -19 0 -25 1 -7 -5 -13 -14 -13 -10 0 -13 5 -9
12 4 7 3 8 -5 4 -16 -10 -4 -26 20 -26 14 0 19 7 19 30 0 29 -9 43 -11 18z"/>
<path d="M4614 7745 c-10 -25 4 -47 28 -43 24 3 36 34 20 50 -6 6 -8 0 -4 -17
4 -22 1 -26 -14 -23 -12 2 -19 12 -18 26 1 26 -4 28 -12 7z"/>
<path d="M4691 7733 c-1 -29 2 -33 24 -31 21 2 25 7 24 33 -1 28 -1 28 -8 6
-9 -35 -29 -37 -34 -4 -4 27 -4 27 -6 -4z"/>
<path d="M4760 7730 c0 -16 2 -30 4 -30 2 0 6 14 8 30 3 17 1 30 -4 30 -4 0
-8 -13 -8 -30z"/>
<path d="M4805 7751 c-3 -6 5 -15 17 -22 22 -12 22 -12 3 -20 -19 -8 -19 -9
-1 -6 27 3 31 24 6 32 -11 3 -18 11 -15 16 4 5 4 9 1 9 -3 0 -7 -4 -11 -9z"/>
<path d="M4904 7752 c5 -8 -2 -12 -18 -12 -14 0 -26 -4 -26 -8 0 -14 23 -32
40 -31 9 0 5 5 -10 12 l-25 11 28 4 c28 3 35 16 15 28 -7 4 -8 3 -4 -4z"/>
<path d="M5394 7745 c-14 -36 21 -60 45 -31 12 15 5 46 -11 46 -6 0 -5 -6 2
-15 14 -17 5 -35 -17 -35 -11 0 -14 7 -11 25 6 28 1 33 -8 10z"/>
<path d="M5460 7730 c0 -16 2 -30 4 -30 2 0 6 14 8 30 3 17 1 30 -4 30 -4 0
-8 -13 -8 -30z"/>
<path d="M5498 7730 c2 -16 5 -30 7 -30 2 0 5 14 7 30 3 19 0 30 -7 30 -7 0
-10 -11 -7 -30z"/>
<path d="M5538 7730 c2 -16 6 -30 8 -30 2 0 4 14 4 30 0 17 -4 30 -8 30 -5 0
-7 -13 -4 -30z"/>
<path d="M5570 7730 c0 -16 2 -30 4 -30 2 0 6 14 8 30 3 17 1 30 -4 30 -4 0
-8 -13 -8 -30z"/>
<path d="M5608 7730 c2 -16 5 -30 7 -30 2 0 5 14 7 30 3 19 0 30 -7 30 -7 0
-10 -11 -7 -30z"/>
<path d="M5642 7730 c0 -19 2 -27 5 -17 2 9 2 25 0 35 -3 9 -5 1 -5 -18z"/>
<path d="M5673 7735 c2 -23 7 -30 22 -30 14 0 20 7 21 25 1 23 1 23 -3 2 -5
-29 -25 -24 -35 9 -6 22 -7 21 -5 -6z"/>
<path d="M5741 7728 c2 -28 2 -29 6 -8 3 14 10 28 17 32 7 5 5 8 -6 8 -14 0
-18 -8 -17 -32z"/>
<path d="M5896 7740 c3 -14 6 -33 7 -42 2 -22 13 -11 22 22 5 19 4 21 -4 10
-8 -12 -12 -10 -21 10 l-11 25 7 -25z"/>
<path d="M6354 7745 c-9 -23 3 -45 23 -44 17 1 17 2 1 6 -24 6 -23 23 2 23 11
0 20 7 20 15 0 8 -5 15 -11 15 -5 0 -7 -4 -4 -10 3 -5 -1 -10 -10 -10 -9 0
-13 5 -10 10 3 6 4 10 0 10 -3 0 -8 -7 -11 -15z"/>
<path d="M6421 7750 c0 -8 4 -24 8 -34 6 -15 10 -16 16 -7 4 7 3 16 -2 20 -6
3 -13 13 -16 21 -5 13 -5 13 -6 0z"/>
<path d="M6450 7751 c0 -6 5 -13 10 -16 6 -3 10 1 10 9 0 9 -4 16 -10 16 -5 0
-10 -4 -10 -9z"/>
<path d="M6520 7745 c0 -8 4 -15 10 -15 5 0 7 7 4 15 -4 8 -8 15 -10 15 -2 0
-4 -7 -4 -15z"/>
<path d="M6614 7745 c-10 -24 4 -45 28 -44 l23 2 -22 4 c-28 5 -30 23 -3 23
11 0 20 7 20 15 0 8 -5 15 -11 15 -5 0 -7 -4 -4 -10 3 -5 -1 -10 -10 -10 -9 0
-13 5 -10 10 3 6 4 10 0 10 -3 0 -8 -7 -11 -15z"/>
<path d="M6772 7733 c2 -18 9 -28 21 -29 12 -1 13 -1 2 3 -22 7 -18 23 5 23
22 0 27 15 8 26 -7 4 -8 3 -4 -4 4 -7 1 -12 -9 -12 -9 0 -13 5 -10 10 3 6 1
10 -5 10 -6 0 -10 -12 -8 -27z"/>
<path d="M6840 7730 c0 -16 2 -30 4 -30 2 0 6 14 8 30 3 17 1 30 -4 30 -4 0
-8 -13 -8 -30z"/>
<path d="M4534 7720 c1 -18 34 -26 48 -12 6 6 1 8 -15 5 -16 -3 -27 0 -30 9
-3 9 -4 9 -3 -2z"/>
<path d="M2780 7717 c0 -10 8 -17 18 -17 9 0 13 4 7 8 -5 4 -13 11 -17 16 -5
5 -8 2 -8 -7z"/>
<path d="M4970 7721 c0 -5 -8 -12 -17 -14 -14 -4 -12 -5 5 -6 13 -1 22 5 22
14 0 8 -2 15 -5 15 -3 0 -5 -4 -5 -9z"/>
<path d="M6476 7721 c-4 -7 -5 -15 -2 -18 9 -9 19 4 14 18 -4 11 -6 11 -12 0z"/>
<path d="M6690 7710 c0 -5 5 -10 11 -10 5 0 7 5 4 10 -3 6 -8 10 -11 10 -2 0
-4 -4 -4 -10z"/>
<path d="M6528 7703 c6 -2 18 -2 25 0 6 3 1 5 -13 5 -14 0 -19 -2 -12 -5z"/>
<path d="M2043 7573 c64 -2 170 -2 235 0 64 1 11 3 -118 3 -129 0 -182 -2
-117 -3z"/>
<path d="M1021 7184 c-21 -26 -21 -33 -21 -750 l0 -723 24 -28 24 -28 1252 0
1252 0 24 28 24 28 0 723 c0 717 0 724 -21 750 l-20 26 -1259 0 -1259 0 -20
-26z m1337 -115 c-7 -5 -8 -9 -3 -9 12 0 -16 -20 -29 -20 -4 0 -5 7 -2 16 5
14 1 16 -31 11 -26 -5 -33 -3 -23 3 8 5 34 9 58 8 27 -1 38 -4 30 -9z m141
-25 c2 -2 -7 -4 -22 -4 -14 0 -29 5 -32 10 -6 10 42 4 54 -6z m-299 1 c0 -2
-9 -9 -20 -15 -12 -6 -20 -7 -20 -1 0 5 8 12 18 14 9 3 18 5 20 6 1 0 2 -1 2
-4z m15 -35 c-3 -5 -12 -7 -20 -3 -21 7 -19 13 6 13 11 0 18 -4 14 -10z m-35
-19 c0 -5 -9 -7 -20 -4 -11 3 -20 7 -20 9 0 2 9 4 20 4 11 0 20 -4 20 -9z
m-203 -19 c-13 -14 -14 -21 -5 -30 9 -9 8 -12 -3 -12 -27 0 -30 13 -7 37 25
27 39 32 15 5z m313 -2 c11 -8 9 -9 -10 -5 -19 4 -28 0 -39 -17 -7 -13 -10
-20 -6 -16 4 4 16 3 26 -3 15 -7 19 -6 19 6 0 12 6 14 27 9 18 -5 30 -2 38 9
11 15 15 15 42 2 19 -9 33 -25 35 -40 6 -30 -3 -32 -20 -4 -17 27 -98 24 -96
-3 1 -10 -2 -18 -7 -18 -5 0 -9 6 -9 13 0 8 -3 8 -8 2 -4 -6 -18 -11 -32 -10
-21 0 -26 5 -28 33 -3 25 -8 32 -25 33 -17 1 -15 3 8 9 44 11 68 11 85 0z
m317 -5 c0 -8 -4 -12 -9 -9 -4 3 -8 9 -8 15 0 5 4 9 8 9 5 0 9 -7 9 -15z
m-512 -5 c3 -5 -1 -10 -9 -10 -9 0 -16 5 -16 10 0 6 4 10 9 10 6 0 13 -4 16
-10z m50 -58 c3 -31 2 -32 -15 -17 -11 10 -26 14 -38 10 -12 -3 -24 -1 -28 6
-4 7 -3 9 4 6 15 -10 42 3 42 20 0 31 33 8 35 -25z m388 -21 c-3 -13 -12 -21
-21 -19 -19 4 -27 49 -11 59 18 11 39 -15 32 -40z m94 17 c-3 -8 -6 -5 -6 6
-1 11 2 17 5 13 3 -3 4 -12 1 -19z m-617 -18 c0 -5 -4 -10 -10 -10 -5 0 -10 5
-10 10 0 6 5 10 10 10 6 0 10 -4 10 -10z m627 -22 c-3 -8 -6 -5 -6 6 -1 11 2
17 5 13 3 -3 4 -12 1 -19z m-317 -48 c0 -5 -2 -10 -4 -10 -3 0 -8 5 -11 10 -3
6 -1 10 4 10 6 0 11 -4 11 -10z m487 -6 c-3 -3 -12 -4 -19 -1 -8 3 -5 6 6 6
11 1 17 -2 13 -5z m-270 -20 c-3 -3 -12 -4 -19 -1 -8 3 -5 6 6 6 11 1 17 -2
13 -5z m-152 -14 c4 -6 -5 -10 -20 -10 -15 0 -24 4 -20 10 3 6 12 10 20 10 8
0 17 -4 20 -10z m242 4 c-3 -3 -12 -4 -19 -1 -8 3 -5 6 6 6 11 1 17 -2 13 -5z
m-737 -14 c0 -5 -4 -10 -9 -10 -6 0 -13 5 -16 10 -3 6 1 10 9 10 9 0 16 -4 16
-10z m897 -52 c-2 -13 -4 -5 -4 17 -1 22 1 32 4 23 2 -10 2 -28 0 -40z"/>
<path d="M3850 7150 c0 -5 9 -10 20 -10 18 0 20 -7 20 -60 0 -47 3 -60 15 -60
12 0 15 13 15 60 0 53 2 60 20 60 11 0 20 5 20 10 0 6 -25 10 -55 10 -30 0
-55 -4 -55 -10z"/>
<path d="M3990 7090 c0 -73 17 -98 22 -32 2 29 7 37 23 37 16 0 21 -8 23 -37
5 -56 24 -46 20 10 -3 46 -4 47 -35 47 -28 0 -33 4 -33 22 0 13 -4 23 -10 23
-6 0 -10 -30 -10 -70z"/>
<path d="M4280 7090 c0 -40 4 -70 10 -70 6 0 10 8 10 19 0 13 10 21 34 25 19
4 37 14 40 22 18 47 -5 74 -63 74 l-31 0 0 -70z m74 34 c8 -21 -11 -44 -35
-44 -14 0 -19 7 -19 30 0 25 4 30 24 30 13 0 27 -7 30 -16z"/>
<path d="M4600 7090 c0 -73 17 -98 22 -32 2 29 7 37 23 37 16 0 21 -8 23 -37
5 -56 24 -46 20 10 -3 46 -4 47 -35 47 -28 0 -33 4 -33 22 0 13 -4 23 -10 23
-6 0 -10 -30 -10 -70z"/>
<path d="M5020 7090 l0 -70 39 0 c50 0 71 21 71 70 0 46 -27 70 -77 70 l-33 0
0 -70z m71 40 c12 -7 19 -21 19 -38 0 -36 -11 -51 -40 -54 -23 -3 -25 0 -28
50 -3 56 7 64 49 42z"/>
<path d="M5510 7090 c0 -40 4 -70 10 -70 6 0 10 30 10 70 0 40 -4 70 -10 70
-6 0 -10 -30 -10 -70z"/>
<path d="M5805 7150 c3 -5 10 -10 16 -10 5 0 9 5 9 10 0 6 -7 10 -16 10 -8 0
-12 -4 -9 -10z"/>
<path d="M6230 7090 c0 -40 4 -70 10 -70 6 0 10 11 10 24 0 37 10 56 31 56 15
0 19 -7 19 -40 0 -29 4 -40 15 -40 18 0 21 51 4 82 -8 16 -17 19 -40 14 -26
-5 -29 -3 -29 19 0 14 -4 25 -10 25 -6 0 -10 -30 -10 -70z"/>
<path d="M6536 7144 c-26 -25 -18 -45 24 -61 39 -16 51 -35 29 -49 -6 -3 -22
-1 -35 7 -30 16 -46 2 -20 -17 27 -19 49 -18 77 5 19 16 22 23 13 38 -6 10
-25 22 -42 28 -34 10 -42 32 -17 41 8 4 22 1 30 -6 20 -17 32 -5 15 15 -16 20
-54 19 -74 -1z"/>
<path d="M6989 7133 c-29 -74 -39 -107 -33 -112 3 -3 11 2 18 12 17 22 62 22
75 0 22 -39 22 0 0 62 -24 70 -43 82 -60 38z m40 -50 c1 -7 -8 -13 -19 -13
-23 0 -23 0 -9 37 10 26 12 27 19 8 5 -11 9 -26 9 -32z"/>
<path d="M7100 7090 c0 -40 4 -70 10 -70 6 0 10 30 10 70 0 40 -4 70 -10 70
-6 0 -10 -30 -10 -70z"/>
<path d="M4530 7136 c0 -8 -6 -17 -12 -20 -10 -5 -10 -7 0 -12 6 -3 12 -23 12
-44 0 -37 22 -61 35 -40 4 6 1 10 -4 10 -15 0 -14 67 2 74 10 5 10 7 0 12 -7
3 -13 12 -13 20 0 8 -4 14 -10 14 -5 0 -10 -6 -10 -14z"/>
<path d="M4780 7136 c0 -8 -6 -17 -12 -20 -10 -5 -10 -7 0 -12 6 -3 12 -23 12
-44 0 -26 5 -40 16 -44 22 -8 31 1 16 16 -16 16 -15 65 1 72 10 5 10 7 0 12
-7 3 -13 12 -13 20 0 8 -4 14 -10 14 -5 0 -10 -6 -10 -14z"/>
<path d="M6159 7133 c-6 -70 17 -141 38 -120 3 4 1 13 -5 19 -16 16 -15 65 1
72 10 5 10 7 0 12 -7 3 -13 12 -13 20 0 20 -20 17 -21 -3z"/>
<path d="M4122 7108 c-20 -20 -15 -76 7 -88 26 -13 34 -13 57 5 18 14 17 15
-15 12 -20 -1 -36 3 -38 11 -3 8 7 12 31 12 28 0 36 4 36 18 0 24 -19 42 -45
42 -12 0 -26 -5 -33 -12z m58 -19 c0 -5 -11 -9 -25 -9 -26 0 -34 15 -12 23 16
5 37 -3 37 -14z"/>
<path d="M4415 7110 c-10 -16 3 -26 16 -13 12 12 39 7 39 -7 0 -5 -14 -11 -31
-15 -61 -14 -43 -71 19 -59 32 7 33 8 30 53 -3 44 -5 46 -35 49 -17 2 -34 -2
-38 -8z m53 -62 c-5 -15 -48 -24 -48 -10 0 14 12 22 33 22 10 0 17 -5 15 -12z"/>
<path d="M4850 7101 c-16 -30 -12 -56 11 -77 19 -17 23 -17 47 -3 30 16 41 61
21 85 -17 21 -66 18 -79 -5z m65 -12 c10 -16 -4 -59 -19 -59 -21 0 -38 27 -31
50 7 21 39 27 50 9z"/>
<path d="M5172 7108 c-20 -20 -15 -76 7 -88 26 -13 33 -13 57 4 18 13 17 14
-15 13 -19 -1 -36 3 -38 11 -3 8 7 12 31 12 28 0 36 4 36 18 0 24 -19 42 -45
42 -12 0 -26 -5 -33 -12z m58 -19 c0 -5 -12 -9 -26 -9 -22 0 -24 2 -14 14 12
15 40 11 40 -5z"/>
<path d="M5272 7109 c3 -8 11 -31 19 -51 19 -54 42 -49 61 12 13 41 14 50 3
50 -8 0 -17 -15 -21 -35 -8 -43 -18 -45 -30 -3 -5 17 -16 34 -23 36 -9 3 -12
0 -9 -9z"/>
<path d="M5396 7098 c-21 -30 -20 -44 4 -68 24 -24 40 -25 66 -5 18 14 17 15
-15 12 -20 -1 -36 3 -38 11 -3 8 7 12 31 12 28 0 36 4 36 18 0 44 -58 57 -84
20z m45 -16 c-28 -4 -40 6 -21 18 9 6 20 4 29 -3 12 -10 11 -13 -8 -15z"/>
<path d="M5564 7095 c-30 -46 13 -99 62 -76 18 8 24 19 24 44 0 18 -5 38 -12
45 -20 20 -56 14 -74 -13z m64 -34 c-4 -38 -42 -36 -46 3 -2 16 2 32 9 37 20
12 40 -11 37 -40z"/>
<path d="M5680 7043 c0 -42 4 -73 10 -73 6 0 10 14 10 32 0 25 3 29 12 20 27
-27 68 1 68 47 0 37 -16 49 -62 48 l-38 -1 0 -73z m75 36 c10 -30 -18 -57 -39
-39 -16 13 -21 42 -9 53 14 14 42 6 48 -14z"/>
<path d="M5810 7070 c0 -27 5 -50 10 -50 6 0 10 23 10 50 0 28 -4 50 -10 50
-5 0 -10 -22 -10 -50z"/>
<path d="M5860 7069 c0 -57 17 -66 22 -11 2 29 7 37 23 37 16 0 21 -8 23 -37
5 -56 24 -46 20 10 l-3 47 -42 1 -43 2 0 -49z"/>
<path d="M5984 7106 c-3 -8 -4 -29 -2 -48 3 -30 6 -33 36 -33 25 0 32 -4 32
-19 0 -16 -5 -17 -37 -11 -33 6 -35 5 -24 -9 16 -19 52 -21 69 -4 7 7 12 39
12 73 l0 62 -40 1 c-27 1 -43 -3 -46 -12z m64 -35 c4 -26 -13 -42 -35 -34 -14
5 -18 45 -6 57 14 14 38 0 41 -23z"/>
<path d="M6360 7101 c-15 -29 -12 -56 8 -74 23 -21 43 -21 68 -2 18 14 17 15
-17 9 -28 -4 -38 -2 -42 10 -5 13 1 16 33 16 41 0 47 8 30 41 -7 12 -21 19
-40 19 -19 0 -33 -7 -40 -19z m70 -16 c0 -3 -14 -5 -31 -5 -27 0 -30 2 -19 15
9 11 17 12 31 4 10 -5 19 -12 19 -14z"/>
<path d="M6650 7081 c0 -50 37 -91 55 -61 3 5 12 7 20 3 12 -4 15 5 15 46 0
62 -18 68 -22 9 -2 -30 -8 -43 -18 -43 -10 0 -16 13 -18 43 -4 57 -32 60 -32
3z"/>
<path d="M6770 7069 c0 -37 4 -49 15 -49 11 0 15 11 15 40 0 33 3 40 20 40 17
0 20 -7 20 -40 0 -22 5 -40 10 -40 6 0 10 18 10 40 0 33 3 40 20 40 17 0 20
-7 20 -40 0 -22 5 -40 11 -40 6 0 9 19 7 48 l-3 47 -72 1 -73 2 0 -49z"/>
<path d="M3860 6850 l0 -70 48 2 c43 1 44 2 10 5 -33 4 -38 8 -38 29 0 20 5
24 30 24 17 0 30 5 30 10 0 6 -13 10 -30 10 -23 0 -30 4 -30 20 0 16 7 20 35
20 19 0 35 5 35 10 0 6 -20 10 -45 10 l-45 0 0 -70z"/>
<path d="M4510 6910 c0 -5 7 -10 15 -10 8 0 15 5 15 10 0 6 -7 10 -15 10 -8 0
-15 -4 -15 -10z"/>
<path d="M5245 6910 c-3 -5 -15 -35 -25 -66 -21 -59 -18 -83 4 -51 7 9 23 17
36 17 13 0 29 -8 36 -17 24 -34 26 -3 3 61 -22 62 -39 80 -54 56z m25 -39 c0
-5 3 -16 6 -25 4 -12 0 -16 -16 -16 -16 0 -20 4 -16 16 3 9 6 20 6 25 0 5 5 9
10 9 6 0 10 -4 10 -9z"/>
<path d="M5350 6850 c0 -40 4 -70 10 -70 6 0 10 30 10 70 0 40 -4 70 -10 70
-6 0 -10 -30 -10 -70z"/>
<path d="M6250 6895 c0 -22 -3 -25 -25 -19 -34 8 -55 -11 -55 -52 0 -38 28
-61 58 -46 9 5 23 7 30 5 9 -3 12 14 12 66 0 41 -4 71 -10 71 -5 0 -10 -11
-10 -25z m-6 -51 c8 -20 -11 -54 -29 -54 -16 0 -31 43 -20 59 10 16 42 13 49
-5z"/>
<path d="M4100 6896 c0 -8 -6 -17 -12 -20 -10 -5 -10 -7 0 -12 6 -3 12 -23 12
-44 0 -26 5 -40 16 -44 9 -4 20 -3 23 0 3 4 0 9 -6 11 -7 3 -13 20 -13 38 0
18 6 36 13 39 10 5 10 7 0 12 -7 3 -13 12 -13 20 0 8 -4 14 -10 14 -5 0 -10
-6 -10 -14z"/>
<path d="M6351 6888 c-10 -16 -10 -23 -2 -26 6 -2 11 -21 11 -43 0 -38 21 -62
38 -44 4 4 1 10 -5 12 -7 3 -13 20 -13 38 0 18 6 36 13 39 10 5 10 7 0 12 -7
3 -13 12 -13 20 0 21 -13 17 -29 -8z"/>
<path d="M6660 6896 c0 -8 -6 -17 -12 -20 -10 -5 -10 -7 0 -12 6 -3 12 -23 12
-44 0 -26 5 -40 16 -44 22 -8 31 1 16 16 -16 16 -15 65 1 72 10 5 10 7 0 12
-7 3 -13 12 -13 20 0 8 -4 14 -10 14 -5 0 -10 -6 -10 -14z"/>
<path d="M3987 6854 c14 -21 14 -29 4 -46 -16 -25 -4 -39 14 -15 11 15 14 15
25 2 20 -24 34 -17 17 9 -14 21 -14 26 0 45 19 28 7 43 -13 16 -14 -19 -16
-19 -28 -2 -22 28 -39 21 -19 -9z"/>
<path d="M4172 6868 c-36 -36 6 -104 56 -91 33 8 27 21 -9 19 -18 0 -34 5 -36
12 -3 8 8 12 36 12 42 0 48 8 31 41 -12 22 -59 26 -78 7z m68 -23 c0 -3 -14
-5 -31 -5 -27 0 -30 2 -19 15 9 11 17 12 31 4 10 -5 19 -12 19 -14z"/>
<path d="M4280 6828 c0 -26 5 -48 10 -48 6 0 10 11 10 24 0 37 10 56 31 56 15
0 19 -7 19 -40 0 -22 5 -40 11 -40 6 0 9 19 7 48 l-3 47 -42 1 -43 1 0 -49z"/>
<path d="M4410 6866 c-15 -19 0 -43 31 -48 33 -5 20 -23 -14 -21 -30 3 -31 2
-13 -12 23 -18 31 -18 57 -5 27 15 24 38 -8 52 -37 16 -36 15 -28 27 4 8 12 8
27 0 16 -9 19 -8 16 3 -7 19 -52 22 -68 4z"/>
<path d="M4510 6830 c0 -38 4 -50 15 -50 11 0 15 12 15 50 0 38 -4 50 -15 50
-11 0 -15 -12 -15 -50z"/>
<path d="M4570 6861 c-16 -31 -12 -59 12 -75 28 -20 43 -20 62 0 19 18 21 65
4 82 -19 19 -66 15 -78 -7z m65 -36 c0 -36 -28 -46 -44 -16 -15 27 -3 53 23
49 16 -2 21 -10 21 -33z"/>
<path d="M4690 6829 c0 -57 17 -66 22 -11 2 29 7 37 23 37 16 0 21 -8 23 -37
5 -56 24 -46 20 10 l-3 47 -42 1 -43 2 0 -49z"/>
<path d="M4810 6865 c0 -9 5 -15 11 -13 6 2 11 8 11 13 0 5 -5 11 -11 13 -6 2
-11 -4 -11 -13z"/>
<path d="M4925 6870 c-10 -16 3 -26 16 -13 12 12 39 7 39 -7 0 -5 -14 -11 -31
-15 -17 -4 -33 -14 -36 -22 -8 -22 21 -47 44 -38 10 5 24 7 31 6 10 -2 12 11
10 46 -3 46 -4 48 -35 51 -17 2 -34 -2 -38 -8z m55 -55 c0 -20 -28 -31 -42
-17 -10 10 8 23 40 31 1 1 2 -6 2 -14z"/>
<path d="M5030 6828 c0 -26 5 -48 10 -48 6 0 10 11 10 24 0 37 10 56 31 56 15
0 19 -7 19 -40 0 -49 16 -53 22 -5 6 50 -6 64 -52 62 l-40 -1 0 -48z"/>
<path d="M5450 6803 c0 -42 4 -73 10 -73 6 0 10 12 10 26 0 23 3 25 24 20 31
-8 56 16 56 53 0 37 -16 49 -62 48 l-38 -1 0 -73z m75 46 c11 -16 -4 -59 -20
-59 -18 0 -34 28 -28 51 6 20 38 26 48 8z"/>
<path d="M5586 6864 c-22 -21 -20 -50 4 -74 23 -23 33 -24 61 -10 22 12 27 68
7 88 -17 17 -54 15 -72 -4z m59 -39 c0 -23 -4 -30 -20 -30 -15 0 -21 8 -23 33
-3 30 -1 33 20 30 18 -2 23 -9 23 -33z"/>
<path d="M5696 6853 c19 -80 46 -99 58 -40 5 25 9 29 16 17 5 -8 10 -23 10
-32 0 -10 7 -18 15 -18 15 0 26 20 39 73 10 43 -16 29 -28 -14 l-9 -34 -10 38
c-5 20 -15 37 -22 37 -7 0 -17 -17 -22 -37 l-10 -38 -9 34 c-12 43 -38 57 -28
14z"/>
<path d="M5870 6865 c-18 -22 -15 -66 6 -82 23 -17 36 -16 60 2 18 14 17 15
-15 12 -20 -1 -36 3 -38 11 -3 8 7 12 31 12 28 0 36 4 36 18 0 39 -55 57 -80
27z m60 -16 c0 -5 -12 -9 -26 -9 -22 0 -24 2 -14 14 12 15 40 11 40 -5z"/>
<path d="M5980 6828 c0 -26 5 -48 10 -48 6 0 10 16 10 36 0 27 5 37 20 41 30
8 24 22 -10 21 -29 -1 -30 -3 -30 -50z"/>
<path d="M6060 6861 c-25 -48 7 -99 55 -87 35 9 32 27 -4 20 -20 -4 -30 -2
-34 10 -5 13 1 16 33 16 41 0 47 8 30 41 -7 12 -21 19 -40 19 -19 0 -33 -7
-40 -19z m70 -16 c0 -3 -14 -5 -31 -5 -27 0 -30 2 -19 15 9 11 17 12 31 4 10
-5 19 -12 19 -14z"/>
<path d="M6432 6868 c-17 -17 -15 -64 4 -82 19 -20 35 -20 60 -2 18 13 17 14
-15 13 -48 -3 -52 21 -4 25 32 2 37 6 35 23 -6 34 -55 48 -80 23z m58 -19 c0
-5 -12 -9 -26 -9 -22 0 -24 2 -14 14 12 15 40 11 40 -5z"/>
<path d="M6540 6875 c0 -2 5 -15 11 -28 8 -18 8 -30 0 -46 -14 -26 3 -29 18
-3 9 16 11 16 25 -3 8 -11 18 -17 22 -13 4 4 1 15 -6 23 -10 12 -10 21 -1 42
15 32 6 43 -14 17 -14 -18 -16 -18 -26 -1 -9 15 -29 24 -29 12z"/>
<path d="M4812 6789 c2 -6 8 -10 13 -10 5 0 11 4 13 10 2 6 -4 11 -13 11 -9 0
-15 -5 -13 -11z"/>
<path d="M4640 6670 c0 -5 5 -10 10 -10 6 0 10 5 10 10 0 6 -4 10 -10 10 -5 0
-10 -4 -10 -10z"/>
<path d="M3860 6626 c-15 -19 0 -43 31 -48 33 -5 20 -23 -14 -21 -30 3 -31 2
-13 -12 23 -18 31 -18 57 -5 27 15 24 38 -8 52 -37 16 -36 15 -28 27 4 8 12 8
27 0 16 -9 19 -8 16 3 -7 19 -52 22 -68 4z"/>
<path d="M3960 6601 c0 -45 24 -76 49 -65 9 4 24 6 34 6 14 -1 17 8 17 49 0
36 -4 49 -14 49 -10 0 -16 -14 -18 -42 -2 -30 -8 -43 -18 -43 -10 0 -16 13
-18 43 -4 57 -32 60 -32 3z"/>
<path d="M4090 6588 c0 -26 5 -48 10 -48 6 0 10 18 10 40 0 33 3 40 20 40 17
0 20 -7 20 -40 0 -51 18 -53 22 -3 2 27 8 39 21 41 14 3 17 -4 17 -37 0 -30 4
-41 15 -41 11 0 15 11 15 38 0 55 -7 60 -82 59 l-68 0 0 -49z"/>
<path d="M4270 6589 c0 -27 5 -49 10 -49 6 0 10 18 10 40 0 33 3 40 20 40 17
0 20 -7 20 -40 0 -51 18 -53 22 -3 2 27 8 39 21 41 14 3 17 -4 17 -37 0 -30 4
-41 15 -41 19 0 21 73 3 88 -7 5 -41 9 -75 9 l-63 0 0 -48z"/>
<path d="M4455 6630 c-11 -17 3 -24 19 -11 8 7 20 10 26 6 18 -11 11 -23 -21
-30 -61 -14 -43 -71 19 -59 32 7 33 8 30 53 -3 44 -5 46 -35 49 -17 2 -34 -2
-38 -8z m55 -59 c0 -6 -5 -13 -10 -16 -15 -9 -43 3 -35 15 8 13 45 13 45 1z"/>
<path d="M4560 6588 c0 -26 5 -48 10 -48 6 0 10 16 10 36 0 27 5 37 20 41 30
8 24 22 -10 21 -29 -1 -30 -3 -30 -50z"/>
<path d="M4640 6590 c0 -27 5 -50 10 -50 6 0 10 23 10 50 0 28 -4 50 -10 50
-5 0 -10 -22 -10 -50z"/>
<path d="M4690 6630 c0 -5 11 -10 25 -10 28 0 27 -5 -11 -57 l-16 -23 48 1
c29 1 38 4 22 6 -33 5 -34 12 -8 46 29 37 25 47 -20 47 -22 0 -40 -4 -40 -10z"/>
<path d="M4812 6628 c-20 -20 -15 -76 7 -88 26 -13 34 -13 57 5 18 14 17 15
-15 12 -20 -1 -36 3 -38 11 -3 8 7 12 31 12 28 0 36 4 36 18 0 24 -19 42 -45
42 -12 0 -26 -5 -33 -12z m58 -18 c0 -5 -12 -10 -26 -10 -14 0 -23 4 -19 10 3
6 15 10 26 10 10 0 19 -4 19 -10z"/>
<path d="M4920 6588 c0 -26 5 -48 10 -48 6 0 10 16 10 36 0 27 5 37 20 41 30
8 24 22 -10 21 -29 -1 -30 -3 -30 -50z"/>
<path d="M4965 6360 c3 -5 8 -10 11 -10 2 0 4 5 4 10 0 6 -5 10 -11 10 -5 0
-7 -4 -4 -10z"/>
<path d="M5033 6325 c0 -27 2 -38 4 -22 2 15 2 37 0 50 -2 12 -4 0 -4 -28z"/>
<path d="M5683 6325 c0 -27 2 -38 4 -22 2 15 2 37 0 50 -2 12 -4 0 -4 -28z"/>
<path d="M6183 6325 c0 -27 2 -38 4 -22 2 15 2 37 0 50 -2 12 -4 0 -4 -28z"/>
<path d="M5148 6353 c-2 -5 -1 -24 2 -43 l6 -35 5 38 c5 34 -4 59 -13 40z"/>
<path d="M5518 6353 c-2 -5 -1 -24 2 -43 l6 -35 5 38 c5 34 -4 59 -13 40z"/>
<path d="M5998 6353 c-2 -5 -1 -24 2 -43 l6 -35 5 38 c5 34 -4 59 -13 40z"/>
<path d="M7707 6353 c-2 -5 -1 -21 3 -38 l6 -30 5 33 c5 30 -4 53 -14 35z"/>
<path d="M3893 6315 c0 -22 2 -30 4 -17 2 12 2 30 0 40 -3 9 -5 -1 -4 -23z"/>
<path d="M3978 6343 c7 -3 16 -2 19 1 4 3 -2 6 -13 5 -11 0 -14 -3 -6 -6z"/>
<path d="M4023 6315 c0 -22 2 -30 4 -17 2 12 2 30 0 40 -3 9 -5 -1 -4 -23z"/>
<path d="M4167 6343 c-3 -5 5 -8 18 -8 13 0 21 3 18 8 -2 4 -10 7 -18 7 -8 0
-16 -3 -18 -7z"/>
<path d="M4293 6315 c0 -22 2 -30 4 -17 2 12 2 30 0 40 -3 9 -5 -1 -4 -23z"/>
<path d="M4403 6315 c0 -22 2 -30 4 -17 2 12 2 30 0 40 -3 9 -5 -1 -4 -23z"/>
<path d="M4460 6346 c0 -2 7 -7 16 -10 8 -3 12 -2 9 4 -6 10 -25 14 -25 6z"/>
<path d="M4732 6320 c0 -19 2 -27 5 -17 2 9 2 25 0 35 -3 9 -5 1 -5 -18z"/>
<path d="M4887 6343 c6 -4 13 -22 16 -38 4 -27 5 -27 3 4 0 21 -7 36 -16 38
-10 3 -11 2 -3 -4z"/>
<path d="M5220 6346 c0 -2 7 -7 16 -10 8 -3 12 -2 9 4 -6 10 -25 14 -25 6z"/>
<path d="M5403 6315 c0 -22 2 -30 4 -17 2 12 2 30 0 40 -3 9 -5 -1 -4 -23z"/>
<path d="M5577 6343 c-3 -5 5 -8 18 -8 13 0 21 3 18 8 -2 4 -10 7 -18 7 -8 0
-16 -3 -18 -7z"/>
<path d="M5755 6340 c-3 -6 1 -7 9 -4 18 7 21 14 7 14 -6 0 -13 -4 -16 -10z"/>
<path d="M6283 6300 c0 -30 2 -43 4 -27 2 15 2 39 0 55 -2 15 -4 2 -4 -28z"/>
<path d="M6376 6342 c-3 -5 5 -8 17 -8 17 1 22 -5 22 -26 -1 -14 3 -24 7 -22
12 8 10 38 -4 52 -14 14 -35 16 -42 4z"/>
<path d="M6486 6333 c-6 -14 -5 -15 5 -6 7 7 10 15 7 18 -3 3 -9 -2 -12 -12z"/>
<path d="M6643 6315 c0 -22 2 -30 4 -17 2 12 2 30 0 40 -3 9 -5 -1 -4 -23z"/>
<path d="M6972 6320 c0 -19 2 -27 5 -17 2 9 2 25 0 35 -3 9 -5 1 -5 -18z"/>
<path d="M7023 6315 c0 -22 2 -30 4 -17 2 12 2 30 0 40 -3 9 -5 -1 -4 -23z"/>
<path d="M7127 6343 c6 -4 13 -22 16 -38 4 -27 5 -27 3 4 0 21 -7 36 -16 38
-10 3 -11 2 -3 -4z"/>
<path d="M7240 6346 c0 -2 7 -7 16 -10 8 -3 12 -2 9 4 -6 10 -25 14 -25 6z"/>
<path d="M7473 6343 c9 -2 23 -2 30 0 6 3 -1 5 -18 5 -16 0 -22 -2 -12 -5z"/>
<path d="M7550 6346 c0 -2 9 -6 20 -9 11 -3 18 -1 14 4 -5 9 -34 13 -34 5z"/>
<path d="M4320 6311 c0 -11 4 -22 9 -25 4 -3 6 6 3 19 -5 30 -12 33 -12 6z"/>
<path d="M5832 6310 c0 -14 2 -19 5 -12 2 6 2 18 0 25 -3 6 -5 1 -5 -13z"/>
<path d="M5962 6305 c0 -16 2 -22 5 -12 2 9 2 23 0 30 -3 6 -5 -1 -5 -18z"/>
<path d="M7342 6305 c0 -16 2 -22 5 -12 2 9 2 23 0 30 -3 6 -5 -1 -5 -18z"/>
<path d="M7530 6311 c0 -11 4 -22 9 -25 4 -3 6 6 3 19 -5 30 -12 33 -12 6z"/>
<path d="M4696 6293 c-6 -14 -5 -15 5 -6 7 7 10 15 7 18 -3 3 -9 -2 -12 -12z"/>
<path d="M3960 5940 c-14 -4 -21 -8 -16 -9 12 -1 -34 -41 -48 -41 -6 0 -2 7 8
15 17 13 17 15 3 15 -15 0 -47 -35 -47 -52 0 -11 68 -10 74 1 3 5 17 9 31 9
14 0 28 -4 31 -9 3 -5 -5 -9 -18 -9 -18 0 -20 -2 -9 -9 8 -5 16 -17 17 -25 1
-9 -2 -14 -7 -10 -5 3 -9 1 -9 -5 0 -5 5 -13 10 -16 6 -3 10 -12 10 -18 0 -7
-5 -4 -11 7 -9 15 -13 16 -21 5 -8 -11 -9 -10 -4 4 5 15 3 16 -15 7 -11 -6
-17 -15 -14 -21 4 -5 0 -9 -8 -9 -10 0 -13 -9 -10 -27 3 -23 2 -24 -5 -9 -8
19 -9 19 -14 -1 -8 -30 7 -50 48 -63 45 -15 111 -5 144 21 21 18 26 33 32 102
l7 82 -30 28 c-16 15 -38 27 -49 27 -10 0 -22 5 -25 10 -7 11 -19 11 -55 0z
m40 -30 c0 -4 -9 -10 -20 -13 -22 -6 -23 -5 -14 17 6 14 34 12 34 -4z m-45
-200 c3 -6 -1 -7 -9 -4 -18 7 -21 14 -7 14 6 0 13 -4 16 -10z"/>
<path d="M4240 5900 c0 -43 3 -50 20 -50 23 0 60 33 60 54 0 22 -29 46 -56 46
-22 0 -24 -4 -24 -50z m44 34 c10 -4 16 -18 16 -35 0 -24 -4 -29 -25 -29 -21
0 -25 5 -25 28 0 39 7 46 34 36z"/>
<path d="M4520 5906 c0 -25 5 -46 10 -46 6 0 10 7 10 15 0 22 15 18 32 -6 13
-20 14 -18 13 27 0 48 -1 49 -32 52 -33 3 -33 3 -33 -42z m55 14 c0 -8 -8 -16
-17 -18 -13 -2 -18 3 -18 18 0 15 5 20 18 18 9 -2 17 -10 17 -18z"/>
<path d="M4691 5904 c-1 -54 0 -54 52 -45 11 2 8 46 -4 58 -6 6 -17 9 -24 6
-7 -2 -15 4 -18 14 -3 10 -5 -5 -6 -33z m47 -16 c-2 -13 -10 -23 -18 -23 -8 0
-16 10 -18 23 -3 17 2 22 18 22 16 0 21 -5 18 -22z"/>
<path d="M4345 5920 c-3 -5 4 -10 17 -11 22 -1 21 -2 -5 -12 -35 -14 -32 -42
6 -43 24 -1 27 2 27 31 0 21 -6 35 -16 39 -21 8 -22 8 -29 -4z m26 -53 c-13
-13 -26 -3 -16 12 3 6 11 8 17 5 6 -4 6 -10 -1 -17z"/>
<path d="M4428 5922 c-13 -2 -18 -12 -17 -35 2 -31 2 -31 6 -4 5 35 34 33 44
-3 l7 -25 1 26 c1 30 -16 47 -41 41z"/>
<path d="M4616 5914 c-20 -19 -20 -25 -2 -50 12 -15 18 -17 33 -8 26 16 28 50
4 63 -15 8 -23 7 -35 -5z m39 -14 c8 -13 -14 -42 -26 -34 -5 3 -9 14 -9 25 0
20 24 26 35 9z"/>
<path d="M4818 5923 c-13 -3 -18 -15 -18 -39 0 -21 4 -33 10 -29 6 3 10 17 10
31 0 37 28 30 33 -8 4 -28 4 -26 3 6 -1 40 -8 47 -38 39z"/>
<path d="M4893 5923 c-20 -7 -15 -31 7 -38 11 -4 18 -10 15 -15 -3 -5 -13 -6
-22 -3 -11 4 -14 3 -9 -5 10 -16 31 -15 46 3 10 12 8 17 -14 26 -27 13 -27 32
1 22 11 -4 14 -3 9 5 -8 13 -13 14 -33 5z"/>
<path d="M4962 5918 c-27 -27 -2 -75 32 -62 21 8 21 60 0 68 -20 8 -18 8 -32
-6z m38 -27 c0 -11 -5 -23 -11 -27 -15 -9 -33 12 -26 30 9 23 37 20 37 -3z"/>
<path d="M5048 5922 c-13 -2 -18 -13 -17 -35 1 -30 1 -30 8 -7 11 39 39 38 44
-2 l4 -33 1 36 c2 38 -9 49 -40 41z"/>
<path d="M4773 5885 c0 -22 2 -30 4 -17 2 12 2 30 0 40 -3 9 -5 -1 -4 -23z"/>
<path d="M4671 5704 c0 -11 3 -14 6 -6 3 7 2 16 -1 19 -3 4 -6 -2 -5 -13z"/>
<path d="M4801 5704 c0 -11 3 -14 6 -6 3 7 2 16 -1 19 -3 4 -6 -2 -5 -13z"/>
<path d="M1750 5270 l0 -40 55 0 c59 0 63 5 49 58 -6 19 -13 22 -55 22 l-49 0
0 -40z m71 -23 c-10 -9 -11 -8 -5 6 3 10 9 15 12 12 3 -3 0 -11 -7 -18z m-21
9 c0 -2 -7 -7 -16 -10 -8 -3 -12 -2 -9 4 6 10 25 14 25 6z"/>
<path d="M1917 5273 c10 -21 19 -40 20 -42 1 -2 10 2 19 10 13 11 18 11 21 2
3 -7 20 -13 38 -13 26 0 34 5 39 24 3 13 9 31 12 40 8 22 -12 20 -47 -4 l-28
-21 -13 21 c-9 13 -23 20 -45 20 l-33 0 17 -37z"/>
<path d="M1990 5300 c0 -5 5 -10 11 -10 5 0 7 5 4 10 -3 6 -8 10 -11 10 -2 0
-4 -4 -4 -10z"/>
<path d="M1890 5280 c-1 -8 -3 -23 -5 -32 -2 -12 3 -18 16 -18 10 0 19 5 19
11 0 5 -5 7 -12 3 -7 -4 -8 -3 -4 4 4 7 2 20 -3 29 -8 14 -11 15 -11 3z"/>
<path d="M1720 5260 c0 -5 5 -10 11 -10 5 0 7 5 4 10 -3 6 -8 10 -11 10 -2 0
-4 -4 -4 -10z"/>
<path d="M1690 5239 c0 -5 9 -9 20 -9 11 0 20 2 20 4 0 2 -9 6 -20 9 -11 3
-20 1 -20 -4z"/>
<path d="M1750 5209 c0 -4 6 -10 13 -12 10 -4 10 -6 0 -6 -20 -1 -17 -107 2
-115 20 -7 19 -26 -2 -42 -13 -10 -14 -13 -4 -14 8 0 20 8 28 18 14 16 14 16
10 -4 -4 -19 1 -20 74 -23 68 -2 78 0 73 14 -4 10 0 15 10 15 9 0 16 -7 16
-15 0 -10 10 -15 33 -15 27 1 29 2 14 11 -10 6 -16 18 -13 27 3 9 -8 42 -24
72 -16 30 -29 49 -30 42 0 -7 -5 -10 -10 -7 -8 5 -8 11 0 20 18 22 -15 38 -65
33 -25 -3 -45 -1 -45 4 0 5 -18 8 -40 6 -22 -1 -40 -5 -40 -9z m45 -59 c-3 -5
-10 -10 -16 -10 -5 0 -9 5 -9 10 0 6 7 10 16 10 8 0 12 -4 9 -10z m165 -51 c0
-3 -9 -9 -20 -12 -19 -5 -27 3 -15 15 8 7 35 6 35 -3z"/>
<path d="M3871 5194 c-12 -15 -21 -38 -21 -51 0 -31 42 -73 73 -73 31 0 62 23
53 39 -6 9 -13 8 -27 -5 -16 -14 -24 -15 -44 -6 -19 9 -25 19 -25 45 0 18 5
38 12 45 15 15 51 15 66 0 17 -17 28 -2 12 17 -21 25 -75 19 -99 -11z"/>
<path d="M4830 5144 c0 -56 3 -75 13 -72 8 3 13 30 15 76 2 60 0 72 -13 72
-12 0 -15 -14 -15 -76z"/>
<path d="M5600 5210 c0 -5 7 -10 15 -10 8 0 15 5 15 10 0 6 -7 10 -15 10 -8 0
-15 -4 -15 -10z"/>
<path d="M5910 5210 c0 -5 9 -10 20 -10 18 0 20 -7 20 -66 0 -48 3 -65 13 -62
7 3 13 28 15 66 2 46 7 62 17 62 8 0 15 5 15 10 0 6 -22 10 -50 10 -27 0 -50
-4 -50 -10z"/>
<path d="M6030 5145 c0 -80 17 -104 22 -32 2 34 7 42 23 42 16 0 21 -8 23 -42
2 -24 8 -43 13 -43 6 0 9 22 7 53 -3 51 -4 52 -35 55 -25 2 -33 8 -33 23 0 10
-4 19 -10 19 -6 0 -10 -32 -10 -75z"/>
<path d="M6550 5210 c0 -5 5 -10 10 -10 6 0 10 5 10 10 0 6 -4 10 -10 10 -5 0
-10 -4 -10 -10z"/>
<path d="M6747 5213 c-4 -3 -7 -19 -7 -34 0 -23 6 -30 35 -39 36 -12 46 -36
20 -47 -9 -3 -24 2 -34 11 -12 11 -21 13 -25 7 -10 -16 41 -44 68 -37 26 6 42
38 30 57 -3 6 -22 17 -40 25 -19 8 -34 21 -34 29 0 17 35 21 45 5 9 -15 25
-12 25 4 0 22 -65 37 -83 19z"/>
<path d="M1690 5175 c-7 -19 -17 -32 -21 -29 -4 2 -10 0 -14 -6 -3 -5 0 -10 8
-10 8 0 17 -9 20 -20 4 -17 8 -18 31 -7 27 13 35 42 14 50 -10 4 -10 6 0 6 6
1 12 12 12 26 0 39 -33 32 -50 -10z"/>
<path d="M1969 5168 c10 -24 24 -42 31 -40 7 1 9 -5 6 -15 -3 -10 1 -28 8 -41
11 -21 12 -17 12 35 0 32 4 68 8 81 6 17 5 22 -7 22 -8 0 -18 -6 -21 -12 -5
-10 -7 -10 -12 0 -3 6 -14 12 -24 12 -19 0 -19 -1 -1 -42z"/>
<path d="M4321 5184 c-9 -11 -10 -18 -3 -23 6 -3 12 -21 14 -40 3 -34 30 -62
45 -47 4 4 0 12 -10 17 -22 13 -24 69 -2 69 8 0 15 5 15 10 0 6 -7 10 -15 10
-8 0 -15 5 -15 10 0 14 -13 12 -29 -6z"/>
<path d="M5006 5183 c-4 -9 -2 -21 4 -27 5 -5 10 -24 10 -42 0 -20 6 -34 16
-38 22 -8 31 1 16 16 -16 16 -15 65 0 70 9 3 8 9 -4 21 -21 21 -34 21 -42 0z"/>
<path d="M5521 5184 c-9 -11 -10 -18 -3 -23 6 -3 12 -21 14 -40 2 -19 11 -39
20 -45 24 -14 34 -1 14 19 -21 21 -20 51 2 64 16 9 16 11 -3 25 -25 19 -27 19
-44 0z"/>
<path d="M4010 5123 c0 -29 5 -53 10 -53 6 0 10 18 10 41 0 32 4 42 20 46 30
8 24 22 -10 21 -29 -1 -30 -2 -30 -55z"/>
<path d="M4090 5161 c-15 -29 -12 -56 8 -74 23 -21 43 -21 68 -2 18 15 17 16
-12 10 -21 -4 -35 -1 -44 10 -11 13 -7 15 29 15 33 0 41 4 41 18 0 42 -70 60
-90 23z m65 -11 c4 -6 -7 -10 -25 -10 -18 0 -29 4 -25 10 3 6 15 10 25 10 10
0 22 -4 25 -10z"/>
<path d="M4217 5174 c-15 -16 -6 -23 23 -17 19 3 30 1 30 -6 0 -6 -14 -14 -31
-18 -59 -12 -45 -63 17 -61 l35 1 -3 51 c-3 49 -4 51 -33 54 -17 2 -34 0 -38
-4z m51 -66 c-7 -19 -38 -22 -38 -4 0 10 9 16 21 16 12 0 19 -5 17 -12z"/>
<path d="M4412 5168 c-17 -17 -15 -64 4 -82 16 -17 33 -20 58 -10 25 10 19 25
-7 19 -15 -4 -28 -1 -36 9 -12 14 -8 16 28 16 33 0 41 4 41 18 0 25 -20 42
-50 42 -14 0 -31 -5 -38 -12z m58 -18 c0 -5 -12 -10 -26 -10 -14 0 -23 4 -19
10 3 6 15 10 26 10 10 0 19 -4 19 -10z"/>
<path d="M4570 5165 c-11 -13 -8 -14 19 -9 41 8 41 -11 0 -25 -24 -8 -30 -15
-27 -33 3 -20 9 -23 46 -24 l42 -1 0 42 c0 22 -5 46 -12 53 -17 17 -53 15 -68
-3z m50 -55 c0 -12 -28 -25 -36 -17 -9 9 6 27 22 27 8 0 14 -5 14 -10z"/>
<path d="M4680 5123 c0 -29 5 -53 10 -53 6 0 10 18 10 40 0 28 5 43 16 47 21
8 34 -13 34 -54 0 -18 5 -33 10 -33 15 0 12 86 -3 98 -7 6 -27 10 -45 10 -32
-1 -32 -1 -32 -55z"/>
<path d="M4890 5123 c0 -29 5 -53 10 -53 6 0 10 18 10 40 0 28 5 43 16 47 21
8 34 -13 34 -54 0 -18 5 -33 10 -33 15 0 12 86 -3 98 -7 6 -27 10 -45 10 -32
-1 -32 -1 -32 -55z"/>
<path d="M5097 5162 c-23 -26 -21 -58 5 -76 28 -20 52 -20 68 -1 11 13 8 15
-20 13 -19 -2 -35 2 -37 10 -3 8 7 12 31 12 28 0 36 4 36 18 0 41 -54 57 -83
24z m58 -12 c4 -6 -5 -10 -19 -10 -14 0 -26 5 -26 10 0 6 9 10 19 10 11 0 23
-4 26 -10z"/>
<path d="M5210 5124 c0 -30 5 -54 10 -54 6 0 10 18 10 40 0 27 5 43 15 46 23
9 18 22 -10 22 -24 0 -25 -4 -25 -54z"/>
<path d="M5297 5173 c-14 -13 -6 -24 13 -18 11 3 25 3 32 -1 8 -5 -1 -12 -23
-19 -23 -8 -35 -19 -37 -33 -4 -24 -4 -24 51 -27 l37 -2 0 47 c0 34 -4 50 -16
54 -21 8 -49 8 -57 -1z m51 -65 c-5 -15 -48 -24 -48 -10 0 14 12 22 33 22 10
0 17 -5 15 -12z"/>
<path d="M5405 5156 c-29 -45 13 -98 65 -81 11 3 20 13 20 21 0 17 -12 18 -28
2 -16 -16 -44 9 -40 36 3 18 9 21 42 19 33 -2 36 -1 26 12 -20 24 -67 19 -85
-9z"/>
<path d="M5600 5124 c0 -73 24 -70 28 4 2 42 0 52 -12 52 -13 0 -16 -12 -16
-56z"/>
<path d="M5650 5171 c0 -17 39 -101 47 -101 4 0 18 25 30 55 16 42 18 55 8 55
-7 0 -19 -17 -26 -37 l-12 -37 -14 37 c-14 34 -33 50 -33 28z"/>
<path d="M5776 5164 c-9 -8 -16 -26 -16 -38 0 -46 63 -74 90 -41 11 13 8 15
-20 13 -19 -2 -35 2 -37 10 -3 8 7 12 31 12 28 0 36 4 36 18 0 40 -54 57 -84
26z m59 -14 c4 -6 -5 -10 -19 -10 -14 0 -26 5 -26 10 0 6 9 10 19 10 11 0 23
-4 26 -10z"/>
<path d="M6150 5123 c0 -29 5 -53 10 -53 6 0 10 18 10 41 0 32 4 42 20 46 30
8 24 22 -10 21 -29 -1 -30 -2 -30 -55z"/>
<path d="M6236 5164 c-9 -8 -16 -26 -16 -38 0 -46 63 -74 90 -41 11 13 8 15
-20 13 -19 -2 -35 2 -37 10 -3 8 7 12 31 12 28 0 36 4 36 18 0 40 -54 57 -84
26z m59 -14 c4 -6 -5 -10 -19 -10 -14 0 -26 5 -26 10 0 6 9 10 19 10 11 0 23
-4 26 -10z"/>
<path d="M6354 5155 c-13 -21 -15 -31 -6 -50 15 -32 58 -43 80 -21 16 16 15
17 -17 14 -20 -2 -36 2 -38 10 -3 8 8 12 36 12 45 0 48 5 25 38 -21 30 -59 29
-80 -3z m61 -5 c4 -6 -5 -10 -20 -10 -15 0 -24 4 -20 10 3 6 12 10 20 10 8 0
17 -4 20 -10z"/>
<path d="M6550 5126 c0 -37 -5 -60 -16 -71 -20 -20 -10 -33 14 -19 13 8 18 28
20 78 2 41 -1 66 -8 66 -6 0 -10 -23 -10 -54z"/>
<path d="M6601 5166 c-15 -18 -7 -34 25 -46 25 -10 33 -30 11 -30 -7 0 -18 5
-24 11 -7 7 -13 7 -17 1 -9 -15 20 -34 46 -30 34 5 37 44 4 60 -34 15 -34 32
0 24 19 -5 25 -3 22 6 -6 19 -53 22 -67 4z"/>
<path d="M6876 5164 c-30 -30 -8 -94 33 -94 21 0 52 20 46 30 -4 6 -14 5 -25
-2 -20 -13 -50 3 -50 27 0 24 30 40 50 27 22 -13 34 -4 19 15 -15 18 -54 17
-73 -3z"/>
<path d="M6996 5164 c-9 -8 -16 -26 -16 -38 0 -46 63 -74 90 -41 11 13 8 15
-20 13 -19 -2 -35 2 -37 10 -3 8 7 12 31 12 28 0 36 4 36 18 0 40 -54 57 -84
26z m59 -14 c4 -6 -5 -10 -19 -10 -14 0 -26 5 -26 10 0 6 9 10 19 10 11 0 23
-4 26 -10z"/>
<path d="M7110 5123 c0 -63 17 -72 22 -10 2 34 7 42 23 42 16 0 21 -8 23 -42
4 -56 22 -55 22 1 0 51 -13 65 -58 64 -32 -1 -32 -1 -32 -55z"/>
<path d="M7235 5160 c-40 -44 31 -119 73 -77 16 17 15 18 -17 15 -20 -2 -36 2
-38 10 -3 8 7 12 31 12 28 0 36 4 36 18 0 43 -54 56 -85 22z m60 -10 c4 -6 -5
-10 -19 -10 -14 0 -26 5 -26 10 0 6 9 10 19 10 11 0 23 -4 26 -10z"/>
<path d="M6480 5085 c0 -8 5 -15 10 -15 6 0 10 7 10 15 0 8 -4 15 -10 15 -5 0
-10 -7 -10 -15z"/>
<path d="M1802 4977 c10 -8 16 -16 13 -18 -2 -3 4 -5 13 -6 9 -1 33 -3 52 -5
19 -2 45 -9 58 -16 20 -11 22 -11 22 8 0 11 4 20 10 20 5 0 7 -6 4 -14 -4 -11
0 -13 15 -9 17 4 18 8 8 23 -6 11 -22 19 -37 18 -14 0 -59 3 -100 7 -65 5 -73
4 -58 -8z m63 -7 c3 -5 -1 -10 -10 -10 -9 0 -13 5 -10 10 3 6 8 10 10 10 2 0
7 -4 10 -10z"/>
<path d="M2268 4978 c9 -9 15 -9 24 0 9 9 7 12 -12 12 -19 0 -21 -3 -12 -12z"/>
<path d="M1750 4945 c0 -25 4 -34 12 -29 8 5 9 1 5 -14 -4 -12 -10 -31 -13
-43 -6 -19 -3 -20 94 -18 90 1 100 3 92 18 -10 18 -36 41 -76 68 -41 26 -25 0
24 -41 24 -20 41 -36 37 -36 -4 0 -29 18 -55 40 -26 22 -55 40 -64 40 -10 0
-15 4 -12 9 3 5 -5 16 -19 25 l-25 16 0 -35z"/>
<path d="M2089 4923 c12 -24 31 -39 31 -25 0 5 -10 17 -21 28 -22 19 -22 19
-10 -3z"/>
<path d="M2010 4900 c0 -5 5 -10 11 -10 5 0 7 5 4 10 -3 6 -8 10 -11 10 -2 0
-4 -4 -4 -10z"/>
<path d="M3883 4825 c0 -27 2 -38 4 -22 2 15 2 37 0 50 -2 12 -4 0 -4 -28z"/>
<path d="M3943 4825 c0 -27 2 -38 4 -22 2 15 2 37 0 50 -2 12 -4 0 -4 -28z"/>
<path d="M5903 4830 c0 -25 2 -35 4 -22 2 12 2 32 0 45 -2 12 -4 2 -4 -23z"/>
<path d="M7006 4857 c3 -10 9 -15 12 -12 3 3 0 11 -7 18 -10 9 -11 8 -5 -6z"/>
<path d="M2154 4853 c3 -4 17 -8 29 -10 17 -2 19 -1 7 7 -17 11 -47 14 -36 3z"/>
<path d="M4423 4815 c0 -22 2 -30 4 -17 2 12 2 30 0 40 -3 9 -5 -1 -4 -23z"/>
<path d="M5239 4812 c5 -34 6 -35 9 -8 2 16 0 32 -5 37 -5 5 -7 -7 -4 -29z"/>
<path d="M5473 4815 c0 -22 2 -30 4 -17 2 12 2 30 0 40 -3 9 -5 -1 -4 -23z"/>
<path d="M5555 4815 c0 -18 3 -31 8 -28 4 2 7 15 7 28 0 13 -3 26 -7 28 -5 3
-8 -10 -8 -28z"/>
<path d="M5593 4815 c0 -22 2 -30 4 -17 2 12 2 30 0 40 -3 9 -5 -1 -4 -23z"/>
<path d="M6273 4815 c0 -22 2 -30 4 -17 2 12 2 30 0 40 -3 9 -5 -1 -4 -23z"/>
<path d="M7173 4815 c0 -22 2 -30 4 -17 2 12 2 30 0 40 -3 9 -5 -1 -4 -23z"/>
<path d="M7303 4800 c0 -30 2 -43 4 -27 2 15 2 39 0 55 -2 15 -4 2 -4 -28z"/>
<path d="M7473 4815 c0 -22 2 -30 4 -17 2 12 2 30 0 40 -3 9 -5 -1 -4 -23z"/>
<path d="M3992 4810 c0 -19 2 -27 5 -17 2 9 2 25 0 35 -3 9 -5 1 -5 -18z"/>
<path d="M4608 4810 c-3 -16 -1 -30 4 -30 4 0 8 14 8 30 0 17 -2 30 -4 30 -2
0 -6 -13 -8 -30z"/>
<path d="M4811 4824 c0 -11 3 -14 6 -6 3 7 2 16 -1 19 -3 4 -6 -2 -5 -13z"/>
<path d="M5692 4810 c0 -19 2 -27 5 -17 2 9 2 25 0 35 -3 9 -5 1 -5 -18z"/>
<path d="M6352 4810 c0 -19 2 -27 5 -17 2 9 2 25 0 35 -3 9 -5 1 -5 -18z"/>
<path d="M6904 4813 c1 -19 5 -28 10 -23 6 6 5 18 -1 32 -10 21 -10 21 -9 -9z"/>
<path d="M1750 4781 c0 -30 5 -52 13 -55 10 -5 10 -7 0 -12 -7 -3 -13 -18 -13
-33 0 -30 27 -74 41 -66 12 8 56 -35 62 -60 3 -11 5 -1 6 23 1 31 -3 42 -14
42 -18 0 -19 14 -5 41 8 15 8 19 -2 17 -8 -2 -14 9 -16 27 -2 17 -10 34 -18
38 -21 12 -17 27 9 27 18 0 19 2 7 11 -12 8 -10 9 10 7 14 -1 31 2 39 6 10 6
12 5 7 -3 -4 -6 0 -14 8 -17 9 -3 16 -12 16 -20 0 -8 3 -13 8 -13 20 3 32 -2
32 -15 0 -9 7 -12 20 -9 11 3 20 1 20 -4 0 -5 16 -15 35 -23 24 -9 31 -16 23
-22 -7 -4 15 -7 50 -6 34 1 62 5 62 8 0 12 -94 58 -107 53 -7 -3 -13 1 -13 7
0 7 -19 32 -42 56 l-43 44 -97 0 -98 0 0 -49z m40 -111 c9 -17 8 -20 -10 -20
-13 0 -20 7 -20 20 0 11 4 20 10 20 5 0 14 -9 20 -20z"/>
<path d="M2540 4823 c-8 -3 -34 -14 -58 -25 -23 -10 -47 -16 -52 -13 -23 14
-7 -12 20 -34 17 -13 30 -30 30 -38 0 -10 6 -13 16 -9 13 5 15 1 12 -19 -5
-24 -3 -25 39 -25 31 0 42 3 37 12 -5 8 -2 9 12 3 10 -5 47 -11 82 -13 l64 -4
-3 41 c-2 22 0 43 4 47 4 4 7 11 7 15 0 13 -64 47 -103 54 l-39 8 2 -39 c3
-63 2 -72 -10 -54 -5 8 -7 22 -5 31 7 22 -12 69 -27 68 -7 0 -20 -3 -28 -6z
m137 -125 c-3 -7 -5 -2 -5 12 0 14 2 19 5 13 2 -7 2 -19 0 -25z"/>
<path d="M4071 4814 c0 -11 3 -14 6 -6 3 7 2 16 -1 19 -3 4 -6 -2 -5 -13z"/>
<path d="M4985 4820 l-30 -8 33 -1 c17 0 32 4 32 9 0 6 -1 9 -2 9 -2 -1 -16
-5 -33 -9z"/>
<path d="M5345 4820 l-30 -8 33 -1 c17 0 32 4 32 9 0 6 -1 9 -2 9 -2 -1 -16
-5 -33 -9z"/>
<path d="M6661 4814 c0 -11 3 -14 6 -6 3 7 2 16 -1 19 -3 4 -6 -2 -5 -13z"/>
<path d="M7501 4814 c0 -11 3 -14 6 -6 3 7 2 16 -1 19 -3 4 -6 -2 -5 -13z"/>
<path d="M4920 4811 c0 -7 -4 -9 -10 -6 -6 4 -7 -1 -3 -11 6 -15 7 -15 15 1 6
9 7 19 4 22 -3 4 -6 1 -6 -6z"/>
<path d="M5441 4794 c0 -11 3 -14 6 -6 3 7 2 16 -1 19 -3 4 -6 -2 -5 -13z"/>
<path d="M5790 4805 c0 -5 5 -17 10 -25 5 -8 10 -10 10 -5 0 6 -5 17 -10 25
-5 8 -10 11 -10 5z"/>
<path d="M6236 4793 c-6 -14 -5 -15 5 -6 7 7 10 15 7 18 -3 3 -9 -2 -12 -12z"/>
<path d="M2760 4731 c0 -29 2 -31 28 -26 15 3 21 2 13 -1 -11 -5 -8 -10 10
-21 l24 -13 -30 2 c-16 2 -33 7 -37 13 -5 6 -8 2 -8 -7 0 -16 14 -18 154 -18
148 0 184 7 160 30 -5 5 -47 16 -94 24 -99 19 -166 33 -197 42 -20 6 -23 3
-23 -25z"/>
<path d="M2474 4679 c-3 -6 -15 -9 -25 -6 -11 3 -19 1 -19 -4 0 -15 36 -10 50
6 7 8 10 15 7 15 -3 0 -9 -5 -13 -11z"/>
<path d="M1935 4670 c3 -5 14 -10 23 -10 15 0 15 2 2 10 -20 13 -33 13 -25 0z"/>
<path d="M5323 4625 c0 -27 2 -38 4 -22 2 15 2 37 0 50 -2 12 -4 0 -4 -28z"/>
<path d="M5923 4630 c0 -25 2 -35 4 -22 2 12 2 32 0 45 -2 12 -4 2 -4 -23z"/>
<path d="M6053 4630 c0 -25 2 -35 4 -22 2 12 2 32 0 45 -2 12 -4 2 -4 -23z"/>
<path d="M6683 4625 c0 -27 2 -38 4 -22 2 15 2 37 0 50 -2 12 -4 0 -4 -28z"/>
<path d="M7013 4625 c0 -27 2 -38 4 -22 2 15 2 37 0 50 -2 12 -4 0 -4 -28z"/>
<path d="M1713 4635 c0 -8 4 -12 9 -9 5 3 6 10 3 15 -9 13 -12 11 -12 -6z"/>
<path d="M2696 4633 c16 -12 16 -13 1 -13 -12 0 -17 -8 -16 -27 0 -25 1 -26 9
-8 8 18 9 18 10 -5 1 -14 4 -19 7 -12 2 6 11 12 19 12 8 0 14 3 14 8 0 4 3 17
6 28 5 19 1 22 -31 26 -33 4 -35 3 -19 -9z"/>
<path d="M3853 4615 c0 -22 2 -30 4 -17 2 12 2 30 0 40 -3 9 -5 -1 -4 -23z"/>
<path d="M3907 4643 c-11 -10 -8 -51 3 -58 5 -3 7 0 4 9 -4 10 3 16 23 19 l28
4 -29 2 c-21 1 -27 5 -22 16 6 16 3 19 -7 8z"/>
<path d="M4029 4612 c5 -34 6 -35 9 -8 2 16 0 32 -5 37 -5 5 -7 -7 -4 -29z"/>
<path d="M4157 4643 c-11 -10 -8 -51 3 -58 5 -3 7 0 4 9 -4 10 3 16 23 19 l28
4 -29 2 c-21 1 -27 5 -22 16 6 16 3 19 -7 8z"/>
<path d="M4323 4615 c0 -22 2 -30 4 -17 2 12 2 30 0 40 -3 9 -5 -1 -4 -23z"/>
<path d="M4405 4639 c-4 -6 -5 -12 -2 -15 2 -3 7 2 10 11 7 17 1 20 -8 4z"/>
<path d="M4683 4615 c0 -22 2 -30 4 -17 2 12 2 30 0 40 -3 9 -5 -1 -4 -23z"/>
<path d="M5513 4615 c0 -22 2 -30 4 -17 2 12 2 30 0 40 -3 9 -5 -1 -4 -23z"/>
<path d="M5559 4612 c5 -34 6 -35 9 -8 2 16 0 32 -5 37 -5 5 -7 -7 -4 -29z"/>
<path d="M5805 4639 c-4 -6 -5 -12 -2 -15 2 -3 7 2 10 11 7 17 1 20 -8 4z"/>
<path d="M6183 4615 c0 -22 2 -30 4 -17 2 12 2 30 0 40 -3 9 -5 -1 -4 -23z"/>
<path d="M6233 4615 c0 -22 2 -30 4 -17 2 12 2 30 0 40 -3 9 -5 -1 -4 -23z"/>
<path d="M7207 4643 c-9 -9 -9 -51 1 -56 4 -3 7 10 7 29 0 19 0 34 -1 34 0 0
-4 -3 -7 -7z"/>
<path d="M2103 4633 c9 -2 23 -2 30 0 6 3 -1 5 -18 5 -16 0 -22 -2 -12 -5z"/>
<path d="M2450 4630 c0 -5 5 -10 10 -10 6 0 10 5 10 10 0 6 -4 10 -10 10 -5 0
-10 -4 -10 -10z"/>
<path d="M2527 4629 c5 -5 8 -21 6 -33 -4 -18 -10 -23 -26 -19 -18 4 -19 3 -7
-6 13 -10 8 -15 -12 -12 -5 0 -8 -4 -8 -10 0 -5 -4 -7 -10 -4 -5 3 -10 1 -10
-4 0 -6 -9 -20 -20 -31 -13 -13 -15 -20 -7 -20 7 0 19 6 26 13 10 10 11 9 6
-5 -6 -14 -2 -18 15 -18 11 0 19 4 16 9 -3 5 1 14 9 21 8 7 12 17 8 24 -4 7
-1 7 7 -1 11 -10 11 -15 0 -28 -11 -13 -9 -15 14 -15 14 0 26 5 26 11 0 6 7 3
16 -5 8 -9 20 -14 25 -10 5 3 8 0 7 -8 -2 -7 3 -12 10 -10 15 3 16 -20 0 -36
-17 -17 -31 -15 -24 3 3 8 1 15 -4 15 -6 0 -10 -7 -10 -15 0 -8 -5 -15 -11
-15 -6 0 -8 9 -4 20 6 18 2 20 -24 18 -17 -1 -30 -7 -28 -13 2 -5 11 -9 20 -9
8 1 18 -7 20 -17 4 -15 2 -17 -13 -9 -25 14 -30 13 -30 -6 0 -10 6 -14 15 -11
19 8 30 -10 16 -27 -8 -9 -7 -13 4 -13 8 0 12 3 10 7 -10 15 17 35 49 35 19 0
33 -2 30 -4 -2 -2 5 -16 15 -30 10 -14 16 -31 14 -36 -2 -6 6 -11 17 -11 11 0
20 5 20 11 0 5 5 3 10 -5 5 -8 10 -24 10 -35 -1 -19 -1 -19 -19 2 -10 12 -21
19 -25 16 -11 -11 -6 -23 10 -23 8 0 13 -4 9 -9 -11 -19 13 -20 33 -1 26 25
27 25 29 -2 3 -23 10 -78 13 -88 0 -3 6 3 13 12 22 28 40 3 39 -56 -1 -26 0
-27 14 -10 10 13 14 14 11 4 -5 -15 28 -79 47 -92 6 -4 7 -8 2 -8 -6 0 -1 -7
10 -16 19 -15 19 -16 -1 -9 -16 5 -18 4 -7 -6 6 -7 12 -17 12 -22 0 -4 -6 -5
-12 -1 -9 5 -9 2 1 -9 16 -20 25 -23 15 -4 -5 8 -4 9 3 2 5 -5 18 -31 27 -57
10 -27 22 -48 28 -48 6 0 8 -9 5 -20 -3 -12 -1 -18 5 -14 13 8 6 -39 -7 -48
-12 -8 -7 -13 23 -22 28 -9 29 8 3 84 -33 100 -35 116 -11 140 21 21 23 43 8
90 -3 8 -3 12 -1 7 3 -4 9 -5 14 -1 5 3 9 -10 9 -28 l1 -33 49 54 c28 30 49
55 48 57 -2 1 -25 0 -51 -3 -37 -4 -47 -9 -42 -21 4 -12 1 -12 -19 2 -28 18
-86 22 -86 6 0 -27 -21 -3 -59 68 -23 43 -59 100 -79 127 -36 48 -74 118 -72
131 1 4 -4 11 -12 15 -9 6 -15 2 -20 -14 -5 -17 -6 -14 -7 14 -1 27 -8 40 -31
57 -16 12 -34 22 -40 22 -14 0 -13 13 4 35 9 12 19 16 32 12 18 -7 18 -6 -1 9
-20 16 -20 16 2 11 28 -6 39 19 13 33 -26 14 -138 14 -123 -1z m-33 -103 c-3
-8 -12 -12 -21 -9 -12 5 -12 7 -1 14 20 13 28 11 22 -5z m351 -366 c3 -5 1
-10 -4 -10 -6 0 -11 5 -11 10 0 6 2 10 4 10 3 0 8 -4 11 -10z"/>
<path d="M2762 4596 c4 -34 1 -47 -13 -60 -17 -14 -19 -14 -27 1 -6 9 -12 12
-16 5 -3 -5 1 -13 10 -16 12 -4 14 -14 9 -36 l-7 -30 124 0 c85 0 128 4 137
13 11 10 13 10 7 0 -5 -9 3 -13 28 -13 38 0 45 -10 22 -29 -8 -6 -11 -22 -8
-37 4 -20 1 -25 -9 -22 -8 3 -15 10 -15 16 -3 25 2 27 -65 -30 -13 -10 -16
-19 -9 -23 5 -3 10 -12 10 -18 0 -7 -4 -6 -10 3 -8 12 -10 12 -16 -4 -4 -10
-2 -21 5 -26 10 -5 9 -11 -3 -23 -15 -14 -14 -17 10 -36 15 -12 33 -21 42 -21
10 0 13 -7 10 -25 -4 -19 -1 -25 13 -25 9 0 20 6 22 13 4 8 6 6 6 -4 1 -10 10
-16 29 -16 15 0 40 -3 55 -7 26 -6 27 -5 27 39 0 28 -4 44 -10 40 -5 -3 -10
-2 -10 4 0 5 5 13 10 16 12 7 14 375 3 375 -5 0 -33 -26 -63 -58 -55 -59 -50
-46 8 18 23 25 28 37 20 47 -12 15 -98 18 -98 3 0 -12 -22 -9 -32 5 -5 6 -8 4
-8 -5 0 -13 -2 -13 -9 -1 -8 13 -12 13 -27 0 -11 -9 -15 -9 -10 -1 5 9 -11 12
-70 12 l-77 0 5 -44z m358 -166 c0 -5 -4 -10 -9 -10 -6 0 -13 5 -16 10 -3 6 1
10 9 10 9 0 16 -4 16 -10z m-77 -130 c-3 -11 -12 -20 -19 -20 -20 0 -17 28 4
33 9 3 18 5 19 6 0 0 -1 -8 -4 -19z m-58 -30 c3 -5 2 -10 -4 -10 -5 0 -13 5
-16 10 -3 6 -2 10 4 10 5 0 13 -4 16 -10z m115 -29 c0 -11 -31 -24 -38 -16 -3
3 0 5 7 5 7 0 9 5 6 10 -3 6 1 10 9 10 9 0 16 -4 16 -9z m-30 -67 c0 -8 -4
-12 -10 -9 -5 3 -10 10 -10 16 0 5 5 9 10 9 6 0 10 -7 10 -16z m30 0 c0 -8 -4
-12 -10 -9 -5 3 -10 10 -10 16 0 5 5 9 10 9 6 0 10 -7 10 -16z"/>
<path d="M4452 4603 c-2 -35 -6 -42 -24 -46 l-23 -4 23 -2 c27 -1 35 15 29 61
-3 30 -4 30 -5 -9z"/>
<path d="M6312 4610 c0 -19 2 -27 5 -17 2 9 2 25 0 35 -3 9 -5 1 -5 -18z"/>
<path d="M2278 4612 c9 -10 19 -14 21 -9 2 5 -3 13 -10 18 -24 15 -30 10 -11
-9z"/>
<path d="M4061 4614 c0 -11 3 -14 6 -6 3 7 2 16 -1 19 -3 4 -6 -2 -5 -13z"/>
<path d="M4617 4619 c7 -7 15 -10 18 -7 3 3 -2 9 -12 12 -14 6 -15 5 -6 -5z"/>
<path d="M6151 4614 c0 -11 3 -14 6 -6 3 7 2 16 -1 19 -3 4 -6 -2 -5 -13z"/>
<path d="M1870 4576 c0 -25 5 -48 10 -51 6 -3 10 1 10 10 0 9 5 13 10 10 6 -4
8 -11 5 -16 -4 -5 8 -9 24 -9 17 0 31 -3 30 -7 -1 -5 2 -18 6 -30 6 -18 15
-23 40 -23 18 0 36 6 38 13 4 9 8 9 14 0 6 -8 13 -8 26 2 16 12 15 13 -10 20
-15 5 -36 10 -45 11 -10 2 -27 13 -38 24 -12 12 -25 18 -31 14 -6 -3 -13 2
-15 12 -3 11 -21 29 -40 42 l-34 22 0 -44z m145 -86 c3 -5 -1 -10 -9 -10 -9 0
-16 5 -16 10 0 6 4 10 9 10 6 0 13 -4 16 -10z"/>
<path d="M3151 4483 l1 -138 23 49 c34 70 40 133 20 184 -10 23 -23 42 -31 42
-11 0 -13 -28 -13 -137z"/>
<path d="M2216 4593 c-6 -14 -5 -15 5 -6 7 7 10 15 7 18 -3 3 -9 -2 -12 -12z"/>
<path d="M4403 4600 c2 -8 12 -16 23 -17 13 -2 15 -1 4 4 -8 3 -19 11 -23 17
-6 7 -7 6 -4 -4z"/>
<path d="M4646 4593 c-6 -14 -5 -15 5 -6 7 7 10 15 7 18 -3 3 -9 -2 -12 -12z"/>
<path d="M4996 4597 c3 -10 9 -15 12 -12 3 3 0 11 -7 18 -10 9 -11 8 -5 -6z"/>
<path d="M6805 4599 c-4 -6 -5 -12 -2 -15 2 -3 7 2 10 11 7 17 1 20 -8 4z"/>
<path d="M4530 4590 c0 -5 5 -10 11 -10 5 0 7 5 4 10 -3 6 -8 10 -11 10 -2 0
-4 -4 -4 -10z"/>
<path d="M2330 4571 c10 -7 11 -11 3 -11 -15 0 -18 -56 -3 -65 6 -4 10 8 10
29 0 20 0 39 1 43 0 4 -5 9 -13 11 -9 2 -8 0 2 -7z"/>
<path d="M2061 4534 c0 -11 3 -14 6 -6 3 7 2 16 -1 19 -3 4 -6 -2 -5 -13z"/>
<path d="M2287 4538 c-2 -7 -1 -22 4 -33 6 -16 8 -14 8 13 1 33 -4 41 -12 20z"/>
<path d="M2414 4530 c2 -16 20 -14 24 2 3 10 2 10 -6 -1 -7 -9 -11 -10 -15 -2
-4 7 -5 8 -3 1z"/>
<path d="M1751 4491 c-1 -37 0 -38 19 -2 6 13 7 21 2 17 -6 -3 -13 0 -15 6 -3
7 -6 -2 -6 -21z"/>
<path d="M2211 4510 c-1 -9 4 -21 11 -28 15 -15 42 -16 33 -2 -4 6 -11 8 -16
5 -5 -4 -13 4 -18 17 -6 14 -10 17 -10 8z"/>
<path d="M2390 4503 c5 -2 8 -9 5 -14 -10 -14 14 -49 34 -49 10 0 26 -9 36
-20 22 -24 31 -25 39 -4 4 12 2 15 -9 10 -9 -3 -15 0 -15 10 0 8 4 12 10 9 6
-4 7 1 3 11 -4 11 -8 13 -11 6 -4 -14 -32 -16 -32 -2 0 6 -11 10 -25 10 -19 0
-25 5 -23 16 2 10 -3 18 -10 20 -7 1 -8 0 -2 -3z"/>
<path d="M1870 4491 c0 -5 7 -14 16 -22 13 -10 17 -10 24 1 6 9 4 17 -3 22
-16 10 -37 10 -37 -1z"/>
<path d="M1851 4474 c0 -11 3 -14 6 -6 3 7 2 16 -1 19 -3 4 -6 -2 -5 -13z"/>
<path d="M1698 4463 c6 -2 18 -2 25 0 6 3 1 5 -13 5 -14 0 -19 -2 -12 -5z"/>
<path d="M2160 4459 c0 -5 5 -7 10 -4 6 3 10 8 10 11 0 2 -4 4 -10 4 -5 0 -10
-5 -10 -11z"/>
<path d="M2348 4463 c6 -2 18 -2 25 0 6 3 1 5 -13 5 -14 0 -19 -2 -12 -5z"/>
<path d="M7023 4430 c0 -25 2 -35 4 -22 2 12 2 32 0 45 -2 12 -4 2 -4 -23z"/>
<path d="M2365 4440 c-3 -6 1 -7 9 -4 18 7 21 14 7 14 -6 0 -13 -4 -16 -10z"/>
<path d="M4120 4421 c0 -17 4 -32 8 -35 4 -2 6 11 4 30 -5 42 -12 45 -12 5z"/>
<path d="M4783 4415 c0 -22 2 -30 4 -17 2 12 2 30 0 40 -3 9 -5 -1 -4 -23z"/>
<path d="M4829 4412 c5 -34 6 -35 9 -8 2 16 0 32 -5 37 -5 5 -7 -7 -4 -29z"/>
<path d="M5313 4400 c0 -30 2 -43 4 -27 2 15 2 39 0 55 -2 15 -4 2 -4 -28z"/>
<path d="M5483 4415 c0 -22 2 -30 4 -17 2 12 2 30 0 40 -3 9 -5 -1 -4 -23z"/>
<path d="M5565 4439 c-4 -6 -5 -12 -2 -15 2 -3 7 2 10 11 7 17 1 20 -8 4z"/>
<path d="M6293 4415 c0 -22 2 -30 4 -17 2 12 2 30 0 40 -3 9 -5 -1 -4 -23z"/>
<path d="M6325 4439 c-4 -6 -5 -12 -2 -15 2 -3 7 2 10 11 7 17 1 20 -8 4z"/>
<path d="M7512 4410 c0 -19 2 -27 5 -17 2 9 2 25 0 35 -3 9 -5 1 -5 -18z"/>
<path d="M1680 4426 c0 -9 30 -14 35 -6 4 6 -3 10 -14 10 -12 0 -21 -2 -21 -4z"/>
<path d="M2095 4413 c3 -8 5 -18 6 -21 0 -4 4 2 9 13 8 19 8 19 18 -5 6 -14
11 -18 11 -10 1 22 -12 37 -32 37 -11 0 -16 -6 -12 -14z"/>
<path d="M2167 4410 c3 -11 7 -20 9 -20 2 0 4 9 4 20 0 11 -4 20 -9 20 -5 0
-7 -9 -4 -20z"/>
<path d="M2190 4420 c0 -5 4 -10 9 -10 6 0 13 5 16 10 3 6 -1 10 -9 10 -9 0
-16 -4 -16 -10z"/>
<path d="M2401 4423 c3 -18 -1 -36 -7 -30 -3 3 -16 -3 -27 -14 -12 -11 -27
-17 -34 -15 -7 3 -13 -1 -13 -9 0 -7 -4 -16 -9 -20 -6 -3 -8 4 -6 16 6 30 -4
42 -21 28 -9 -7 -11 -16 -5 -23 5 -6 10 -15 11 -21 6 -36 18 -37 64 -1 26 20
54 36 62 36 13 0 19 -20 14 -45 -1 -5 4 -5 10 1 9 9 9 17 1 32 -9 17 -8 23 6
31 17 9 17 11 -1 28 -18 17 -19 17 -12 -2 6 -19 5 -19 -8 -2 -14 18 -27 23
-25 10z"/>
<path d="M4091 4414 c0 -11 3 -14 6 -6 3 7 2 16 -1 19 -3 4 -6 -2 -5 -13z"/>
<path d="M4861 4414 c0 -11 3 -14 6 -6 3 7 2 16 -1 19 -3 4 -6 -2 -5 -13z"/>
<path d="M5451 4414 c0 -11 3 -14 6 -6 3 7 2 16 -1 19 -3 4 -6 -2 -5 -13z"/>
<path d="M5532 4405 c0 -16 2 -22 5 -12 2 9 2 23 0 30 -3 6 -5 -1 -5 -18z"/>
<path d="M5740 4414 c0 -8 5 -12 10 -9 6 4 8 11 5 16 -9 14 -15 11 -15 -7z"/>
<path d="M6110 4420 l-35 -7 32 -2 c17 0 35 4 38 9 3 6 5 9 3 9 -2 -1 -19 -5
-38 -9z"/>
<path d="M6195 4420 l-30 -8 33 -1 c17 0 32 4 32 9 0 6 -1 9 -2 9 -2 -1 -16
-5 -33 -9z"/>
<path d="M7351 4414 c0 -11 3 -14 6 -6 3 7 2 16 -1 19 -3 4 -6 -2 -5 -13z"/>
<path d="M1977 4398 c-17 -18 -16 -19 8 -28 34 -13 45 -12 22 1 -14 8 -15 14
-7 24 17 21 -3 24 -23 3z"/>
<path d="M5580 4416 c0 -2 7 -7 16 -10 8 -3 12 -2 9 4 -6 10 -25 14 -25 6z"/>
<path d="M6340 4416 c0 -2 7 -7 16 -10 8 -3 12 -2 9 4 -6 10 -25 14 -25 6z"/>
<path d="M5276 4393 c-6 -14 -5 -15 5 -6 7 7 10 15 7 18 -3 3 -9 -2 -12 -12z"/>
<path d="M6935 4399 c-4 -6 -5 -12 -2 -15 2 -3 7 2 10 11 7 17 1 20 -8 4z"/>
<path d="M7300 4389 c0 -5 5 -7 10 -4 6 3 10 8 10 11 0 2 -4 4 -10 4 -5 0 -10
-5 -10 -11z"/>
<path d="M2490 4382 c0 -5 7 -13 16 -16 10 -4 14 -1 12 6 -5 15 -28 23 -28 10z"/>
<path d="M2050 4373 c0 -6 8 -17 18 -24 16 -13 16 -13 2 6 -8 11 -16 22 -17
24 -2 2 -3 0 -3 -6z"/>
<path d="M2615 4360 c2 -11 0 -20 -6 -20 -5 0 -9 7 -9 15 0 8 -7 15 -16 15
-12 0 -14 -4 -6 -12 5 -7 12 -28 14 -45 4 -32 3 -33 -29 -30 -18 1 -33 5 -33
10 0 7 16 11 33 8 4 0 7 4 7 9 0 6 -2 10 -5 10 -11 0 -55 -24 -55 -31 0 -4
-15 -5 -32 -2 l-33 4 23 -16 c22 -16 22 -18 5 -32 -16 -13 -16 -14 -1 -9 12 3
15 1 11 -10 -3 -8 -12 -13 -19 -10 -8 3 -14 1 -14 -4 0 -6 4 -10 9 -10 11 0 9
-19 -3 -39 -5 -8 -4 -16 4 -21 16 -10 1 -18 -27 -15 -13 1 -23 -2 -23 -7 0 -4
7 -8 16 -8 8 0 12 -4 9 -10 -3 -5 -1 -18 5 -29 8 -16 6 -21 -11 -26 -12 -4
-18 -12 -15 -21 3 -9 -1 -14 -12 -14 -15 0 -15 -2 -2 -10 13 -9 13 -12 -2 -24
-10 -7 -18 -21 -18 -30 0 -11 -5 -15 -12 -10 -10 6 -10 4 0 -7 17 -18 15 -27
-5 -25 -10 0 -18 -6 -19 -14 -3 -36 -4 -41 -13 -36 -8 5 -36 -42 -33 -57 1 -4
-5 -10 -13 -13 -8 -4 -15 -11 -15 -17 0 -5 9 -2 20 8 11 10 18 20 15 23 -3 3
4 11 15 19 20 14 119 154 151 213 13 23 19 28 19 16 0 -15 3 -16 14 -7 10 8
16 9 21 1 3 -6 11 -7 17 -4 7 4 8 2 4 -5 -4 -6 -13 -9 -19 -5 -7 3 -3 -2 7
-10 11 -9 28 -14 38 -10 10 3 18 1 18 -5 0 -6 -6 -11 -12 -11 -9 0 -8 -3 2
-10 12 -7 12 -12 2 -22 -10 -10 -15 -10 -22 2 -7 12 -9 10 -7 -7 0 -12 5 -19
9 -17 4 3 8 -4 8 -15 0 -13 15 -29 45 -47 52 -30 64 -26 48 16 -6 17 -7 30 -2
30 12 0 12 147 -1 155 -5 3 -10 -3 -10 -14 0 -28 -15 -26 -88 9 l-61 29 14 48
c8 27 15 49 15 50 0 1 7 0 17 -4 13 -5 15 -1 10 24 -5 28 -4 30 24 31 59 2
130 -97 134 -185 2 -50 1 -54 -17 -50 -19 5 -20 1 -16 -105 2 -75 7 -113 15
-115 7 -3 9 -11 6 -20 -4 -11 -1 -14 13 -11 10 2 19 10 20 18 2 35 5 41 14 35
6 -4 8 -11 5 -16 -3 -5 1 -6 9 -3 19 7 21 21 5 26 -9 3 -8 14 2 41 8 24 16 33
21 24 5 -8 10 -9 18 -1 10 10 -13 98 -31 119 -15 15 -10 28 7 21 14 -5 15 -4
4 9 -7 8 -16 13 -20 10 -4 -2 -4 10 -1 28 5 21 13 32 24 31 9 -1 14 2 11 7 -3
5 -11 9 -18 9 -18 0 -76 51 -76 66 0 8 -4 14 -10 14 -14 0 -12 27 3 33 9 4 9
6 0 6 -6 1 -15 -3 -18 -9 -3 -6 -16 0 -28 13 -12 13 -30 21 -39 19 -12 -2 -16
3 -15 18 1 16 7 20 27 17 14 -2 19 -2 11 1 -12 3 -12 5 0 14 10 7 5 8 -16 4
-28 -6 -29 -5 -11 9 10 8 23 12 28 9 4 -3 3 6 -4 20 -13 31 -28 34 -23 6z
m155 -250 c0 -5 -4 -10 -10 -10 -5 0 -10 5 -10 10 0 6 5 10 10 10 6 0 10 -4
10 -10z m-22 -275 c-3 -3 -9 2 -12 12 -6 14 -5 15 5 6 7 -7 10 -15 7 -18z
m-18 -19 c0 -11 -19 -15 -25 -6 -3 5 1 10 9 10 9 0 16 -2 16 -4z"/>
<path d="M2485 4349 c-4 -6 -5 -12 -2 -15 2 -3 7 2 10 11 7 17 1 20 -8 4z"/>
<path d="M2262 4330 c0 -14 2 -19 5 -12 2 6 2 18 0 25 -3 6 -5 1 -5 -13z"/>
<path d="M2262 4293 c-38 -42 -23 -62 16 -20 12 12 18 28 14 34 -5 8 -14 4
-30 -14z"/>
<path d="M3151 4240 c0 -74 0 -75 14 -41 18 41 18 59 0 91 -13 23 -14 20 -14
-50z"/>
<path d="M2308 4263 c7 -3 16 -2 19 1 4 3 -2 6 -13 5 -11 0 -14 -3 -6 -6z"/>
<path d="M2736 4235 c4 -8 10 -15 15 -15 4 0 6 7 3 15 -4 8 -10 15 -15 15 -4
0 -6 -7 -3 -15z"/>
<path d="M2752 4156 c7 -8 15 -12 17 -11 5 6 -10 25 -20 25 -5 0 -4 -6 3 -14z"/>
<path d="M2963 4143 c9 -2 23 -2 30 0 6 3 -1 5 -18 5 -16 0 -22 -2 -12 -5z"/>
<path d="M2395 4089 c-4 -6 -5 -12 -2 -15 2 -3 7 2 10 11 7 17 1 20 -8 4z"/>
<path d="M3947 4082 c-9 -2 -15 -7 -12 -12 6 -10 -22 -40 -38 -40 -7 0 -3 7 7
15 17 13 17 15 3 15 -25 0 -51 -45 -38 -67 6 -10 11 -12 11 -5 0 18 75 16 90
-3 10 -12 10 -15 0 -15 -9 0 -8 -7 4 -25 9 -13 16 -28 16 -32 0 -4 -5 0 -11
11 -9 15 -13 16 -21 5 -8 -11 -9 -11 -5 2 4 13 1 15 -14 12 -12 -3 -18 -11
-15 -19 3 -8 -1 -14 -8 -14 -9 0 -12 -9 -9 -27 3 -23 2 -24 -5 -9 -8 19 -9 19
-14 -1 -8 -30 7 -50 48 -63 45 -15 111 -5 144 21 21 18 25 32 32 102 6 79 6
83 -19 109 -38 40 -85 53 -146 40z m53 -31 c0 -4 -9 -7 -19 -8 -13 -1 -18 3
-15 12 5 13 34 10 34 -4z m-10 -41 c0 -5 -4 -10 -10 -10 -5 0 -10 5 -10 10 0
6 5 10 10 10 6 0 10 -4 10 -10z m-35 -160 c3 -6 -1 -7 -9 -4 -18 7 -21 14 -7
14 6 0 13 -4 16 -10z"/>
<path d="M2260 4052 c0 -5 -11 -15 -25 -22 -15 -8 -23 -20 -21 -27 3 -8 0 -16
-8 -19 -7 -3 -13 -12 -13 -20 0 -9 15 -1 39 23 50 48 65 73 43 73 -8 0 -15 -4
-15 -8z"/>
<path d="M2687 4053 c-11 -11 -8 -20 7 -20 8 0 12 6 9 14 -6 15 -7 15 -16 6z"/>
<path d="M2827 4039 c7 -7 15 -10 18 -7 3 3 -2 9 -12 12 -14 6 -15 5 -6 -5z"/>
<path d="M4240 4000 c0 -46 2 -50 23 -50 26 0 57 28 57 52 0 21 -33 48 -58 48
-20 0 -22 -5 -22 -50z m44 34 c21 -8 21 -60 0 -68 -23 -9 -34 2 -34 33 0 38 7
45 34 35z"/>
<path d="M4527 4043 c-11 -10 -8 -81 3 -88 6 -3 10 3 10 14 0 27 14 27 31 0
13 -19 14 -18 15 23 1 23 -3 46 -10 50 -14 10 -41 10 -49 1z m42 -12 c16 -10
6 -31 -15 -31 -8 0 -14 9 -14 20 0 22 7 25 29 11z"/>
<path d="M4691 4004 c-1 -49 0 -51 27 -50 23 1 27 5 27 31 0 23 -5 31 -22 33
-12 2 -24 11 -26 20 -3 9 -5 -6 -6 -34z m47 -16 c-2 -13 -10 -23 -18 -23 -8 0
-16 10 -18 23 -3 17 2 22 18 22 16 0 21 -5 18 -22z"/>
<path d="M4349 4019 c-10 -6 -8 -9 11 -10 l25 -1 -28 -11 c-35 -14 -32 -42 6
-43 24 -1 27 2 27 31 0 35 -17 49 -41 34z m26 -49 c-3 -5 -10 -10 -16 -10 -5
0 -9 5 -9 10 0 6 7 10 16 10 8 0 12 -4 9 -10z"/>
<path d="M4616 4014 c-20 -19 -20 -25 -2 -50 12 -15 18 -17 33 -8 26 16 28 50
4 63 -15 8 -23 7 -35 -5z m39 -29 c0 -28 -29 -25 -33 3 -3 19 0 23 15 20 10
-2 18 -12 18 -23z"/>
<path d="M4890 4020 c-16 -10 -6 -40 15 -40 8 0 15 -5 15 -11 0 -6 -9 -8 -21
-4 -15 5 -19 4 -15 -4 10 -15 31 -14 45 3 10 12 7 18 -16 31 -24 14 -24 15 -5
12 12 -3 22 -2 22 3 0 12 -25 19 -40 10z"/>
<path d="M4411 3983 c1 -36 2 -37 8 -8 3 17 13 30 21 30 8 0 18 -13 22 -30 6
-29 6 -29 5 5 -2 30 -6 35 -29 38 -26 3 -28 1 -27 -35z"/>
<path d="M4773 3985 c0 -22 2 -30 4 -17 2 12 2 30 0 40 -3 9 -5 -1 -4 -23z"/>
<path d="M4800 3984 c0 -21 4 -33 10 -29 6 3 10 17 10 31 0 37 28 30 33 -8 4
-32 4 -32 5 5 2 35 0 37 -28 37 -28 0 -30 -3 -30 -36z"/>
<path d="M4957 4014 c-15 -16 -7 -53 14 -59 27 -9 42 6 37 36 -3 24 -36 38
-51 23z m43 -23 c0 -11 -5 -23 -11 -27 -15 -9 -33 12 -26 30 9 23 37 20 37 -3z"/>
<path d="M5032 3983 c1 -37 1 -37 5 -5 6 42 40 46 46 5 4 -26 4 -26 3 2 -1 25
-6 31 -28 33 -26 3 -28 1 -26 -35z"/>
<path d="M2147 3930 c-16 -16 -33 -30 -38 -30 -6 0 -8 -4 -4 -9 3 -6 -9 -25
-27 -44 -39 -39 -68 -75 -68 -82 0 -16 39 -1 48 19 6 13 36 54 67 91 57 67 74
111 22 55z"/>
<path d="M2885 3930 c-3 -6 1 -7 9 -4 18 7 21 14 7 14 -6 0 -13 -4 -16 -10z"/>
<path d="M2795 3859 c-4 -6 -5 -12 -2 -15 2 -3 7 2 10 11 7 17 1 20 -8 4z"/>
<path d="M2760 3770 c0 -5 5 -10 10 -10 6 0 10 5 10 10 0 6 -4 10 -10 10 -5 0
-10 -4 -10 -10z"/>
<path d="M1029 3391 l-24 -19 -3 -611 -2 -610 152 -4 153 -3 -152 -2 -153 -2
0 -129 c0 -112 3 -132 19 -152 l19 -24 1256 -3 1256 -2 25 24 c24 25 25 29 25
179 0 171 2 166 -68 168 -20 0 -46 4 -57 9 -12 5 4 6 43 3 59 -6 64 -4 62 13
-6 55 2 207 10 189 8 -18 9 -18 9 5 1 14 -6 36 -15 49 -14 19 -14 25 -3 31 10
7 10 12 1 23 -7 7 -8 18 -4 22 4 5 2 5 -5 1 -6 -3 -18 2 -25 12 -7 10 -26 23
-43 29 -22 7 -30 16 -30 34 0 13 -4 30 -9 38 -7 11 -5 13 6 8 12 -4 18 3 23
26 4 18 9 34 10 37 1 3 5 17 9 33 5 15 12 27 18 27 5 0 6 5 3 10 -3 6 -1 10 4
10 6 0 11 -7 11 -16 0 -8 5 -12 10 -9 6 4 8 11 5 16 -4 5 3 9 14 9 19 0 21 6
21 53 0 51 -1 52 -38 69 l-37 16 38 1 37 1 0 204 c0 186 -2 206 -19 227 l-19
24 -1255 3 c-1225 2 -1255 2 -1278 -17z m2303 -358 c0 -16 2 -39 4 -53 9 -99
4 -169 -15 -222 -22 -60 -27 -142 -11 -168 6 -9 7 5 3 42 -6 57 10 123 27 113
5 -3 6 3 3 14 -10 38 109 138 155 129 11 -2 1 -13 -31 -33 -27 -17 -63 -52
-81 -80 -32 -48 -34 -55 -39 -168 l-6 -119 44 -44 c25 -24 41 -44 36 -44 -5 0
-25 18 -45 40 -20 22 -37 40 -39 40 -6 0 0 -86 8 -110 7 -23 6 -24 -10 -10
-16 13 -17 9 -14 -60 l4 -75 -35 -5 -35 -5 -6 -118 c-3 -64 -8 -119 -10 -121
-3 -3 -11 -1 -19 4 -13 8 -15 58 -15 330 0 176 3 320 8 320 4 0 7 66 8 148 0
81 4 170 8 197 l7 50 12 -53 c7 -29 13 -65 13 -80 1 -15 5 5 9 45 5 57 11 77
28 91 12 11 19 22 15 26 -3 3 -1 6 5 6 7 0 13 -12 14 -27z m123 -116 c-11 -7
-37 -29 -59 -49 -44 -43 -54 -48 -32 -15 18 25 86 76 101 76 6 0 1 -6 -10 -12z
m-343 -478 c-4 -233 -5 -432 0 -441 6 -13 4 -16 -12 -15 -11 1 -22 7 -24 14
-4 9 19 853 25 908 0 6 5 -2 10 -16 6 -17 7 -182 1 -450z m95 314 c-3 -10 -5
-4 -5 12 0 17 2 24 5 18 2 -7 2 -21 0 -30z m0 -85 c-2 -13 -4 -3 -4 22 0 25 2
35 4 23 2 -13 2 -33 0 -45z m258 -118 c-3 -5 -14 -10 -23 -10 -15 0 -15 2 -2
10 20 13 33 13 25 0z m-1948 -126 c-3 -3 -12 -4 -19 -1 -8 3 -5 6 6 6 11 1 17
-2 13 -5z m-40 -40 c-3 -3 -12 -4 -19 -1 -8 3 -5 6 6 6 11 1 17 -2 13 -5z
m2038 -101 c3 -18 2 -34 -4 -38 -7 -4 -11 6 -11 27 0 18 -7 46 -15 62 -21 40
-18 47 4 11 10 -16 22 -44 26 -62z m-1922 40 c-7 -2 -19 -2 -25 0 -7 3 -2 5
12 5 14 0 19 -2 13 -5z m-402 -44 c17 -12 42 -24 56 -28 14 -4 33 -17 41 -29
l14 -22 -126 0 c-107 0 -126 2 -126 15 0 22 27 72 42 78 29 12 72 6 99 -14z
m299 7 c0 -2 -7 -6 -15 -10 -8 -3 -15 -1 -15 4 0 6 7 10 15 10 8 0 15 -2 15
-4z m1567 -183 c-2 -21 -4 -6 -4 32 0 39 2 55 4 38 2 -18 2 -50 0 -70z m-1599
10 c-16 -2 -40 -2 -55 0 -16 2 -3 4 27 4 30 0 43 -2 28 -4z m-15 -30 c-13 -2
-33 -2 -45 0 -13 2 -3 4 22 4 25 0 35 -2 23 -4z m75 0 c-10 -2 -26 -2 -35 0
-10 3 -2 5 17 5 19 0 27 -2 18 -5z m85 0 c-7 -2 -19 -2 -25 0 -7 3 -2 5 12 5
14 0 19 -2 13 -5z m-170 -70 c-7 -2 -21 -2 -30 0 -10 3 -4 5 12 5 17 0 24 -2
18 -5z m75 0 c-10 -2 -28 -2 -40 0 -13 2 -5 4 17 4 22 1 32 -1 23 -4z m-75
-30 c-7 -2 -21 -2 -30 0 -10 3 -4 5 12 5 17 0 24 -2 18 -5z m60 0 c-7 -2 -21
-2 -30 0 -10 3 -4 5 12 5 17 0 24 -2 18 -5z m104 -29 c-3 -3 -12 -4 -19 -1 -8
3 -5 6 6 6 11 1 17 -2 13 -5z m-162 -74 c-3 -5 -12 -10 -18 -10 -7 0 -6 4 3
10 19 12 23 12 15 0z m25 -22 c0 -7 -12 -14 -27 -15 l-28 -1 25 14 c31 17 30
17 30 2z"/>
<path d="M3252 2430 c0 -19 2 -27 5 -17 2 9 2 25 0 35 -3 9 -5 1 -5 -18z"/>
<path d="M3871 3294 c-28 -35 -26 -69 4 -99 27 -28 62 -32 91 -11 15 12 17 17
7 27 -9 9 -13 9 -13 2 0 -18 -37 -25 -60 -13 -25 13 -28 71 -4 91 12 10 22 10
47 1 37 -14 50 -6 23 14 -31 23 -72 17 -95 -12z"/>
<path d="M4220 3297 c0 -20 -4 -23 -29 -19 -23 3 -33 -2 -47 -23 -16 -25 -16
-30 -3 -54 12 -21 23 -26 57 -27 l42 -2 0 74 c0 43 -4 74 -10 74 -5 0 -10 -10
-10 -23z m-2 -69 c2 -19 -2 -28 -17 -33 -27 -8 -41 1 -41 29 0 29 9 38 35 34
13 -2 21 -12 23 -30z"/>
<path d="M4440 3305 c-19 -23 -7 -49 30 -66 37 -18 46 -42 19 -47 -9 -2 -24 4
-32 13 -11 11 -18 12 -23 4 -17 -28 59 -52 84 -27 24 24 14 56 -23 69 -22 8
-35 20 -35 31 0 21 30 24 48 6 6 -6 15 -8 19 -4 11 11 -26 36 -53 36 -12 0
-27 -7 -34 -15z"/>
<path d="M5230 3304 c0 -17 22 -14 28 4 2 7 -3 12 -12 12 -9 0 -16 -7 -16 -16z"/>
<path d="M5580 3293 c-15 -17 -19 -28 -12 -31 7 -2 12 -23 12 -48 0 -24 5 -44
10 -44 6 0 10 18 10 40 0 27 5 43 15 46 21 8 19 24 -2 24 -17 1 -17 1 0 14 20
16 22 26 4 26 -7 0 -24 -12 -37 -27z"/>
<path d="M5910 3302 c-16 -13 -22 -29 -22 -57 0 -67 64 -98 113 -54 26 22 23
22 -37 4 -51 -16 -77 75 -28 97 20 9 30 9 45 0 30 -19 44 -14 24 8 -22 25 -66
26 -95 2z"/>
<path d="M6440 3305 c0 -8 5 -15 10 -15 6 0 10 7 10 15 0 8 -4 15 -10 15 -5 0
-10 -7 -10 -15z"/>
<path d="M6773 3294 c-20 -20 -24 -31 -19 -57 11 -58 68 -85 112 -53 15 12 17
17 7 27 -9 9 -13 9 -13 2 0 -18 -37 -25 -60 -13 -31 17 -28 77 6 92 20 9 30 9
46 -1 26 -16 39 -3 14 15 -30 21 -64 17 -93 -12z"/>
<path d="M7120 3297 c0 -20 -4 -23 -29 -19 -23 3 -33 -2 -47 -23 -16 -25 -16
-30 -3 -54 12 -21 23 -26 57 -27 l42 -2 0 74 c0 43 -4 74 -10 74 -5 0 -10 -10
-10 -23z m-5 -72 c0 -25 -4 -30 -25 -30 -16 0 -26 6 -28 18 -6 30 6 49 30 45
18 -2 23 -9 23 -33z"/>
<path d="M7170 3304 c0 -17 22 -14 28 4 2 7 -3 12 -12 12 -9 0 -16 -7 -16 -16z"/>
<path d="M4561 3284 c-9 -11 -10 -18 -3 -23 6 -3 12 -21 14 -40 3 -34 30 -62
45 -47 4 4 0 12 -10 17 -21 12 -23 57 -2 65 8 4 15 10 15 15 0 5 -7 9 -15 9
-8 0 -15 5 -15 10 0 14 -13 12 -29 -6z"/>
<path d="M4959 3283 c-11 -13 -11 -17 -1 -20 7 -3 12 -21 12 -43 0 -30 4 -40
21 -45 27 -9 39 4 16 16 -22 13 -24 69 -2 69 8 0 15 5 15 10 0 6 -7 10 -15 10
-8 0 -15 5 -15 10 0 15 -16 12 -31 -7z"/>
<path d="M6350 3283 c-10 -12 -11 -18 -2 -21 7 -2 12 -15 12 -28 0 -14 5 -34
10 -45 11 -20 40 -27 40 -9 0 6 -4 10 -10 10 -15 0 -12 68 2 72 9 3 8 9 -4 21
-20 21 -29 21 -48 0z"/>
<path d="M4016 3258 c-21 -30 -20 -44 4 -68 38 -38 90 -15 90 40 0 50 -66 69
-94 28z m69 -19 c8 -26 -16 -54 -39 -46 -16 6 -22 48 -9 60 14 14 42 6 48 -14z"/>
<path d="M4286 3264 c-21 -20 -20 -58 0 -79 19 -18 65 -17 72 2 2 9 -5 11 -26
7 -21 -4 -31 -2 -35 10 -5 13 1 16 33 16 28 0 40 4 40 14 0 20 -28 46 -50 46
-10 0 -26 -7 -34 -16z m54 -14 c0 -5 -12 -10 -26 -10 -14 0 -23 4 -19 10 3 6
15 10 26 10 10 0 19 -4 19 -10z"/>
<path d="M4640 3223 c0 -29 5 -53 10 -53 6 0 10 14 10 30 0 17 9 39 20 50 26
26 26 27 -10 27 -30 0 -30 -1 -30 -54z"/>
<path d="M4710 3244 c0 -57 14 -73 60 -71 l40 1 0 53 c0 40 -4 53 -14 53 -10
0 -16 -14 -18 -42 -2 -30 -8 -43 -18 -43 -10 0 -16 13 -18 43 -4 54 -32 60
-32 6z"/>
<path d="M4847 3262 c-33 -36 -8 -92 40 -92 24 0 49 25 34 34 -5 4 -12 2 -16
-4 -10 -16 -33 -12 -44 9 -7 13 -6 24 4 37 11 16 17 17 33 7 24 -14 36 -5 21
14 -16 19 -53 16 -72 -5z"/>
<path d="M5040 3230 c0 -53 5 -57 68 -58 20 -1 22 4 22 54 0 64 -17 73 -22 12
-2 -35 -7 -43 -23 -43 -16 0 -21 8 -23 43 -4 59 -22 53 -22 -8z"/>
<path d="M5160 3224 c0 -30 5 -54 10 -54 6 0 10 18 10 40 0 27 5 43 15 46 23
9 18 22 -10 22 -24 0 -25 -4 -25 -54z"/>
<path d="M5230 3225 c0 -42 3 -55 15 -55 12 0 15 13 15 55 0 42 -3 55 -15 55
-12 0 -15 -13 -15 -55z"/>
<path d="M5280 3223 c0 -40 4 -53 14 -53 10 0 16 14 18 43 2 29 8 42 18 42 10
0 16 -13 18 -42 4 -55 32 -61 32 -7 0 57 -14 73 -60 71 l-40 -1 0 -53z"/>
<path d="M5412 3268 c-17 -17 -15 -63 3 -78 8 -7 26 -10 40 -7 20 3 25 1 23
-12 -3 -11 -13 -16 -36 -15 -39 2 -42 -13 -5 -22 44 -11 58 6 61 78 l3 65 -39
1 c-21 1 -44 -4 -50 -10z m63 -38 c0 -18 -6 -26 -23 -28 -27 -4 -40 22 -22 44
19 22 45 13 45 -16z"/>
<path d="M5657 3262 c-22 -24 -21 -55 1 -75 39 -36 92 -10 92 43 0 47 -61 68
-93 32z m67 -24 c13 -22 -14 -54 -38 -45 -16 6 -22 48 -9 61 11 11 35 3 47
-16z"/>
<path d="M5780 3224 c0 -30 5 -54 10 -54 6 0 10 18 10 40 0 27 5 43 15 46 23
9 18 22 -10 22 -24 0 -25 -4 -25 -54z"/>
<path d="M6040 3223 c0 -29 5 -53 10 -53 6 0 10 14 10 30 0 17 9 39 20 50 26
26 25 29 -10 28 -29 -1 -30 -2 -30 -55z"/>
<path d="M6125 3260 c-35 -39 6 -99 58 -86 37 9 34 27 -4 24 -19 -2 -34 2 -36
10 -3 8 8 12 36 12 45 0 48 5 25 38 -19 28 -55 28 -79 2z m60 -10 c4 -6 -5
-10 -20 -10 -15 0 -24 4 -20 10 3 6 12 10 20 10 8 0 17 -4 20 -10z"/>
<path d="M6250 3265 c-11 -13 -8 -14 19 -9 37 8 43 -12 6 -22 -64 -16 -52 -64
16 -61 39 1 39 2 39 42 0 23 -5 46 -12 53 -17 17 -53 15 -68 -3z m50 -60 c0
-8 -9 -15 -20 -15 -20 0 -26 11 -13 23 12 13 33 7 33 -8z"/>
<path d="M6440 3225 c0 -30 5 -55 10 -55 6 0 10 25 10 55 0 30 -4 55 -10 55
-5 0 -10 -25 -10 -55z"/>
<path d="M6480 3272 c0 -21 40 -102 50 -102 5 0 10 1 10 3 0 1 9 26 20 55 17
44 18 52 5 52 -8 0 -15 -4 -15 -9 0 -5 -5 -22 -11 -38 l-11 -28 -12 34 c-12
33 -36 55 -36 33z"/>
<path d="M6603 3254 c-15 -24 -15 -29 -2 -53 17 -31 60 -39 79 -16 11 14 9 15
-20 13 -19 -2 -35 2 -37 10 -3 8 8 12 36 12 45 0 48 5 25 38 -21 30 -59 29
-81 -4z m62 -4 c4 -6 -5 -10 -20 -10 -15 0 -24 4 -20 10 3 6 12 10 20 10 8 0
17 -4 20 -10z"/>
<path d="M6914 3255 c-32 -49 23 -104 75 -75 28 15 29 75 2 90 -32 17 -60 11
-77 -15z m74 -27 c2 -19 -2 -28 -17 -33 -27 -8 -41 1 -41 29 0 29 9 38 35 34
13 -2 21 -12 23 -30z"/>
<path d="M7170 3225 c0 -42 3 -55 15 -55 12 0 15 13 15 55 0 42 -3 55 -15 55
-12 0 -15 -13 -15 -55z"/>
<path d="M7220 3223 c0 -40 4 -53 14 -53 10 0 16 14 18 43 2 29 8 42 18 42 10
0 16 -13 18 -42 4 -55 32 -61 32 -7 0 57 -14 73 -60 71 l-40 -1 0 -53z"/>
<path d="M7352 3268 c-17 -17 -15 -63 3 -78 8 -7 26 -10 40 -7 20 3 25 1 23
-12 -3 -12 -14 -15 -43 -14 -37 2 -39 1 -21 -12 24 -18 58 -19 74 -3 7 7 12
39 12 73 l0 62 -38 1 c-21 1 -44 -4 -50 -10z m63 -38 c0 -20 -5 -25 -25 -25
-28 0 -41 32 -18 46 23 15 43 5 43 -21z"/>
<path d="M3906 2957 c3 -10 9 -15 12 -12 3 3 0 11 -7 18 -10 9 -11 8 -5 -6z"/>
<path d="M4793 2930 c0 -25 2 -35 4 -22 2 12 2 32 0 45 -2 12 -4 2 -4 -23z"/>
<path d="M5673 2930 c0 -25 2 -35 4 -22 2 12 2 32 0 45 -2 12 -4 2 -4 -23z"/>
<path d="M5893 2925 c0 -27 2 -38 4 -22 2 15 2 37 0 50 -2 12 -4 0 -4 -28z"/>
<path d="M7163 2925 c0 -27 2 -38 4 -22 2 15 2 37 0 50 -2 12 -4 0 -4 -28z"/>
<path d="M4432 2920 c0 -19 2 -27 5 -17 2 9 2 25 0 35 -3 9 -5 1 -5 -18z"/>
<path d="M4543 2915 c0 -22 2 -30 4 -17 2 12 2 30 0 40 -3 9 -5 -1 -4 -23z"/>
<path d="M4715 2939 c-4 -6 -5 -12 -2 -15 2 -3 7 2 10 11 7 17 1 20 -8 4z"/>
<path d="M5193 2910 c0 -25 2 -35 4 -22 2 12 2 32 0 45 -2 12 -4 2 -4 -23z"/>
<path d="M5633 2915 c0 -22 2 -30 4 -17 2 12 2 30 0 40 -3 9 -5 -1 -4 -23z"/>
<path d="M5939 2912 c5 -34 6 -35 9 -8 2 16 0 32 -5 37 -5 5 -7 -7 -4 -29z"/>
<path d="M6265 2940 c-8 -13 3 -30 18 -30 8 0 7 3 -2 9 -7 5 -10 14 -7 20 4 6
5 11 2 11 -3 0 -8 -4 -11 -10z"/>
<path d="M6572 2920 c0 -19 2 -27 5 -17 2 9 2 25 0 35 -3 9 -5 1 -5 -18z"/>
<path d="M6653 2915 c0 -22 2 -30 4 -17 2 12 2 30 0 40 -3 9 -5 -1 -4 -23z"/>
<path d="M6960 2903 c-3 -29 -1 -48 3 -44 5 5 7 28 5 52 l-3 44 -5 -52z"/>
<path d="M7359 2912 c5 -34 6 -35 9 -8 2 16 0 32 -5 37 -5 5 -7 -7 -4 -29z"/>
<path d="M4152 2910 c0 -19 2 -27 5 -17 2 9 2 25 0 35 -3 9 -5 1 -5 -18z"/>
<path d="M4882 2910 c0 -19 2 -27 5 -17 2 9 2 25 0 35 -3 9 -5 1 -5 -18z"/>
<path d="M4095 2920 l-30 -8 33 -1 c17 0 32 4 32 9 0 6 -1 9 -2 9 -2 -1 -16
-5 -33 -9z"/>
<path d="M5261 2914 c0 -11 3 -14 6 -6 3 7 2 16 -1 19 -3 4 -6 -2 -5 -13z"/>
<path d="M6020 2915 c0 -7 11 -10 30 -7 17 2 30 5 30 7 0 2 -13 5 -30 7 -19 3
-30 0 -30 -7z"/>
<path d="M6990 2915 c0 -7 11 -10 30 -7 17 2 30 5 30 7 0 2 -13 5 -30 7 -19 3
-30 0 -30 -7z"/>
<path d="M4603 2913 c9 -2 25 -2 35 0 9 3 1 5 -18 5 -19 0 -27 -2 -17 -5z"/>
<path d="M6123 2913 c9 -2 23 -2 30 0 6 3 -1 5 -18 5 -16 0 -22 -2 -12 -5z"/>
<path d="M3877 2903 c-4 -3 -7 -11 -7 -17 0 -6 5 -5 12 2 6 6 9 14 7 17 -3 3
-9 2 -12 -2z"/>
<path d="M6301 2894 c0 -11 3 -14 6 -6 3 7 2 16 -1 19 -3 4 -6 -2 -5 -13z"/>
<path d="M7470 2901 c0 -6 4 -13 10 -16 6 -3 7 1 4 9 -7 18 -14 21 -14 7z"/>
<path d="M4295 2889 c-4 -6 -5 -12 -2 -15 2 -3 7 2 10 11 7 17 1 20 -8 4z"/>
<path d="M5530 2889 c0 -5 5 -7 10 -4 6 3 10 8 10 11 0 2 -4 4 -10 4 -5 0 -10
-5 -10 -11z"/>
<path d="M6433 2883 c-3 -10 -8 -22 -11 -27 -3 -5 0 -6 5 -3 11 7 25 47 17 47
-3 0 -7 -8 -11 -17z"/>
<path d="M5244 2766 c-3 -8 -4 -31 -1 -52 4 -38 4 -37 5 8 1 26 7 49 15 51 9
4 9 6 -1 6 -7 1 -15 -5 -18 -13z"/>
<path d="M4943 2725 c0 -27 2 -38 4 -22 2 15 2 37 0 50 -2 12 -4 0 -4 -28z"/>
<path d="M5533 2730 c0 -25 2 -35 4 -22 2 12 2 32 0 45 -2 12 -4 2 -4 -23z"/>
<path d="M6093 2725 c0 -27 2 -38 4 -22 2 15 2 37 0 50 -2 12 -4 0 -4 -28z"/>
<path d="M7063 2725 c0 -27 2 -38 4 -22 2 15 2 37 0 50 -2 12 -4 0 -4 -28z"/>
<path d="M6550 2751 c0 -6 4 -13 10 -16 6 -3 7 1 4 9 -7 18 -14 21 -14 7z"/>
<path d="M4065 2739 c-4 -6 -5 -12 -2 -15 2 -3 7 2 10 11 7 17 1 20 -8 4z"/>
<path d="M4209 2712 c5 -34 6 -35 9 -8 2 16 0 32 -5 37 -5 5 -7 -7 -4 -29z"/>
<path d="M4336 2737 c3 -10 9 -15 12 -12 3 3 0 11 -7 18 -10 9 -11 8 -5 -6z"/>
<path d="M4989 2712 c5 -34 6 -35 9 -8 2 16 0 32 -5 37 -5 5 -7 -7 -4 -29z"/>
<path d="M5413 2715 c0 -22 2 -30 4 -17 2 12 2 30 0 40 -3 9 -5 -1 -4 -23z"/>
<path d="M5489 2712 c5 -34 6 -35 9 -8 2 16 0 32 -5 37 -5 5 -7 -7 -4 -29z"/>
<path d="M5893 2715 c0 -22 2 -30 4 -17 2 12 2 30 0 40 -3 9 -5 -1 -4 -23z"/>
<path d="M5969 2712 c5 -34 6 -35 9 -8 2 16 0 32 -5 37 -5 5 -7 -7 -4 -29z"/>
<path d="M6773 2715 c0 -22 2 -30 4 -17 2 12 2 30 0 40 -3 9 -5 -1 -4 -23z"/>
<path d="M7033 2715 c0 -22 2 -30 4 -17 2 12 2 30 0 40 -3 9 -5 -1 -4 -23z"/>
<path d="M3965 2720 l-30 -8 33 -1 c17 0 32 4 32 9 0 6 -1 9 -2 9 -2 -1 -16
-5 -33 -9z"/>
<path d="M5111 2714 c0 -11 3 -14 6 -6 3 7 2 16 -1 19 -3 4 -6 -2 -5 -13z"/>
<path d="M6001 2714 c0 -11 3 -14 6 -6 3 7 2 16 -1 19 -3 4 -6 -2 -5 -13z"/>
<path d="M6120 2715 c0 -7 11 -10 30 -7 17 2 30 5 30 7 0 2 -13 5 -30 7 -19 3
-30 0 -30 -7z"/>
<path d="M4423 2713 c9 -2 23 -2 30 0 6 3 -1 5 -18 5 -16 0 -22 -2 -12 -5z"/>
<path d="M4543 2713 c9 -2 25 -2 35 0 9 3 1 5 -18 5 -19 0 -27 -2 -17 -5z"/>
<path d="M6498 2713 c7 -3 16 -2 19 1 4 3 -2 6 -13 5 -11 0 -14 -3 -6 -6z"/>
<path d="M7090 2712 c0 -5 14 -7 30 -4 17 2 30 6 30 8 0 2 -13 4 -30 4 -16 0
-30 -4 -30 -8z"/>
<path d="M4263 2525 c0 -27 2 -38 4 -22 2 15 2 37 0 50 -2 12 -4 0 -4 -28z"/>
<path d="M6553 2525 c0 -27 2 -38 4 -22 2 15 2 37 0 50 -2 12 -4 0 -4 -28z"/>
<path d="M6903 2525 c0 -27 2 -38 4 -22 2 15 2 37 0 50 -2 12 -4 0 -4 -28z"/>
<path d="M7653 2525 c0 -27 2 -38 4 -22 2 15 2 37 0 50 -2 12 -4 0 -4 -28z"/>
<path d="M4012 2525 c0 -16 2 -22 5 -12 2 9 2 23 0 30 -3 6 -5 -1 -5 -18z"/>
<path d="M4061 2534 c0 -11 3 -14 6 -6 3 7 2 16 -1 19 -3 4 -6 -2 -5 -13z"/>
<path d="M4541 2534 c0 -11 3 -14 6 -6 3 7 2 16 -1 19 -3 4 -6 -2 -5 -13z"/>
<path d="M4663 2515 c0 -22 2 -30 4 -17 2 12 2 30 0 40 -3 9 -5 -1 -4 -23z"/>
<path d="M5239 2512 c5 -34 6 -35 9 -8 2 16 0 32 -5 37 -5 5 -7 -7 -4 -29z"/>
<path d="M5323 2500 c0 -30 2 -43 4 -27 2 15 2 39 0 55 -2 15 -4 2 -4 -28z"/>
<path d="M5850 2503 c-3 -29 -1 -48 3 -44 5 5 7 28 5 52 l-3 44 -5 -52z"/>
<path d="M6325 2539 c-4 -6 -5 -12 -2 -15 2 -3 7 2 10 11 7 17 1 20 -8 4z"/>
<path d="M6366 2537 c3 -10 9 -15 12 -12 3 3 0 11 -7 18 -10 9 -11 8 -5 -6z"/>
<path d="M6453 2515 c0 -22 2 -30 4 -17 2 12 2 30 0 40 -3 9 -5 -1 -4 -23z"/>
<path d="M6930 2535 c-7 -9 -11 -17 -9 -20 3 -2 10 5 17 15 14 24 10 26 -8 5z"/>
<path d="M7373 2515 c0 -22 2 -30 4 -17 2 12 2 30 0 40 -3 9 -5 -1 -4 -23z"/>
<path d="M3981 2514 c0 -11 3 -14 6 -6 3 7 2 16 -1 19 -3 4 -6 -2 -5 -13z"/>
<path d="M4330 2515 c0 -7 11 -10 30 -7 17 2 30 5 30 7 0 2 -13 5 -30 7 -19 3
-30 0 -30 -7z"/>
<path d="M5880 2515 c0 -7 11 -10 30 -7 17 2 30 5 30 7 0 2 -13 5 -30 7 -19 3
-30 0 -30 -7z"/>
<path d="M7702 2505 c0 -16 2 -22 5 -12 2 9 2 23 0 30 -3 6 -5 -1 -5 -18z"/>
<path d="M4910 2512 c0 -5 14 -7 30 -4 17 2 30 6 30 8 0 2 -13 4 -30 4 -16 0
-30 -4 -30 -8z"/>
<path d="M5453 2513 c9 -2 25 -2 35 0 9 3 1 5 -18 5 -19 0 -27 -2 -17 -5z"/>
<path d="M5540 2511 c0 -6 4 -13 10 -16 6 -3 7 1 4 9 -7 18 -14 21 -14 7z"/>
<path d="M6052 2500 c0 -14 2 -19 5 -12 2 6 2 18 0 25 -3 6 -5 1 -5 -13z"/>
<path d="M7193 2513 c9 -2 23 -2 30 0 6 3 -1 5 -18 5 -16 0 -22 -2 -12 -5z"/>
<path d="M7493 2513 c9 -2 23 -2 30 0 6 3 -1 5 -18 5 -16 0 -22 -2 -12 -5z"/>
<path d="M4780 2501 c0 -6 4 -13 10 -16 6 -3 7 1 4 9 -7 18 -14 21 -14 7z"/>
<path d="M6620 2501 c0 -6 4 -13 10 -16 6 -3 7 1 4 9 -7 18 -14 21 -14 7z"/>
<path d="M6820 2501 c0 -6 4 -13 10 -16 6 -3 7 1 4 9 -7 18 -14 21 -14 7z"/>
<path d="M3592 2300 c0 -19 2 -27 5 -17 2 9 2 25 0 35 -3 9 -5 1 -5 -18z"/>
<path d="M4240 2100 c0 -46 2 -50 24 -50 29 0 56 24 56 49 0 24 -31 51 -58 51
-20 0 -22 -5 -22 -50z m60 1 c0 -17 -6 -31 -16 -35 -23 -9 -34 2 -34 35 0 24
4 29 25 29 21 0 25 -5 25 -29z"/>
<path d="M4527 2143 c-11 -10 -8 -93 3 -93 6 0 10 9 10 20 0 26 14 26 31 -1
13 -19 14 -18 15 23 1 23 -3 46 -10 50 -14 10 -41 10 -49 1z m42 -12 c16 -10
6 -31 -15 -31 -8 0 -14 9 -14 20 0 22 7 25 29 11z"/>
<path d="M4691 2104 c-1 -49 0 -51 27 -50 23 1 27 5 27 31 0 23 -5 31 -22 33
-12 2 -24 11 -26 20 -3 9 -5 -6 -6 -34z m46 -10 c8 -21 -13 -42 -28 -27 -13
13 -5 43 11 43 6 0 13 -7 17 -16z"/>
<path d="M3938 2133 c10 -4 9 -9 -4 -24 -21 -24 -53 -27 -34 -4 11 13 10 14
-2 10 -13 -5 -38 -45 -38 -60 0 -4 30 -1 95 9 6 0 13 5 16 10 4 5 12 5 18 1 9
-5 7 -11 -6 -21 -10 -7 -13 -14 -7 -14 6 0 11 -7 11 -15 0 -8 -4 -12 -9 -9
-14 9 -9 -13 7 -26 9 -7 13 -15 10 -18 -3 -3 -11 3 -18 12 -19 26 -56 13 -51
-17 2 -12 2 -16 -2 -9 -9 18 -24 15 -17 -5 4 -11 3 -14 -5 -9 -7 4 -12 2 -12
-3 0 -6 6 -11 13 -12 6 0 4 -4 -6 -7 -16 -7 -16 -9 -2 -29 9 -12 33 -28 55
-34 33 -10 47 -9 83 5 65 24 74 40 79 129 6 91 -9 120 -70 137 -37 10 -129 13
-104 3z m47 -35 c-19 -11 -30 -5 -21 11 4 6 14 7 22 4 15 -5 14 -7 -1 -15z
m100 -72 c-2 -17 -4 -34 -4 -39 -1 -4 -15 0 -32 8 -20 11 -29 21 -25 31 3 9 6
19 6 23 0 4 13 8 30 8 27 0 29 -3 25 -31z"/>
<path d="M4340 2111 c0 -6 7 -8 15 -5 8 4 15 2 15 -4 0 -5 -9 -12 -21 -15 -29
-8 -18 -32 15 -33 24 -1 27 2 24 30 -2 23 -9 32 -25 34 -13 2 -23 -1 -23 -7z
m35 -41 c-3 -5 -10 -10 -16 -10 -5 0 -9 5 -9 10 0 6 7 10 16 10 8 0 12 -4 9
-10z"/>
<path d="M4411 2083 c1 -36 2 -37 8 -8 3 17 13 30 21 30 8 0 18 -13 22 -30 6
-29 6 -29 5 5 -2 30 -6 35 -29 38 -26 3 -28 1 -27 -35z"/>
<path d="M4611 2106 c-9 -11 -10 -20 -1 -36 13 -24 38 -23 53 1 23 37 -25 68
-52 35z m46 -11 c5 -16 -14 -38 -26 -31 -18 12 -13 48 6 44 9 -2 18 -7 20 -13z"/>
<path d="M4773 2085 c0 -22 2 -30 4 -17 2 12 2 30 0 40 -3 9 -5 -1 -4 -23z"/>
<path d="M4800 2085 c0 -19 5 -35 10 -35 6 0 10 14 10 31 0 39 22 34 31 -7 6
-27 7 -27 8 9 1 35 -1 37 -29 37 -28 0 -30 -3 -30 -35z"/>
<path d="M4880 2104 c0 -9 9 -18 20 -21 11 -3 20 -10 20 -15 0 -5 -10 -6 -21
-3 -15 5 -19 4 -15 -4 10 -16 43 -13 50 4 4 11 -3 19 -19 25 -30 11 -34 25 -5
17 11 -3 20 -1 20 4 0 5 -11 9 -25 9 -16 0 -25 -6 -25 -16z"/>
<path d="M4954 2106 c-11 -29 0 -51 26 -51 21 0 25 5 25 30 0 24 -5 31 -23 33
-13 2 -24 -3 -28 -12z m46 -15 c0 -11 -5 -23 -11 -27 -15 -9 -33 12 -26 30 9
23 37 20 37 -3z"/>
<path d="M5031 2083 c1 -36 2 -37 8 -8 8 40 38 46 44 8 4 -28 4 -28 3 2 -1 25
-6 31 -28 33 -26 3 -28 1 -27 -35z"/>
<path d="M4292 1910 c0 -14 2 -19 5 -12 2 6 2 18 0 25 -3 6 -5 1 -5 -13z"/>
<path d="M1025 1435 l-25 -24 0 -526 c0 -348 3 -524 10 -520 6 3 10 1 10 -4 0
-6 -4 -11 -10 -11 -5 0 -10 -25 -10 -55 l0 -55 1300 0 1300 0 0 585 0 586 -25
24 -24 25 -325 0 c-299 0 -326 -1 -336 -17 -11 -17 -11 -17 -6 0 5 16 -24 17
-519 17 -343 0 -525 -3 -525 -10 0 -5 -5 -10 -11 -10 -5 0 -7 5 -4 10 12 19
-7 10 -26 -12 l-18 -23 -1 23 c0 12 -5 22 -11 22 -6 0 -9 -9 -6 -20 3 -11 1
-18 -4 -14 -5 3 -9 12 -9 20 0 12 -52 14 -350 14 l-351 0 -24 -25z m1792 -20
c-7 -16 -47 -22 -47 -7 0 9 42 32 49 26 2 -2 1 -10 -2 -19z m-1127 11 c0 -3
-4 -8 -10 -11 -5 -3 -10 -1 -10 4 0 6 5 11 10 11 6 0 10 -2 10 -4z m-60 -26
c0 -13 -10 -22 -32 -28 -18 -6 -41 -13 -50 -17 -15 -6 -18 -2 -18 21 1 28 1
28 15 10 9 -13 15 -15 15 -7 0 17 30 40 53 41 10 0 17 -7 17 -20z m1127 -2
c-3 -8 -6 -5 -6 6 -1 11 2 17 5 13 3 -3 4 -12 1 -19z m-17 -1 c0 -13 -60 -41
-69 -32 -2 3 1 5 7 5 7 0 12 6 12 14 0 13 13 20 43 25 4 0 7 -5 7 -12z m-1230
-16 c0 -5 2 -15 5 -23 7 -18 -53 -44 -67 -30 -15 15 -3 41 24 52 30 12 38 12
38 1z m1150 4 c0 -2 -10 -13 -22 -24 -17 -17 -24 -18 -37 -8 -12 10 -13 9 -6
-2 6 -11 4 -13 -9 -8 -10 4 -24 1 -32 -8 -18 -17 -37 -20 -32 -4 2 6 6 9 8 7
3 -1 16 5 30 15 13 9 37 17 52 17 15 0 30 5 33 10 6 10 15 13 15 5z m-150 -61
c0 -8 -4 -13 -9 -9 -5 3 -12 1 -16 -5 -4 -6 -11 -8 -16 -4 -5 3 -7 10 -3 15 3
5 9 7 14 4 5 -3 11 -1 15 5 9 15 15 12 15 -6z m-73 -29 c9 -10 3 -14 -30 -21
-23 -4 -50 -7 -60 -6 -10 1 -16 -2 -13 -7 3 -5 -5 -11 -19 -13 -45 -9 -27 19
20 32 25 7 47 16 50 20 7 11 39 8 52 -5z m338 -1 c-9 -9 -19 -13 -23 -10 -3 4
0 11 8 16 24 15 33 11 15 -6z m-995 -3 c0 -14 -42 -37 -83 -45 -20 -4 -69 -20
-109 -36 -39 -16 -75 -27 -80 -24 -15 10 -9 44 9 44 27 0 123 33 123 42 0 5 9
4 20 -2 11 -6 20 -7 20 -1 0 5 17 13 38 19 49 13 62 14 62 3z m960 -11 c0 -5
-5 -10 -11 -10 -5 0 -7 5 -4 10 3 6 8 10 11 10 2 0 4 -4 4 -10z m-460 -26 c0
-8 -5 -12 -10 -9 -6 4 -8 11 -5 16 9 14 15 11 15 -7z m-93 -35 c2 -16 -1 -19
-9 -11 -5 5 -7 15 -4 21 10 15 12 14 13 -10z m-27 -9 c0 -5 -2 -10 -4 -10 -3
0 -8 5 -11 10 -3 6 -1 10 4 10 6 0 11 -4 11 -10z m-60 -20 c0 -5 -4 -10 -10
-10 -5 0 -10 5 -10 10 0 6 5 10 10 10 6 0 10 -4 10 -10z m360 6 c0 -3 -4 -8
-10 -11 -5 -3 -10 -1 -10 4 0 6 5 11 10 11 6 0 10 -2 10 -4z m-420 -26 c0 -5
-4 -10 -10 -10 -5 0 -10 5 -10 10 0 6 5 10 10 10 6 0 10 -4 10 -10z m-30 -4
c0 -3 -4 -8 -10 -11 -5 -3 -10 -1 -10 4 0 6 5 11 10 11 6 0 10 -2 10 -4z m-60
-26 c0 -5 -7 -7 -15 -4 -8 4 -15 2 -15 -3 0 -5 -7 -10 -16 -10 -14 0 -14 2 2
14 21 15 44 17 44 3z m780 -10 c0 -5 -5 -10 -11 -10 -5 0 -7 5 -4 10 3 6 8 10
11 10 2 0 4 -4 4 -10z m-880 -20 c0 -5 -2 -10 -4 -10 -3 0 -8 5 -11 10 -3 6
-1 10 4 10 6 0 11 -4 11 -10z m-33 -15 c0 -8 -4 -12 -9 -9 -4 3 -8 9 -8 15 0
5 4 9 8 9 5 0 9 -7 9 -15z m-27 -4 c0 -6 -4 -13 -10 -16 -5 -3 -10 1 -10 9 0
9 5 16 10 16 6 0 10 -4 10 -9z m-70 -17 c0 -8 -5 -12 -10 -9 -6 4 -8 11 -5 16
9 14 15 11 15 -7z m33 -5 c-8 -8 -13 -7 -18 2 -5 8 -4 10 3 5 7 -4 12 -2 12 5
0 7 3 9 7 6 4 -4 2 -12 -4 -18z m-93 -24 c0 -8 -2 -15 -4 -15 -2 0 -6 7 -10
15 -3 8 -1 15 4 15 6 0 10 -7 10 -15z m966 0 c-11 -8 -25 -15 -30 -15 -6 0 -2
7 8 15 11 8 25 15 30 15 6 0 2 -7 -8 -15z m-1032 -34 c-9 -10 -26 18 -18 30 5
9 9 8 14 -7 4 -10 6 -21 4 -23z m400 26 c-4 -11 -44 -19 -44 -10 0 3 33 18 47
22 1 1 0 -5 -3 -12z m486 1 c0 -4 -9 -8 -21 -8 -11 0 -18 4 -15 8 3 5 12 9 21
9 8 0 15 -4 15 -9z m-950 -34 c0 -8 -4 -12 -10 -9 -5 3 -10 10 -10 16 0 5 5 9
10 9 6 0 10 -7 10 -16z m-30 -9 c10 -12 10 -15 -4 -15 -9 0 -16 7 -16 15 0 8
2 15 4 15 2 0 9 -7 16 -15z m850 5 c0 -5 -8 -10 -17 -10 -15 0 -16 2 -3 10 19
12 20 12 20 0z m1056 -19 c-8 -13 -126 -55 -133 -47 -9 9 0 15 53 36 54 20 88
25 80 11z m-979 -7 c-3 -3 -12 -4 -19 -1 -8 3 -5 6 6 6 11 1 17 -2 13 -5z
m-637 -8 c0 -3 -4 -8 -10 -11 -5 -3 -10 -1 -10 4 0 6 5 11 10 11 6 0 10 -2 10
-4z m700 -61 c0 -8 -4 -15 -10 -15 -5 0 -10 7 -10 15 0 8 5 15 10 15 6 0 10
-7 10 -15z m-83 -29 c-3 -8 -30 -22 -59 -31 -29 -9 -59 -19 -65 -21 -7 -3 -13
-2 -13 4 0 10 45 33 75 39 11 2 29 10 40 17 23 16 30 13 22 -8z m33 15 c0 -6
-4 -13 -10 -16 -5 -3 -10 1 -10 9 0 9 5 16 10 16 6 0 10 -4 10 -9z m730 4 c0
-8 -52 -32 -155 -70 -55 -21 -117 -46 -138 -55 -21 -10 -52 -22 -70 -25 -18
-4 -47 -16 -66 -26 -25 -15 -37 -17 -45 -9 -15 15 19 40 55 40 15 0 29 5 31
10 4 13 130 60 158 60 11 0 20 4 20 9 0 5 8 11 18 14 9 3 49 17 87 31 66 24
105 32 105 21z m-949 -85 c-13 -11 -33 -20 -45 -20 -12 0 -26 -4 -31 -9 -15
-13 -75 -31 -75 -22 0 7 151 69 170 70 3 0 -6 -9 -19 -19z m-186 -69 c-15 -15
-146 -60 -143 -49 2 5 28 20 58 33 58 24 101 32 85 16z m619 -41 c-12 -5 -25
-13 -29 -19 -3 -6 -17 -11 -29 -11 -13 0 -29 -7 -36 -15 -7 -8 -17 -15 -23
-15 -6 0 -39 -11 -73 -25 -75 -30 -124 -41 -124 -28 0 11 97 53 122 53 9 0 19
4 22 9 5 8 100 45 141 54 34 8 51 6 29 -3z m-824 -35 c-30 -17 -50 -19 -50 -4
0 5 4 8 9 4 5 -3 12 -1 16 5 3 5 16 10 28 10 21 -1 21 -1 -3 -15z m910 -25 c0
-5 -7 -10 -15 -10 -8 0 -15 5 -15 10 0 6 7 10 15 10 8 0 15 -4 15 -10z m-1014
-12 c-25 -14 -86 -28 -86 -19 0 8 53 25 85 28 19 2 19 2 1 -9z m944 -12 c0 -8
-21 -22 -47 -32 -27 -9 -66 -25 -89 -35 -22 -11 -48 -19 -58 -19 -30 0 -11 24
30 38 21 8 46 17 54 20 29 10 105 39 108 41 1 0 2 -5 2 -13z m-380 -55 c0 -13
-205 -91 -239 -91 -27 0 -1 14 107 57 110 44 132 49 132 34z m160 -31 c0 -12
-48 -37 -119 -61 -64 -21 -71 -22 -71 -10 0 4 26 19 58 33 31 14 68 30 82 36
32 14 50 15 50 2z m-1370 -24 c0 -2 -9 -6 -20 -9 -11 -3 -18 -1 -14 4 5 9 34
13 34 5z m944 -45 c4 -5 -21 -18 -55 -30 -70 -23 -77 -8 -9 20 53 21 57 22 64
10z m-140 -50 c7 -11 -48 -35 -66 -29 -8 3 -1 11 17 21 35 19 42 20 49 8z
m271 0 c-8 -13 -94 -45 -102 -38 -3 4 14 16 38 27 47 21 74 26 64 11z m-160
-67 c-48 -21 -76 -15 -30 5 22 10 44 16 50 13 5 -3 -4 -12 -20 -18z m-111 -33
c3 -5 -8 -14 -24 -20 -35 -12 -41 1 -7 17 12 6 23 11 24 11 1 1 4 -3 7 -8z"/>
<path d="M3860 1345 c0 -43 4 -75 10 -75 6 0 10 14 10 30 0 28 3 30 35 30 32
0 35 -2 35 -30 0 -16 5 -30 10 -30 6 0 10 32 10 75 0 74 -16 105 -22 43 -3
-29 -7 -33 -35 -36 -32 -3 -33 -2 -33 32 0 20 -4 36 -10 36 -6 0 -10 -32 -10
-75z"/>
<path d="M5500 1397 c0 -20 -4 -23 -29 -19 -23 3 -33 -2 -47 -23 -16 -25 -16
-30 -3 -54 12 -22 22 -26 62 -28 l47 -2 0 75 c0 59 -3 74 -15 74 -9 0 -15 -9
-15 -23z m-10 -52 c19 -23 8 -50 -20 -50 -16 0 -26 6 -28 18 -4 18 14 47 28
47 4 0 13 -7 20 -15z"/>
<path d="M5550 1405 c0 -8 7 -15 15 -15 8 0 15 7 15 15 0 8 -7 15 -15 15 -8 0
-15 -7 -15 -15z"/>
<path d="M4341 1384 c-9 -11 -10 -18 -3 -23 6 -3 12 -21 14 -40 3 -34 30 -62
45 -47 4 5 2 11 -4 13 -17 6 -17 70 -1 75 9 3 8 9 -4 21 -20 21 -29 21 -47 1z"/>
<path d="M4951 1384 c-9 -11 -10 -18 -3 -23 6 -3 12 -21 14 -40 3 -34 30 -62
45 -47 4 5 2 11 -4 13 -17 6 -17 70 -1 75 9 3 8 9 -4 21 -20 21 -29 21 -47 1z"/>
<path d="M4012 1368 c-7 -7 -12 -26 -12 -43 0 -38 16 -55 50 -55 31 0 60 28
60 57 0 42 -68 71 -98 41z m56 -20 c17 -17 15 -45 -4 -52 -18 -7 -44 10 -44
28 0 13 20 36 30 36 3 0 11 -5 18 -12z"/>
<path d="M4123 1366 c3 -8 11 -32 18 -55 15 -49 33 -53 49 -8 l12 32 14 -33
c8 -18 20 -32 26 -30 6 2 19 28 29 56 14 41 15 52 4 52 -7 0 -19 -15 -25 -32
l-13 -33 -10 33 c-5 17 -16 32 -22 32 -7 0 -19 -15 -25 -32 l-13 -33 -10 33
c-5 17 -16 32 -25 32 -8 0 -12 -6 -9 -14z"/>
<path d="M4437 1362 c-34 -37 -11 -92 38 -92 50 0 73 60 37 93 -24 22 -55 21
-75 -1z m58 -37 c0 -23 -5 -30 -19 -30 -28 0 -43 29 -26 50 21 25 45 14 45
-20z"/>
<path d="M4593 1354 c-15 -24 -15 -29 -2 -53 9 -16 25 -27 42 -29 33 -4 63 16
48 31 -7 7 -15 6 -26 -3 -12 -10 -18 -10 -30 0 -8 7 -15 18 -15 25 0 7 7 18
15 25 12 10 18 10 30 0 8 -6 20 -8 26 -4 9 5 7 11 -6 21 -30 21 -63 16 -82
-13z"/>
<path d="M4728 1368 c-43 -35 -19 -101 35 -96 42 4 48 27 6 25 -18 -1 -34 4
-36 11 -3 8 8 12 36 12 45 0 54 16 25 44 -19 19 -45 20 -66 4z m47 -18 c4 -6
-5 -10 -20 -10 -15 0 -24 4 -20 10 3 6 12 10 20 10 8 0 17 -4 20 -10z"/>
<path d="M4830 1323 c0 -40 4 -53 14 -53 10 0 16 14 18 43 2 29 8 42 18 42 10
0 16 -13 18 -42 4 -55 32 -61 32 -7 0 57 -14 73 -60 71 l-40 -1 0 -53z"/>
<path d="M5030 1324 c0 -41 4 -54 15 -54 11 0 15 11 15 39 0 25 5 41 15 45 25
9 17 23 -15 24 -30 1 -30 0 -30 -54z"/>
<path d="M5113 1354 c-15 -24 -15 -29 -2 -53 11 -20 22 -26 49 -26 18 0 35 5
37 12 3 7 -8 10 -28 10 -18 -1 -34 4 -36 11 -3 8 8 12 36 12 45 0 54 16 25 44
-24 25 -61 20 -81 -10z m62 -4 c4 -6 -5 -10 -20 -10 -15 0 -24 4 -20 10 3 6
12 10 20 10 8 0 17 -4 20 -10z"/>
<path d="M5281 1371 c-7 -5 -10 -14 -6 -20 5 -9 10 -9 21 0 10 9 18 9 25 2 8
-8 0 -14 -26 -23 -28 -9 -35 -16 -33 -33 3 -19 10 -22 51 -24 l47 -2 0 35 c0
64 -35 92 -79 65z m49 -61 c0 -12 -28 -25 -36 -17 -9 9 6 27 22 27 8 0 14 -5
14 -10z"/>
<path d="M5550 1325 c0 -42 3 -55 15 -55 12 0 15 13 15 55 0 42 -3 55 -15 55
-12 0 -15 -13 -15 -55z"/>
<path d="M5613 1325 c11 -30 26 -55 33 -55 8 0 14 1 14 3 0 1 9 26 20 55 15
39 17 52 7 52 -7 0 -19 -17 -27 -37 l-14 -38 -14 38 c-8 20 -20 37 -27 37 -9
0 -7 -15 8 -55z"/>
<path d="M7013 1025 c0 -27 2 -38 4 -22 2 15 2 37 0 50 -2 12 -4 0 -4 -28z"/>
<path d="M4993 1025 c0 -22 2 -30 4 -17 2 12 2 30 0 40 -3 9 -5 -1 -4 -23z"/>
<path d="M5643 1025 c0 -22 2 -30 4 -17 2 12 2 30 0 40 -3 9 -5 -1 -4 -23z"/>
<path d="M4333 1015 c0 -22 2 -30 4 -17 2 12 2 30 0 40 -3 9 -5 -1 -4 -23z"/>
<path d="M4823 1015 c0 -22 2 -30 4 -17 2 12 2 30 0 40 -3 9 -5 -1 -4 -23z"/>
<path d="M4944 1029 c0 -10 4 -19 8 -19 4 0 8 6 8 14 0 8 -4 17 -8 20 -4 2 -8
-4 -8 -15z"/>
<path d="M5596 1037 c3 -10 9 -15 12 -12 3 3 0 11 -7 18 -10 9 -11 8 -5 -6z"/>
<path d="M5887 1043 c6 -4 13 -22 16 -38 4 -27 5 -27 3 4 0 21 -7 36 -16 38
-10 3 -11 2 -3 -4z"/>
<path d="M6095 1040 c-8 -13 3 -30 18 -29 9 0 9 2 0 6 -18 7 -16 21 5 26 15 4
15 5 0 6 -9 0 -20 -3 -23 -9z"/>
<path d="M6233 1044 c20 -6 23 -24 5 -24 -9 0 -10 -3 -2 -8 6 -4 14 -14 17
-22 4 -8 5 1 4 20 -1 27 -7 35 -22 37 -16 1 -16 1 -2 -3z"/>
<path d="M6340 1046 c0 -2 9 -6 20 -9 11 -3 18 -1 14 4 -5 9 -34 13 -34 5z"/>
<path d="M6430 1043 c8 -3 19 -11 23 -17 6 -7 7 -6 4 4 -2 8 -12 16 -23 17
-13 2 -15 1 -4 -4z"/>
<path d="M6517 1043 c6 -4 13 -22 16 -38 4 -27 5 -27 3 4 0 21 -7 36 -16 38
-10 3 -11 2 -3 -4z"/>
<path d="M6557 1043 c6 -4 13 -22 16 -38 4 -27 5 -27 3 4 0 21 -7 36 -16 38
-10 3 -11 2 -3 -4z"/>
<path d="M6616 1041 c-3 -5 2 -7 13 -4 16 4 20 -1 24 -29 l5 -33 -2 35 c-1 34
-26 54 -40 31z"/>
<path d="M6670 1046 c0 -2 7 -6 15 -10 8 -3 15 -1 15 4 0 6 -7 10 -15 10 -8 0
-15 -2 -15 -4z"/>
<path d="M6736 1041 c-4 -5 3 -7 14 -4 23 6 26 13 6 13 -8 0 -17 -4 -20 -9z"/>
<path d="M6813 1015 c0 -22 2 -30 4 -17 2 12 2 30 0 40 -3 9 -5 -1 -4 -23z"/>
<path d="M6842 1044 c10 -3 19 -19 21 -37 4 -31 5 -31 3 3 -1 27 -5 35 -21 37
-14 1 -15 0 -3 -3z"/>
<path d="M6950 1046 c0 -2 9 -6 20 -9 11 -3 18 -1 14 4 -5 9 -34 13 -34 5z"/>
<path d="M7323 1015 c0 -22 2 -30 4 -17 2 12 2 30 0 40 -3 9 -5 -1 -4 -23z"/>
<path d="M7348 1043 c7 -3 16 -2 19 1 4 3 -2 6 -13 5 -11 0 -14 -3 -6 -6z"/>
<path d="M7496 1041 c-4 -5 3 -7 14 -4 23 6 26 13 6 13 -8 0 -17 -4 -20 -9z"/>
<path d="M7062 1010 c0 -19 2 -27 5 -17 2 9 2 25 0 35 -3 9 -5 1 -5 -18z"/>
<path d="M4382 1005 c0 -16 2 -22 5 -12 2 9 2 23 0 30 -3 6 -5 -1 -5 -18z"/>
<path d="M4411 1014 c0 -11 3 -14 6 -6 3 7 2 16 -1 19 -3 4 -6 -2 -5 -13z"/>
<path d="M5391 1014 c0 -11 3 -14 6 -6 3 7 2 16 -1 19 -3 4 -6 -2 -5 -13z"/>
<path d="M5931 1014 c0 -11 3 -14 6 -6 3 7 2 16 -1 19 -3 4 -6 -2 -5 -13z"/>
<path d="M6320 1011 c0 -11 4 -22 9 -25 4 -3 6 6 3 19 -5 30 -12 33 -12 6z"/>
<path d="M6778 1007 c-3 -19 -2 -25 4 -19 6 6 8 18 6 28 -3 14 -5 12 -10 -9z"/>
<path d="M6930 1011 c0 -11 4 -22 9 -25 4 -3 6 6 3 19 -5 30 -12 33 -12 6z"/>
<path d="M7130 1020 c-9 -6 -10 -10 -3 -10 6 0 14 -8 16 -17 3 -11 5 -7 6 10
1 30 1 30 -19 17z"/>
<path d="M7285 1020 c-3 -5 -1 -10 4 -10 6 0 11 5 11 10 0 6 -2 10 -4 10 -3 0
-8 -4 -11 -10z"/>
<path d="M7372 1005 c0 -16 2 -22 5 -12 2 9 2 23 0 30 -3 6 -5 -1 -5 -18z"/>
<path d="M7400 1011 c0 -11 4 -22 9 -25 4 -3 6 6 3 19 -5 30 -12 33 -12 6z"/>
<path d="M5680 1009 c0 -5 5 -7 10 -4 6 3 10 8 10 11 0 2 -4 4 -10 4 -5 0 -10
-5 -10 -11z"/>
<path d="M7498 1013 c7 -3 16 -2 19 1 4 3 -2 6 -13 5 -11 0 -14 -3 -6 -6z"/>
<path d="M6400 1001 c0 -6 4 -13 10 -16 6 -3 7 1 4 9 -7 18 -14 21 -14 7z"/>
<path d="M4193 825 c0 -27 2 -38 4 -22 2 15 2 37 0 50 -2 12 -4 0 -4 -28z"/>
<path d="M4663 825 c0 -27 2 -38 4 -22 2 15 2 37 0 50 -2 12 -4 0 -4 -28z"/>
<path d="M5673 825 c0 -27 2 -38 4 -22 2 15 2 37 0 50 -2 12 -4 0 -4 -28z"/>
<path d="M6558 858 c-2 -7 -1 -26 2 -43 l6 -30 5 32 c6 34 -4 66 -13 41z"/>
<path d="M3918 843 c6 -2 18 -2 25 0 6 3 1 5 -13 5 -14 0 -19 -2 -12 -5z"/>
<path d="M3986 841 c-3 -4 6 -6 19 -3 14 2 25 6 25 8 0 8 -39 4 -44 -5z"/>
<path d="M4066 841 c-4 -5 3 -7 14 -4 23 6 26 13 6 13 -8 0 -17 -4 -20 -9z"/>
<path d="M4146 841 c-4 -5 3 -7 14 -4 23 6 26 13 6 13 -8 0 -17 -4 -20 -9z"/>
<path d="M4298 843 c7 -3 16 -2 19 1 4 3 -2 6 -13 5 -11 0 -14 -3 -6 -6z"/>
<path d="M5597 843 c-4 -3 -7 -11 -7 -17 0 -6 5 -5 12 2 6 6 9 14 7 17 -3 3
-9 2 -12 -2z"/>
<path d="M6087 843 c-4 -3 -7 -11 -7 -17 0 -7 3 -7 8 0 4 7 16 14 27 17 19 5
19 5 -1 6 -11 0 -24 -2 -27 -6z"/>
<path d="M6166 842 c-3 -5 5 -8 17 -8 17 1 22 -5 22 -26 -1 -14 3 -24 7 -22
12 8 10 38 -4 52 -14 14 -35 16 -42 4z"/>
<path d="M6243 815 c0 -22 2 -30 4 -17 2 12 2 30 0 40 -3 9 -5 -1 -4 -23z"/>
<path d="M6270 840 c8 -5 25 -7 37 -4 18 5 22 1 26 -28 l5 -33 -2 35 c-1 34
-3 35 -41 37 -28 2 -36 0 -25 -7z"/>
<path d="M6380 846 c0 -2 9 -6 20 -9 11 -3 18 -1 14 4 -5 9 -34 13 -34 5z"/>
<path d="M6458 843 c6 -2 18 -2 25 0 6 3 1 5 -13 5 -14 0 -19 -2 -12 -5z"/>
<path d="M6616 841 c-4 -5 3 -7 14 -4 23 6 26 13 6 13 -8 0 -17 -4 -20 -9z"/>
<path d="M6737 843 c-4 -3 -7 -11 -7 -17 0 -7 3 -7 8 0 4 7 16 14 27 17 19 5
19 5 -1 6 -11 0 -24 -2 -27 -6z"/>
<path d="M6866 841 c-4 -5 3 -7 14 -4 23 6 26 13 6 13 -8 0 -17 -4 -20 -9z"/>
<path d="M6950 846 c0 -2 9 -6 20 -9 11 -3 18 -1 14 4 -5 9 -34 13 -34 5z"/>
<path d="M7018 843 c7 -3 16 -2 19 1 4 3 -2 6 -13 5 -11 0 -14 -3 -6 -6z"/>
<path d="M7137 843 c6 -4 13 -22 16 -38 4 -27 5 -27 3 4 0 21 -7 36 -16 38
-10 3 -11 2 -3 -4z"/>
<path d="M6812 810 c0 -19 2 -27 5 -17 2 9 2 25 0 35 -3 9 -5 1 -5 -18z"/>
<path d="M7072 810 c0 -19 2 -27 5 -17 2 9 2 25 0 35 -3 9 -5 1 -5 -18z"/>
<path d="M7102 810 c0 -19 2 -27 5 -17 2 9 2 25 0 35 -3 9 -5 1 -5 -18z"/>
<path d="M4085 820 l-30 -8 33 -1 c17 0 32 4 32 9 0 6 -1 9 -2 9 -2 -1 -16 -5
-33 -9z"/>
<path d="M4871 814 c0 -11 3 -14 6 -6 3 7 2 16 -1 19 -3 4 -6 -2 -5 -13z"/>
<path d="M5281 814 c0 -11 3 -14 6 -6 3 7 2 16 -1 19 -3 4 -6 -2 -5 -13z"/>
<path d="M5722 805 c0 -16 2 -22 5 -12 2 9 2 23 0 30 -3 6 -5 -1 -5 -18z"/>
<path d="M5752 810 c0 -14 2 -19 5 -12 2 6 2 18 0 25 -3 6 -5 1 -5 -13z"/>
<path d="M6360 809 c0 -10 4 -21 10 -24 5 -3 7 0 4 9 -4 10 3 16 23 18 l28 3
-32 6 c-27 5 -33 2 -33 -12z"/>
<path d="M6661 814 c0 -11 3 -14 6 -6 3 7 2 16 -1 19 -3 4 -6 -2 -5 -13z"/>
<path d="M6885 820 l-30 -8 33 -1 c17 0 32 4 32 9 0 6 -1 9 -2 9 -2 -1 -16 -5
-33 -9z"/>
<path d="M7181 814 c0 -11 3 -14 6 -6 3 7 2 16 -1 19 -3 4 -6 -2 -5 -13z"/>
<path d="M3928 813 c7 -3 16 -2 19 1 4 3 -2 6 -13 5 -11 0 -14 -3 -6 -6z"/>
<path d="M6968 813 c7 -3 16 -2 19 1 4 3 -2 6 -13 5 -11 0 -14 -3 -6 -6z"/>
<path d="M4316 793 c-6 -14 -5 -15 5 -6 7 7 10 15 7 18 -3 3 -9 -2 -12 -12z"/>
<path d="M6483 795 c0 -8 4 -12 9 -9 5 3 6 10 3 15 -9 13 -12 11 -12 -6z"/>
<path d="M4375 789 c-4 -6 -5 -12 -2 -15 2 -3 7 2 10 11 7 17 1 20 -8 4z"/>
<path d="M5053 625 c0 -27 2 -40 4 -28 2 13 13 24 26 26 l22 4 -22 2 c-14 1
-23 9 -26 24 -2 12 -4 0 -4 -28z"/>
<path d="M5693 625 c0 -27 2 -38 4 -22 2 15 2 37 0 50 -2 12 -4 0 -4 -28z"/>
<path d="M7263 625 c0 -27 2 -38 4 -22 2 15 2 37 0 50 -2 12 -4 0 -4 -28z"/>
<path d="M7483 625 c0 -27 2 -38 4 -22 2 15 2 37 0 50 -2 12 -4 0 -4 -28z"/>
<path d="M5273 625 c0 -22 2 -30 4 -17 2 12 2 30 0 40 -3 9 -5 -1 -4 -23z"/>
<path d="M6733 625 c0 -22 2 -30 4 -17 2 12 2 30 0 40 -3 9 -5 -1 -4 -23z"/>
<path d="M4133 615 c0 -22 2 -30 4 -17 2 12 2 30 0 40 -3 9 -5 -1 -4 -23z"/>
<path d="M6276 618 c5 -42 14 -49 14 -10 0 17 -4 33 -9 36 -4 3 -7 -9 -5 -26z"/>
<path d="M7049 612 c5 -34 6 -35 9 -8 2 16 0 32 -5 37 -5 5 -7 -7 -4 -29z"/>
<path d="M7070 646 c0 -2 7 -6 15 -10 8 -3 15 -1 15 4 0 6 -7 10 -15 10 -8 0
-15 -2 -15 -4z"/>
<path d="M7663 615 c0 -22 2 -30 4 -17 2 12 2 30 0 40 -3 9 -5 -1 -4 -23z"/>
<path d="M4680 611 c0 -11 4 -22 9 -25 4 -3 6 6 3 19 -5 30 -12 33 -12 6z"/>
<path d="M7312 605 c0 -16 2 -22 5 -12 2 9 2 23 0 30 -3 6 -5 -1 -5 -18z"/>
<path d="M7712 605 c0 -16 2 -22 5 -12 2 9 2 23 0 30 -3 6 -5 -1 -5 -18z"/>
<path d="M6880 609 c0 -5 5 -7 10 -4 6 3 10 8 10 11 0 2 -4 4 -10 4 -5 0 -10
-5 -10 -11z"/>
<path d="M4620 605 c0 -5 5 -17 10 -25 5 -8 10 -10 10 -5 0 6 -5 17 -10 25 -5
8 -10 11 -10 5z"/>
</g>
</svg>
